<svg xmlns="http://www.w3.org/2000/svg" xmlns:xlink="http://www.w3.org/1999/xlink" width="250" height="365.65" viewBox="0 0 250 365.65">
  <defs>
    <filter id="패스_4" x="36.872" y="71.742" width="176.256" height="181.246" filterUnits="userSpaceOnUse">
      <feOffset dy="3" input="SourceAlpha"/>
      <feGaussianBlur stdDeviation="3" result="blur"/>
      <feFlood flood-color="#bddcf4"/>
      <feComposite operator="in" in2="blur"/>
      <feComposite in="SourceGraphic"/>
    </filter>
    <filter id="Share_the_values" x="0" y="0" width="250" height="62" filterUnits="userSpaceOnUse">
      <feOffset dy="3" input="SourceAlpha"/>
      <feGaussianBlur stdDeviation="3" result="blur-2"/>
      <feFlood flood-color="#fff"/>
      <feComposite operator="in" in2="blur-2"/>
      <feComposite in="SourceGraphic"/>
    </filter>
    <clipPath id="clip-path">
      <path id="패스_10429" data-name="패스 10429" d="M50.677,25.609A18.753,18.753,0,0,1,32.133,44.564,18.753,18.753,0,0,1,13.59,25.609,18.753,18.753,0,0,1,32.133,6.654,18.753,18.753,0,0,1,50.677,25.609Z" transform="translate(-13.59 -6.654)" fill="#4c96ce"/>
    </clipPath>
  </defs>
  <g id="그룹_16038" data-name="그룹 16038" transform="translate(-81 -239)">
    <g id="recy_sizuku" transform="matrix(0.875, -0.485, 0.485, 0.875, -132.714, 21.091)">
      <g transform="matrix(0.87, 0.48, -0.48, 0.87, 81.27, 294.2)" filter="url(#패스_4)">
        <path id="패스_4-2" data-name="패스 4" d="M60.456,0a60.624,60.624,0,1,0,59.376,49.23l9.761-1.743L118.806,34.458,107.865,21.582l-5.8,15.864-5.7,15.915L107.711,51.4A48.093,48.093,0,1,1,98.72,31.315L103.5,18.13A60.063,60.063,0,0,0,60.453,0Z" transform="translate(90.2 240.99) rotate(-110)" fill="#4c96ce"/>
      </g>
      <g id="그룹_1" data-name="그룹 1" transform="translate(97.071 463.171) rotate(11)">
        <path id="패스_5" data-name="패스 5" d="M37.071,42.3A18.94,18.94,0,0,1,.819,31.315C5.251,16.7,15.2,21.61,30.284.347,33.241-3.822,41.02,30.7,37.071,42.3Z" transform="translate(0 0)" fill="#4c96ce"/>
        <path id="패스_6" data-name="패스 6" d="M0,8.028S5.134,6.908,9.849,0" transform="translate(23.778 43.495)" fill="none" stroke="#c7ddeb" stroke-linecap="round" stroke-linejoin="round" stroke-width="8.956"/>
      </g>
    </g>
    <g transform="matrix(1, 0, 0, 1, 81, 239)" filter="url(#Share_the_values)">
      <text id="Share_the_values-2" data-name="Share the values" transform="translate(12 37)" fill="#4c96ce" stroke="#4c96ce" stroke-width="3" font-size="31" font-family="InkFree, Ink Free"><tspan x="0" y="0">Share the values</tspan></text>
    </g>
    <g id="그룹_16030" data-name="그룹 16030" transform="translate(0 5.65)">
      <text id="ELSETECH" transform="translate(154.301 586)" fill="#4c96ce" stroke="#4c96ce" stroke-width="3" font-size="39" font-family="SegoeUI, Segoe UI"><tspan x="0" y="0">ELSETECH</tspan></text>
      <g id="recycling-160925" transform="translate(22.83 518.174)">
        <g id="그룹_16027" data-name="그룹 16027" transform="translate(88.908 39.916)" clip-path="url(#clip-path)">
          <path id="패스_10428" data-name="패스 10428" d="M22.9,4.511c-.043,0-.073.011-.081.023-.02.032-.1.039-.185.018a.526.526,0,0,0-.285.018.521.521,0,0,1-.221.044c-.081-.012-.2.16-.213.321,0,.04-.152.063-.33.05-.237-.017-.319,0-.3.073s-.062.1-.223.1a.651.651,0,0,0-.3.055.781.781,0,0,1-.325.06l-.273.009.266.046c.146.025.249.069.228.1s.039.107.135.172c.134.091.2.1.28.034a.21.21,0,0,1,.244-.016A1.181,1.181,0,0,0,22.431,5.6c.261-.134.4-.167.453-.112.122.118-.075.256-.6.422-.334.106-.5.126-.622.073-.177-.076-.4-.029-.4.085s.541.384.686.339c.178-.055.255.068.114.181-.156.125-.913.006-.913-.144a.312.312,0,0,0-.13-.2.194.194,0,0,1-.085-.2c.024-.061.015-.1-.021-.1a1.039,1.039,0,0,1-.484-.161c-.226-.136-.306-.158-.434-.11-.112.042-.115.058-.019.117.111.068.091.081-.173.1A.323.323,0,0,0,19.617,6c-.11.136.075.288.353.294a.72.72,0,0,1,.3.076c.089.055.06.08-.14.119S19.9,6.549,20,6.6c.068.037.1.1.081.135s.086.069.251.069a.565.565,0,0,0,.434-.147c.105-.112.16-.128.24-.064a2.6,2.6,0,0,0,.332.2c.126.065.236.152.242.193.019.124-.236.127-.363,0-.066-.063-.085-.115-.043-.115a.167.167,0,0,1,.123.073.226.226,0,0,0,.173.073c.1,0,.086-.027-.05-.119a.306.306,0,0,0-.375-.03c-.18.079-.188.1-.069.161.139.075.11.211-.045.209-.054,0-.045-.031.024-.073S21.037,7.1,21,7.1c-.125,0-.3.133-.249.186a3.227,3.227,0,0,0,.712.076,3.888,3.888,0,0,1,.7.067c.054.052.084.049.368-.05.261-.091.354-.218.116-.158-.188.048-.568-.1-.505-.2.028-.044.133-.059.235-.034a.705.705,0,0,0,.429-.078c.134-.067.291-.145.351-.172a.3.3,0,0,0,.142-.147c.024-.07-.018-.084-.154-.05a.352.352,0,0,1-.237,0c-.086-.083.115-.243.306-.243.1,0,.164-.031.14-.069-.077-.121.083-.148.332-.057.2.073.253.07.308-.016a2.82,2.82,0,0,1,.662-.383c.327-.152.554-.276.505-.277a1.13,1.13,0,0,1-.228-.048c-.1-.032-.114-.025-.038.028s.048.089-.13.149c-.244.082-.38.01-.218-.117a2.119,2.119,0,0,1,.436-.183c.454-.148.759-.285.759-.342,0-.025-.094-.1-.209-.163a.52.52,0,0,0-.436-.053c-.251.069-.452.03-.384-.076s-.321-.161-.769-.119a3.3,3.3,0,0,1-.74-.028,1.67,1.67,0,0,0-.259-.028H22.9Zm7.218,0c-.2,0-.348.039-.313.094.087.137-.173.158-.42.034a.433.433,0,0,0-.415-.048c-.117.052-.2.051-.251,0a.2.2,0,0,0-.318.124c0,.148.123.145.183,0,.04-.1.072-.094.23.053.124.116.16.2.111.257a1.511,1.511,0,0,1-.828.023c-.286-.045-.526.008-.486.108.059.149-.087.209-.2.08s-.235-.144-.209-.021c.014.064-.109.084-.436.069-.433-.021-.938.121-.823.232.076.073-.139.281-.249.241a.124.124,0,0,0-.142.03.12.12,0,0,1-.138.032c-.124-.046-.7.226-.6.284a.578.578,0,0,0,.313-.021c.313-.087.366.012.154.289a.466.466,0,0,1-.38.222.366.366,0,0,0-.256.076.091.091,0,0,1-.121.03c-.095-.057-.6.105-.6.193,0,.068.092.084.638.1.164,0,.312.048.33.1.035.1-.028.128-.474.206-.273.048-.284.058-.114.1.1.026.173.076.152.11-.057.094.243.176.417.115a4.172,4.172,0,0,1,.754-.067,3.835,3.835,0,0,0,.662-.05c.032-.019.106.057.166.17a1.467,1.467,0,0,0,.27.344.455.455,0,0,1,.159.227.41.41,0,0,0,.145.213.336.336,0,0,1,.109.342c-.04.248.087.3.152.057.035-.129.063-.142.152-.071.259.208.193.464-.14.544-.1.025-.078.038.083.044a.594.594,0,0,1,.361.144c.118.126.118.144-.024.268s-.146.136-.021.225.115.1-.076.172c-.115.042-.209.114-.209.161s.031.06.111,0c.176-.142.3-.013.147.151-.072.077-.1.141-.062.142s.007.048-.069.1-.107.118-.055.149a.1.1,0,0,1,.028.135c-.034.055-.011.052.066-.009.138-.108.234-.021.14.126-.039.062.015.209.149.4.295.422.5.59.742.594.113,0,.208.044.213.094s.014.111.019.133c.02.087.466-.226.474-.333a2.16,2.16,0,0,0,0-.271.241.241,0,0,1,.066-.206.232.232,0,0,0,.081-.183c0-.158.667-.754.773-.69a.48.48,0,0,0,.289-.046.473.473,0,0,0,.334-.44.09.09,0,0,1,.1-.092.384.384,0,0,0,.244-.126c.119-.115.247-.142.629-.135a1.745,1.745,0,0,0,.7-.105,2.577,2.577,0,0,1,.491-.17l.266-.057-.266-.057a1.216,1.216,0,0,0-.427-.016c-.192.045-.319-.1-.145-.167a.158.158,0,0,0,.1-.165c-.014-.083.046-.126.195-.142.165-.018.222.012.254.128.05.186.251.2.251.021s-.412-.406-.607-.346-.335-.022-.225-.149c.065-.076.046-.116-.076-.179-.217-.112-.113-.241.149-.186.173.037.211.022.2-.085-.016-.186.247-.171.508.03a.779.779,0,0,0,.339.165c.1,0,.087-.025-.045-.115-.216-.146-.152-.252.154-.252.225,0,.23-.006.09-.108-.081-.059-.113-.113-.071-.119s-.024-.032-.147-.057c-.291-.06-.293-.179,0-.239l.228-.046L33.506,7.4a.469.469,0,0,1-.287-.078c-.074-.116.234-.227.5-.177.183.035.233.026.19-.041-.032-.049-.075-.072-.1-.05-.074.072-.337-.114-.3-.211a.175.175,0,0,0-.045-.174c-.059-.057-.024-.1.121-.154.111-.041.2-.124.2-.183a.27.27,0,0,1,.133-.188c.112-.069.1-.077-.064-.044-.237.048-.327-.016-.211-.151a.7.7,0,0,1,.417-.1c.222,0,.326-.029.313-.089s.059-.1.154-.117a1.48,1.48,0,0,0,.368-.122l.192-.1-.3-.05a.912.912,0,0,0-.441.021.817.817,0,0,1-.614.062.444.444,0,0,0-.323.05c-.222.107-.362.054-.263-.1.033-.051-.134-.07-.508-.053a2.633,2.633,0,0,0-1.03.234,1.321,1.321,0,0,1-.6.158c-.187-.069-.071-.15.591-.406a2.9,2.9,0,0,1,.961-.225,1.884,1.884,0,0,0,.631-.112l.256-.112-.429.044c-.449.046-.628-.04-.389-.186.152-.092-.571-.056-1.378.069a1.664,1.664,0,0,1-.519.028c-.113-.068.07-.187.377-.248.264-.052.25-.057-.166-.06-.251,0-.524-.01-.607-.018a1.927,1.927,0,0,0-.218-.011Zm-2.1.112c-.08,0-.151.067-.109.133a.155.155,0,0,0,.111.069c.106,0,.163-.133.078-.183A.145.145,0,0,0,28.015,4.623Zm-.351.085a.1.1,0,0,0-.033.011.08.08,0,0,0-.026.112.086.086,0,0,0,.116.025.08.08,0,0,0,.026-.112A.082.082,0,0,0,27.664,4.708Zm6.424.429c-.08,0-.151.067-.109.133a.155.155,0,0,0,.111.069c.106,0,.163-.133.078-.183A.145.145,0,0,0,34.087,5.137Zm14.228.078c-.041,0-.054.054-.036.151.007.035-.037.045-.1.023-.153-.057-.218.026-.114.147.082.1.233.108.2.018a.028.028,0,0,0,.019-.025s0-.01-.012-.016a.412.412,0,0,1,.074-.119c.066-.077.072-.131.019-.163a.1.1,0,0,0-.05-.016Zm.726.069c-.08,0-.151.067-.109.133a.155.155,0,0,0,.111.069c.106,0,.163-.133.078-.183A.145.145,0,0,0,49.041,5.284ZM26.295,5.35c.1,0,.209.068.166.135a.2.2,0,0,1-.3,0,.086.086,0,0,1,.038-.117A.188.188,0,0,1,26.295,5.35Zm20.574.018a.1.1,0,0,0-.033.011.08.08,0,0,0-.026.112.086.086,0,0,0,.116.025.08.08,0,0,0,.026-.112.082.082,0,0,0-.083-.037Zm7.335.062c-.08,0-.151.067-.109.133a.155.155,0,0,0,.111.069c.106,0,.163-.133.078-.183A.145.145,0,0,0,54.2,5.431Zm-6.459.009a.447.447,0,0,0-.195.067.1.1,0,0,1-.138-.021.091.091,0,0,0-.121-.032.08.08,0,0,0-.026.112.082.082,0,0,0,.109.03.082.082,0,0,1,.109.03.148.148,0,0,0,.138.053c.157-.023.291-.125.249-.19a.133.133,0,0,0-.126-.048Zm.795,0a.1.1,0,0,0-.033.011.08.08,0,0,0-.026.112.086.086,0,0,0,.116.025.08.08,0,0,0,.026-.112A.082.082,0,0,0,48.538,5.442Zm-25.731.053a2.156,2.156,0,0,0-.384.183c-.354.186-.229.2.24.03.106-.039.192-.105.192-.147s0-.064-.028-.067a.064.064,0,0,0-.019,0Zm1.912,0a.208.208,0,0,0-.135.053c-.056.054-.027.064.1.032.1-.026.135-.06.078-.078A.13.13,0,0,0,24.72,5.495Zm30.292.046a.69.69,0,0,0-.256.112c-.24.137-.252.16-.135.243a.827.827,0,0,0,.738-.071c.029-.043-.033-.134-.14-.2A.356.356,0,0,0,55.012,5.541Zm-5.669.041a.2.2,0,0,0-.09.028.406.406,0,0,1-.152.06.057.057,0,0,0-.057.055V5.83c0,.028.039.015.085-.03a.2.2,0,0,1,.183-.046c.12.044.22-.095.114-.158a.147.147,0,0,0-.083-.014Zm-3.11.016a.577.577,0,0,0-.41.172c-.042.065.211.257.349.264a.207.207,0,0,1,.107.055c.075.073.2-.01.142-.1a.081.081,0,0,0-.107-.032c-.034.021-.082-.01-.1-.067a.117.117,0,0,1,.081-.147c.082-.03.1-.07.047-.119a.154.154,0,0,0-.1-.03Zm.484,0a.25.25,0,0,0-.142.064c-.128.09-.132.114-.033.229.061.071.1.15.093.174s.012.044.05.044a.212.212,0,0,1,.126.053c.075.073.2-.01.142-.1a.082.082,0,0,0-.109-.03.079.079,0,0,1-.107-.028c-.023-.036.032-.084.126-.108.231-.058.247-.059.247.018,0,.129.113.174.221.087.074-.06.123-.062.157-.009s.1.051.2,0,.133-.1.076-.158-.113-.052-.19.009-.118.06-.157-.037c-.027-.067-.071-.1-.1-.076s-.09.012-.142-.03-.111-.05-.147.007-.092.045-.183-.034a.237.237,0,0,0-.133-.076Zm2.092,0c-.111,0-.373.193-.33.261a.142.142,0,0,0,.1.064c.094,0,.318-.264.266-.314a.052.052,0,0,0-.038-.011Zm-.878.062a.088.088,0,0,0-.033.011.089.089,0,0,0-.014.128.535.535,0,0,1,.069.142c.006.03.014.077.019.1s.076-.01.159-.083c.141-.124.143-.307,0-.222a.087.087,0,0,1-.114-.037.093.093,0,0,0-.088-.044Zm-6.315.229c-.079,0-.088.022-.088.069a.323.323,0,0,1-.128.195c-.073.057-.1.063-.074.014.067-.108-.056-.185-.349-.218-.2-.022-.213-.009-.128.089s.073.136-.036.239-.139.113-.221.007c-.143-.185-.3-.2-.436-.041a.22.22,0,0,1-.268.092c-.142-.053-.142-.055,0-.158.162-.115.107-.129-.251-.06-.13.025-.237.077-.237.115s.034.048.076.023c.157-.094.24.049.109.188-.071.076-.167.116-.213.089s-.038.008.019.076c.113.134.272.1.187-.046-.029-.048.023-.024.114.053.15.127.175.13.3.025.174-.15.411-.189.453-.073.018.05-.054.123-.161.163-.223.082-.264.165-.064.133s.157.186-.057.243c-.1.028-.134.056-.066.06a.366.366,0,0,1,.218.117c.137.16.2.138.306-.112a2.041,2.041,0,0,1,.24-.4c.135-.166.161-.17.32-.069.095.06.2.083.232.053s.021.021-.028.112c-.085.157-.077.166.147.149a.575.575,0,0,0,.266-.062c.028-.043-.338-.24-.6-.321-.076-.024-.118-.072-.095-.108s-.035-.084-.128-.108c-.131-.033-.147-.062-.076-.131s.183-.068.508,0c.4.086.432.08.69-.089l.273-.179-.251-.048a4.1,4.1,0,0,0-.505-.078Zm1.758.046a.188.188,0,0,0-.1.023.086.086,0,0,0-.038.117.2.2,0,0,0,.3,0C43.584,6.005,43.478,5.938,43.374,5.937Zm.837.018a.1.1,0,0,0-.033.011.08.08,0,0,0-.026.112.086.086,0,0,0,.116.025.08.08,0,0,0,.026-.112A.082.082,0,0,0,44.212,5.956Zm4.175,0a.1.1,0,0,0-.033.011.08.08,0,0,0-.026.112.086.086,0,0,0,.116.025.08.08,0,0,0,.026-.112A.082.082,0,0,0,48.387,5.956Zm6.151.014a.548.548,0,0,0-.13.016c-.108.027-.117.048-.038.1.133.082.272.081.325,0,.041-.065-.038-.11-.157-.11ZM55.107,6a1.043,1.043,0,0,0-.4.131l-.256.133.429.094a3.248,3.248,0,0,1,.617.19c.237.123.267.1.289-.183.027-.337-.058-.416-.223-.211l-.14.174-.047-.165A.234.234,0,0,0,55.107,6Zm-36.346.034a.061.061,0,0,0-.017.007c-.042.025-.036.086.017.147s.12.083.159.06.036-.084-.017-.144A.166.166,0,0,0,18.761,6.036Zm15.431.14a.1.1,0,0,0-.033.011.08.08,0,0,0-.026.112.086.086,0,0,0,.116.025.08.08,0,0,0,.026-.112A.082.082,0,0,0,34.192,6.176Zm-16.4.089c-.1,0-.121.044.009.115.069.037.1.1.078.14s.024.055.13.03c.127-.031.253.017.444.172.319.259.442.228.23-.06a1.112,1.112,0,0,0-.505-.323,1.41,1.41,0,0,0-.337-.073C17.823,6.264,17.805,6.265,17.791,6.265Zm38.6.067c-.116,0-.217.068-.33.211a1.4,1.4,0,0,0-.19.28c0,.022.128,0,.285-.057a1.942,1.942,0,0,1,.444-.1c.235,0,.278-.086.107-.2a.6.6,0,0,0-.315-.128Zm-13.73.053c-.08,0-.151.067-.109.133a.155.155,0,0,0,.111.069c.106,0,.163-.133.078-.183A.145.145,0,0,0,42.665,6.385Zm-.427.085a.1.1,0,0,0-.033.011.08.08,0,0,0-.026.112.086.086,0,0,0,.116.025.08.08,0,0,0,.026-.112A.082.082,0,0,0,42.238,6.47Zm12.449.147a.1.1,0,0,0-.033.011.08.08,0,0,0-.026.112.086.086,0,0,0,.116.025.08.08,0,0,0,.026-.112A.082.082,0,0,0,54.687,6.616Zm2.429,0a.1.1,0,0,0-.033.011.08.08,0,0,0-.026.112.086.086,0,0,0,.116.025.08.08,0,0,0,.026-.112A.082.082,0,0,0,57.116,6.616Zm-40.284.025a1.5,1.5,0,0,1-.282.018c-.128,0-.214.028-.192.062s.152.051.289.039.181,0,.1.016c-.264.065-.49.2-.448.261.057.09.1.079.387-.094.143-.085.246-.193.23-.239s-.053-.074-.081-.064Zm2.315.016c-.023,0,0,.03.055.1.118.141.207.157.275.05.026-.04.015-.073-.026-.073a.841.841,0,0,1-.213-.05.331.331,0,0,0-.09-.025Zm14.892.105a.1.1,0,0,0-.033.011.08.08,0,0,0-.026.112.086.086,0,0,0,.116.025.08.08,0,0,0,.026-.112A.082.082,0,0,0,34.04,6.763Zm20.419,0a.1.1,0,0,0-.033.011.08.08,0,0,0-.026.112.086.086,0,0,0,.116.025.08.08,0,0,0,.026-.112A.082.082,0,0,0,54.459,6.763Zm-38.479.044c-.018,0-.033.033-.033.073a.078.078,0,0,0,.081.073c.044,0,.059-.033.033-.073S16,6.807,15.981,6.807Zm1.739.1a.1.1,0,0,0-.033.011.08.08,0,0,0-.026.112.086.086,0,0,0,.116.025.08.08,0,0,0,.026-.112.082.082,0,0,0-.083-.037Zm36.36,0a.1.1,0,0,0-.033.011.08.08,0,0,0-.026.112.086.086,0,0,0,.116.025.08.08,0,0,0,.026-.112.082.082,0,0,0-.083-.037Zm2.543.007a.377.377,0,0,0-.275.158c-.125.135-.151.212-.095.277.109.127.014.194-.2.142a.847.847,0,0,0-.458.085c-.2.093-.312.106-.4.05s-.245-.045-.534.028a3.466,3.466,0,0,1-.65.1A1.283,1.283,0,0,0,53.287,8c-.016.029.034.1.114.154.14.1.107.317-.036.232a2.63,2.63,0,0,0-.565-.064c-.475-.021-.493-.014-.493.151,0,.1.047.172.107.172a.562.562,0,0,1,.441.475c.018.177-.008.22-.13.22s-.148-.045-.138-.193c.011-.164-.036-.212-.325-.319-.245-.09-.366-.1-.436-.046a.121.121,0,0,1-.187-.007c-.06-.058-.09-.06-.09-.007s.09.135.2.2c.283.179.124.309-.187.154a.587.587,0,0,1-.306-.353c-.039-.131-.075-.185-.078-.119a.35.35,0,0,1-.123.213.185.185,0,0,0-.066.211,1.708,1.708,0,0,1,.1.466c0,.03.1.055.211.055.233,0,.555.258.555.445a.2.2,0,0,0,.126.174c.089.033.1.069.047.124-.112.108-.4-.049-.4-.218a.317.317,0,0,0-.282-.305c-.055,0-.152.127-.216.282a1.217,1.217,0,0,1-.346.447c-.221.158-.239.159-.491.044-.144-.066-.243-.152-.218-.19a.292.292,0,0,1,.377,0c.237.371.5-.912.27-1.312a.347.347,0,0,1,.019-.284c.095-.2-.015-.308-.313-.31-.126,0-.2.059-.251.213a.764.764,0,0,1-.261.333c-.162.1-.173.134-.09.277a1,1,0,0,0,.228.259.319.319,0,0,1,.133.206c0,.179-.225.2-.4.046a1.2,1.2,0,0,0-.562-.2c-.369-.047-.409-.035-.576.154-.125.141-.22.186-.313.151-.116-.043-.12-.067-.031-.172s.057-.094-.121.018a2.687,2.687,0,0,1-.484.227c-.232.077-.263.071-.3-.053s-.055-.129-.254-.03a1.053,1.053,0,0,1-.38.108.906.906,0,0,0-.425.22c-.29.246-.419.271-.557.11-.077-.09-.064-.119.071-.167.154-.055.148-.067-.1-.183-.294-.136-.312-.115-.187.232.1.281-.019.49-.221.381-.133-.072-.579.178-.51.287.021.033-.01.1-.069.144-.083.067-.161.061-.342-.03-.252-.126-.315-.078-.1.076.1.071.112.118.047.181-.133.131-.547-.108-.61-.351a.706.706,0,0,0-.209-.323c-.141-.111-.145-.13-.033-.172a.577.577,0,0,1,.358.069c.4.2,1.072.094,1.072-.174a2.514,2.514,0,0,0-1.094-.592.318.318,0,0,1-.2-.112c-.072-.084-.183-.1-.455-.064-.4.051-.589-.07-.289-.186.174-.067.173-.069-.028-.073a.371.371,0,0,1-.251-.078.168.168,0,0,0-.123-.073c-.042,0-.05.041-.019.092.045.073.034.074-.057,0s-.14-.067-.2-.011-.1.051-.138-.014-.028-.073.04-.032.081.031.045-.025-.1-.062-.192-.014a.21.21,0,0,1-.2.018c-.033-.029-.036-.014-.007.034.08.135-.18.24-.4.161-.171-.063-.178-.058-.083.062.057.072.074.106.038.076a.148.148,0,0,0-.168.028c-.056.045-.1.058-.1.028s-.05-.016-.109.032a.331.331,0,0,1-.209.073c-.233-.031-.31,0-.228.1.1.122-.011.309-.192.31a.13.13,0,0,0-.135.147c0,.081-.022.13-.05.11s-.134.037-.235.128-.209.141-.244.11-.043,0-.017.076.012.143-.043.158c-.371.107-.394.123-.285.188a.353.353,0,0,1,.119.257c.012.218-.181.356-.351.252-.148-.091-.227-.086-.2.011.01.044-.046.118-.126.165-.378.221-.447.356-.323.635a.855.855,0,0,1,.031.33c-.016.188.011.224.18.243a.618.618,0,0,0,.432-.17l.235-.19.107.206a3.966,3.966,0,0,1,.2.5c.136.416.146.425.346.3a.782.782,0,0,1,.344-.115c.129,0,.154-.032.121-.154-.057-.211.069-.507.216-.507.066,0,.1-.031.076-.069a.086.086,0,0,1,.04-.117c.054-.032.028-.106-.076-.213-.133-.136-.148-.211-.1-.447.057-.264.187-.392.6-.592a.232.232,0,0,0,.095-.2c0-.341.472-.555.683-.31.106.124.082.165-.382.633-.234.236-.265.308-.24.569.039.4.135.461.508.328a1.169,1.169,0,0,1,.923-.016c.217.174.023.233-.9.277-.143.007-.186.26-.057.337a.261.261,0,0,1-.012.374c-.048.029-.132-.008-.187-.08-.146-.193-.355-.014-.294.252.035.156,0,.227-.192.362s-.255.149-.344.078-.187-.049-.5.105c-.368.184-.388.187-.425.053s-.067-.132-.261-.067-.252.053-.375-.055a.248.248,0,0,1-.1-.248c.112-.271.1-.381-.026-.355s-.15.158-.085.608c.029.2.014.22-.216.227a.718.718,0,0,0-.387.128c-.076.067-.159.1-.187.073s-.052.015-.052.094a.316.316,0,0,1-.315.321.289.289,0,0,0-.216.147c-.091.165-.5.394-.6.335-.036-.021-.085.028-.107.11-.032.119-.079.139-.235.1-.254-.062-.264.093-.012.186a.908.908,0,0,1,.41.734c.009.243-.194.449-.4.4a4.049,4.049,0,0,0-1-.06c-.054.02-.072.162-.05.385a1.112,1.112,0,0,1-.047.5.376.376,0,0,0,.27.534.3.3,0,0,1,.24.126c.06.1.1.11.249.041a1.982,1.982,0,0,1,.368-.122c.283-.058.476-.222.5-.42.011-.1.023-.2.026-.229a.909.909,0,0,1,.311-.2c.225-.111.3-.2.3-.323,0-.233.182-.363.436-.314a.5.5,0,0,0,.356-.064.349.349,0,0,1,.553.083,2.119,2.119,0,0,0,.764.667c.2.028.406.315.351.484-.034.1-.02.13.045.092s.075-.137.05-.257c-.05-.24.01-.324.152-.211.068.055.1.056.1,0s-.157-.153-.349-.245a1.125,1.125,0,0,1-.493-.427c-.08-.142-.189-.315-.24-.385-.076-.1-.069-.151.036-.252.12-.116.133-.117.178,0,.027.067.076.107.109.087s.114.045.18.142a2.2,2.2,0,0,0,.458.413.857.857,0,0,1,.394.461c.06.263.4.709.548.709.055,0,.078-.035.052-.076a.1.1,0,0,0-.13-.025c-.05.03-.061.015-.026-.039s.083-.067.164,0c.122.1.073.216-.088.216a.11.11,0,0,0-.109.11c0,.139.037.137.268-.009s.235-.224.024-.39c-.15-.117-.141-.354.009-.264.034.021.083-.011.107-.071.031-.077.126-.1.334-.08.229.021.314,0,.387-.117.062-.1.07-.175.021-.232-.108-.126.24-.791.52-.991.186-.133.257-.148.384-.083s.137.106.078.174-.035.118.1.188c.233.12.416.029.221-.11-.09-.064-.111-.12-.062-.165a1.249,1.249,0,0,1,.648-.2c.081.048.05.215-.064.349-.077.09-.03.156.285.388.438.323.508.447.349.617-.145.155-.586.145-.968-.021a.694.694,0,0,0-.742-.014.916.916,0,0,1-.351.108.24.24,0,0,0-.209.117.15.15,0,0,1-.14.1c-.224-.028-.268.014-.244.243a1.611,1.611,0,0,0,.038.257.254.254,0,0,1,.024.085.284.284,0,0,0,.187.2,1.088,1.088,0,0,1,.187.064.214.214,0,0,0,.216-.016c.052-.05.16-.05.334,0a.6.6,0,0,0,.453-.009c.274-.121.294-.007.116.649s-.359.849-.657.7a.442.442,0,0,0-.4-.021c-.167.061-.316.037-.773-.124-.838-.295-.831-.3-1.06.179-.095.2-.288.161-.771-.142a2.189,2.189,0,0,0-.61-.3.53.53,0,0,1-.292-.149c-.121-.117-.136-.178-.074-.291.1-.174.026-.489-.121-.544a1.735,1.735,0,0,0-.531.037,1.735,1.735,0,0,1-.531.037,2.562,2.562,0,0,0-.745.179c-.674.23-.917.265-.994.144s-.153-.081-.242.147a.812.812,0,0,1-.32.349.47.47,0,0,0-.24.562.785.785,0,0,1-.38.6,1.551,1.551,0,0,0-.446.5,1.528,1.528,0,0,1-.323.427c-.132.043-.166.258-.147.949a2.324,2.324,0,0,1-.095.894c-.1.238-.1.265.036.383a.422.422,0,0,1,.145.2,1.521,1.521,0,0,0,.27.39.936.936,0,0,1,.247.429c-.036.176.238.512.6.732a.645.645,0,0,0,.683.119,1.593,1.593,0,0,1,.548-.044,1.487,1.487,0,0,0,.614-.105,2.6,2.6,0,0,1,.588-.149.644.644,0,0,1,.484.358c.02.057.1.062.27.016.356-.1.475.063.427.58-.067.724-.044.888.157,1.092a1.1,1.1,0,0,1,.323.608.4.4,0,0,0,.116.183.545.545,0,0,1,.128.319,1.848,1.848,0,0,0,.052.385.667.667,0,0,1-.069.45,3.608,3.608,0,0,0-.209.615.774.774,0,0,0,.066.688,2.7,2.7,0,0,1,.292.982,3.734,3.734,0,0,0,.493,1.433c.325.606.353.716.187.777-.181.067.254.415.448.358a6.391,6.391,0,0,1,.667-.105,1.288,1.288,0,0,0,1.039-.5,2.087,2.087,0,0,0,.576-1.105.489.489,0,0,1,.275-.484c.231-.152.252-.2.232-.484a1.421,1.421,0,0,0-.095-.449c-.058-.1-.021-.181.164-.36a2.265,2.265,0,0,1,.453-.335.867.867,0,0,0,.417-.493c.007-.03.02-.08.028-.11a2.285,2.285,0,0,0-.116-1,.716.716,0,0,1-.109-.358.845.845,0,0,0-.066-.333c-.133-.244.478-1.24.977-1.592a2.762,2.762,0,0,0,.482-.461,5.278,5.278,0,0,0,.764-1.523.339.339,0,0,1,.166-.268c.175-.074.005-.049-.728.11-.466.1-.5.1-.7-.037-.115-.079-.193-.172-.171-.206a.082.082,0,0,0-.04-.11,1.663,1.663,0,0,1-.268-.339,3.126,3.126,0,0,0-.339-.433.476.476,0,0,1-.149-.252.267.267,0,0,0-.152-.186c-.119-.062-.152-.154-.152-.427a1.077,1.077,0,0,0-.1-.493,1.187,1.187,0,0,1-.149-.328,2.7,2.7,0,0,0-.315-.576,1.843,1.843,0,0,1-.268-.491c0-.176.151-.2.216-.028s.066.155.119.023.064-.128.2.044a1.8,1.8,0,0,1,.372.816.127.127,0,0,0,.111.138c.144,0,.268.229.268.493,0,.22.126.44.444.773a.726.726,0,0,1,.206.477c.026.608.154.775.472.612.072-.037.387-.188.7-.335s.678-.327.811-.4c.278-.151.818-.593.728-.6-.033,0,.017-.063.109-.138s.147-.156.121-.181.012-.11.085-.188c.128-.137.123-.148-.176-.33A.824.824,0,0,1,47.784,21l-.05-.186-.114.158c-.128.177-.593.39-.7.323a.179.179,0,0,1-.074-.14.3.3,0,0,0-.114-.188.321.321,0,0,1-.114-.211,1.375,1.375,0,0,0-.232-.447c-.205-.293-.217-.339-.109-.415a.364.364,0,0,1,.527.183.877.877,0,0,0,.852.488c.223-.04.273-.026.306.1.051.187.3.252,1.041.268.547.012.615.028.759.2a.82.82,0,0,0,.368.241c.256.061.336.167.173.227-.093.035-.1.068-.033.147.127.148.272.124.32-.053.075-.278.206-.066.2.323a2.615,2.615,0,0,0,.026.491c.018.061.075.269.128.461a1.071,1.071,0,0,0,.164.388.222.222,0,0,1,.066.172,2.5,2.5,0,0,0,.263.622l.263.488.119-.177a1.877,1.877,0,0,0,.266-1.053c0-.322.027-.4.171-.47a5.762,5.762,0,0,0,1.141-1.11c.033-.086.132-.128.294-.128a.664.664,0,0,0,.377-.117c.126-.11.145-.1.287.128a3.563,3.563,0,0,0,.315.424.556.556,0,0,1,.135.5c-.021.26,0,.316.1.316a.483.483,0,0,0,.275-.151c.174-.181.2-.147.275.335a1.365,1.365,0,0,0,.126.449,1.368,1.368,0,0,1,.036.564c-.03.4-.011.512.111.663a.639.639,0,0,1,.147.291c0,.337.5,1.056.645.92a1.64,1.64,0,0,0-.066-.42.956.956,0,0,0-.289-.55.865.865,0,0,1-.254-.339.578.578,0,0,0-.166-.259c-.1-.067-.1-.126,0-.443.1-.335.128-.361.33-.342.331.032.408.072.408.216a.315.315,0,0,0,.152.225.344.344,0,0,1,.152.28c0,.186.007.184.382-.128l.382-.319-.026-.415a1.163,1.163,0,0,0-.249-.72c-.123-.167-.268-.367-.325-.445-.093-.127-.077-.171.171-.411s.285-.26.417-.144.145.11.185.009a.21.21,0,0,1,.185-.112.351.351,0,0,0,.213-.073,1.025,1.025,0,0,1,.4-.117,1,1,0,0,0,.657-.385,1.486,1.486,0,0,0,.339-.438.948.948,0,0,1,.192-.337c.224-.284.236-.378.057-.445-.124-.046-.123-.056.014-.154s.127-.105.024-.105c-.189,0-.244-.151-.071-.195.145-.037.141-.054-.076-.365s-.222-.333-.1-.514a1.02,1.02,0,0,1,.368-.294l.24-.108-.334.034c-.351.037-.69-.1-.69-.287,0-.157.706-.621.814-.534.072.058.066.113-.028.252-.067.1-.1.2-.081.22s.081-.028.128-.112c.092-.167.308-.2.541-.078.115.06.13.107.071.213s-.039.16.1.25.175.168.161.4c-.017.289-.013.291.183.211.327-.134.333-.164.133-.642l-.192-.461.178-.19c.1-.1.3-.321.446-.479.217-.236.288-.271.377-.2.158.127.311.044.638-.342a2.977,2.977,0,0,0,.873-2.018c0-.255-.192-.474-.334-.369-.121.089-.4.087-.4,0,0-.036-.079-.094-.176-.128-.16-.057-.166-.076-.066-.213a7.092,7.092,0,0,1,.735-.663c.6-.487.922-.622,1.094-.456a1.091,1.091,0,0,0,.7-.064c.06-.047.15-.041.266.021.226.119.766.141.669.028s.592-.664.887-.683c.245-.016.4.085.254.17a.205.205,0,0,0-.078.163c0,.1.031.092.176-.039a.616.616,0,0,1,.266-.161.1.1,0,0,0,.09-.1c0-.133.2-.292.3-.234s-.161.511-.323.541a2.027,2.027,0,0,0-.517.422,1.907,1.907,0,0,1-.477.4c-.048,0-.144.1-.216.213a1.735,1.735,0,0,0-.026,1.218l.09.294.183-.239c.1-.131.23-.239.287-.239s.081-.034.055-.076c-.078-.122.186-.456.32-.406.083.031.1.01.071-.073-.057-.143.086-.419.185-.36.04.024.071.011.071-.03a.16.16,0,0,0-.076-.119.087.087,0,0,1-.033-.119.152.152,0,0,0-.033-.163c-.107-.124.181-.592.33-.537a.2.2,0,0,0,.2-.067.242.242,0,0,1,.176-.094,1.077,1.077,0,0,0,.3-.046.306.306,0,0,1,.334.057c.108.1.141.1.358-.062.4-.3,1.053-.543,1.21-.459a.18.18,0,0,0,.206,0c.09-.087-.136-.534-.27-.534s-.3-.195-.2-.25a.423.423,0,0,1,.268.028c.261.1.425.023.425-.186,0-.226.151-.309.2-.112.048.176.059.18.247.083.1-.054.171-.036.273.073a.442.442,0,0,0,.228.144.311.311,0,0,1,.187.11c.107.125.264.152.187.032-.057-.089.172-.362.3-.362a.312.312,0,0,0,.176-.087c.068-.066.016-.118-.221-.22-.39-.169-.419-.167-.47.021s-.2.12-.2-.08c0-.328-.994-.787-1.846-.853a3.565,3.565,0,0,1-.761-.117c-.125-.063-.135-.047-.09.149.065.288-.044.341-.353.174a1.474,1.474,0,0,0-.783-.124c-.63.014-.873-.055-.873-.248s-.166-.238-.844-.188c-.494.036-.6.026-.64-.067a.119.119,0,0,0-.145-.076c-.1.037-.226-.091-.228-.229s-.269-.121-.522.03c-.281.168-.42.126-.235-.071.111-.119.091-.128-.323-.128a4.3,4.3,0,0,1-.548-.025c-.074-.017-.11.044-.114.195,0,.175-.041.22-.171.22a.4.4,0,0,0-.213.048c-.028.026-.137,0-.244-.05a.294.294,0,0,0-.337-.011.233.233,0,0,1-.287,0c-.121-.073-.15-.062-.183.057-.073.269-.263.242-.65-.089s-.418-.429-.157-.429c.124,0,.134-.021.062-.133S61,8.3,60.705,8.306a.818.818,0,0,0-.467.1c-.1.129-.917.091-.89-.041s-.674-.128-.795-.011c-.061.059-.11.035-.183-.092a.943.943,0,0,1-.1-.22c-.006-.105-.089-.122-.344-.064-.217.049-.231.063-.076.071.186.01.567.225.4.225a.177.177,0,0,1-.133-.073.351.351,0,0,0-.247-.073c-.191,0-.193.005-.052.105s.145.1,0,.151a2.353,2.353,0,0,0-.266.1c-.163.079-.569.057-.569-.03,0-.04.113-.128.251-.195a2.141,2.141,0,0,0,.387-.239.521.521,0,0,1,.28-.119c.223,0,.526-.185.417-.25-.068-.041-.065-.082.009-.17s.079-.108-.017-.076a.284.284,0,0,1-.237-.064c-.1-.082-.195-.088-.474-.028a.861.861,0,0,1-.484.009,2.136,2.136,0,0,0-.285-.117c-.144-.045-.144-.051-.017-.142s.118-.1-.076-.14a.5.5,0,0,0-.109-.011Zm-36.095.067a.1.1,0,0,0-.033.011.08.08,0,0,0-.026.112.086.086,0,0,0,.116.025.08.08,0,0,0,.026-.112.082.082,0,0,0-.083-.037Zm34.69,0a.1.1,0,0,0-.033.011.08.08,0,0,0-.026.112.086.086,0,0,0,.116.025A.08.08,0,0,0,55.3,7.02.082.082,0,0,0,55.218,6.983Zm-39.565.041a.185.185,0,0,0-.1.062.455.455,0,0,1-.273.087.96.96,0,0,0-.458.234c-.221.187-.243.225-.107.19.093-.024.192-.009.218.032s.116-.029.2-.156c.114-.175.175-.211.249-.151s.129.036.218-.087.1-.212.055-.211Zm6.6.011a.1.1,0,0,0-.062.021c-.025.024.02.04.1.037s.106-.02.045-.044a.21.21,0,0,0-.083-.014Zm31.6.021a.1.1,0,0,0-.033.011.08.08,0,0,0-.026.112.086.086,0,0,0,.116.025.08.08,0,0,0,.026-.112A.082.082,0,0,0,53.852,7.057Zm3.416,0a.1.1,0,0,0-.033.011.08.08,0,0,0-.026.112.086.086,0,0,0,.116.025.08.08,0,0,0,.026-.112A.082.082,0,0,0,57.268,7.057ZM16.125,7.13a.1.1,0,0,0-.033.011.08.08,0,0,0-.026.112.086.086,0,0,0,.116.025.08.08,0,0,0,.026-.112A.082.082,0,0,0,16.125,7.13Zm7.819,0a.1.1,0,0,0-.033.011.08.08,0,0,0-.026.112A.086.086,0,0,0,24,7.279a.08.08,0,0,0,.026-.112A.082.082,0,0,0,23.944,7.13ZM42.086,7.2a.1.1,0,0,0-.033.011.08.08,0,0,0-.026.112.086.086,0,0,0,.116.025.08.08,0,0,0,.026-.112A.082.082,0,0,0,42.086,7.2Zm22.924,0a.1.1,0,0,0-.033.011.08.08,0,0,0-.026.112.086.086,0,0,0,.116.025.08.08,0,0,0,.026-.112A.082.082,0,0,0,65.011,7.2Zm-45.588.053c-.051,0-.062.022-.045.071s.179.119.37.14c.283.031.342.065.375.22.037.177.108.211.505.243a.447.447,0,0,1,.228.076,1.633,1.633,0,0,0,.6.021c.292-.023.645-.042.783-.044.155,0,.232-.031.2-.078a.206.206,0,0,1,.052-.2c.088-.108.087-.115-.012-.041a.583.583,0,0,1-.3.083c-.1,0-.48.015-.835.034-.662.036-.987-.054-.987-.275,0-.053-.125-.111-.285-.133s-.383-.063-.5-.092a.65.65,0,0,0-.14-.023Zm35.947.021a.1.1,0,0,0-.033.011.08.08,0,0,0-.026.112.086.086,0,0,0,.116.025.08.08,0,0,0,.026-.112A.082.082,0,0,0,55.37,7.277ZM50.035,7.3a1.2,1.2,0,0,0-.422.105,1.278,1.278,0,0,1-.6.122,1.273,1.273,0,0,0-.567.1,1.859,1.859,0,0,1-.567.138c-.184,0-.216.018-.145.087s.039.136-.142.3q-.233.206-.133.236c.263.08.309.113.123.089-.242-.031-.288,0-.472.275-.116.175-.118.206-.021.17.127-.047.318.121.254.222-.022.034.12.065.315.069s.3-.009.242-.03a.484.484,0,0,1-.3-.383,2.538,2.538,0,0,1,.863-.922,1.033,1.033,0,0,1,.351-.11A5.975,5.975,0,0,0,50,7.405c.134-.073.12-.109.031-.11Zm-32.942.032c-.041,0-.069.07-.059.195.012.16-.022.206-.161.225a.593.593,0,0,1-.342-.08,1.557,1.557,0,0,0-.474-.158c-.291-.047-.306-.041-.306.138s.143.258.23.122c.054-.084.417,0,.425.1,0,.04-.072.1-.168.122-.151.041-.142.049.066.055a1.372,1.372,0,0,0,.455-.078,2.856,2.856,0,0,1,.512-.128c.164-.024.311-.084.327-.133s-.029-.076-.13-.057-.179-.021-.23-.151-.1-.176-.145-.172Zm1.478.014a.37.37,0,0,0-.135.03c-.126.055-.122.075.057.261.252.262.491.269.491.016,0-.174-.211-.314-.413-.307Zm-.548.009a.1.1,0,0,0-.033.011.08.08,0,0,0-.026.112.086.086,0,0,0,.116.025.08.08,0,0,0,.026-.112.082.082,0,0,0-.083-.037Zm47.595,0a.1.1,0,0,0-.033.011.08.08,0,0,0-.026.112.086.086,0,0,0,.116.025.08.08,0,0,0,.026-.112A.082.082,0,0,0,65.618,7.35Zm-47.085.08a.166.166,0,0,1,.142.069c.052.061.059.119.017.144s-.11,0-.159-.06-.059-.122-.017-.147A.061.061,0,0,1,18.533,7.43Zm44.535.06a.09.09,0,0,0-.024.007.257.257,0,0,0-.059.362.317.317,0,0,0,.365-.023c.029-.045.114-.045.237,0,.26.1.293.089.185-.037a.176.176,0,0,1-.043-.183c.027-.042.016-.076-.026-.076a.174.174,0,0,0-.126.078c-.033.051-.112.036-.237-.044a.5.5,0,0,0-.273-.085Zm-.486.011c-.07,0-.119.1-.059.193.037.057.073.057.133,0a.1.1,0,0,0,0-.161.1.1,0,0,0-.074-.032Zm1.44.039c-.164,0-.179.017-.1.11.108.126.1.125.259.067S64.251,7.54,64.021,7.54ZM15.29,7.57a.1.1,0,0,0-.033.011.08.08,0,0,0-.026.112.086.086,0,0,0,.116.025.08.08,0,0,0,.026-.112.082.082,0,0,0-.083-.037Zm3.947,0a.1.1,0,0,0-.033.011.08.08,0,0,0-.026.112.086.086,0,0,0,.116.025.08.08,0,0,0,.026-.112.082.082,0,0,0-.083-.037Zm-1.084.007a.061.061,0,0,0-.017.007c-.042.025-.036.086.017.147s.12.083.159.06.036-.084-.017-.144a.166.166,0,0,0-.142-.069Zm15.81.067a.1.1,0,0,0-.033.011.08.08,0,0,0-.026.112.086.086,0,0,0,.116.025.08.08,0,0,0,.026-.112A.082.082,0,0,0,33.964,7.644Zm30.66.05c-.038,0-.019.019.057.067a.645.645,0,0,0,.3.064l.19,0-.19-.06a1.617,1.617,0,0,0-.3-.064c-.025,0-.044,0-.057,0Zm-46.753.023a.1.1,0,0,0-.033.011.08.08,0,0,0-.026.112.086.086,0,0,0,.116.025.08.08,0,0,0,.026-.112A.082.082,0,0,0,17.871,7.717Zm34.69,0a.1.1,0,0,0-.033.011.08.08,0,0,0-.026.112.086.086,0,0,0,.116.025.08.08,0,0,0,.026-.112A.082.082,0,0,0,52.562,7.717Zm-32.94,0a.265.265,0,0,0-.043,0,.159.159,0,0,0-.095.039c-.058.056-.05.1.031.149.131.08.244.059.282-.053.025-.073-.075-.133-.176-.138Zm14.57.071a.1.1,0,0,0-.033.011.08.08,0,0,0-.026.112.086.086,0,0,0,.116.025.08.08,0,0,0,.026-.112A.082.082,0,0,0,34.192,7.79Zm6.756.073a.1.1,0,0,0-.033.011.08.08,0,0,0-.026.112A.086.086,0,0,0,41,8.013a.08.08,0,0,0,.026-.112A.082.082,0,0,0,40.948,7.864Zm21.558.147a.1.1,0,0,0-.033.011.08.08,0,0,0-.026.112.086.086,0,0,0,.116.025.08.08,0,0,0,.026-.112A.082.082,0,0,0,62.506,8.011Zm1.056.048c-.034,0-.06.063-.066.179-.01.162.017.183.249.183.155,0,.244-.03.216-.073a.207.207,0,0,0-.159-.073.182.182,0,0,1-.154-.11c-.029-.073-.059-.107-.085-.105Zm-48.738.007c-.178,0-.4.093-.389.2.028.278-.014.387-.176.45-.13.05-.138.068-.038.071a.323.323,0,0,1,.221.142c.1.149.307.133.451-.034a.3.3,0,0,1,.192-.1c.058,0,.1-.032.1-.071s.1-.122.225-.183c.282-.141.409-.143.154,0-.1.058-.156.1-.114.105a.346.346,0,0,0,.311-.248c.023-.15-.225-.277-.486-.25a.61.61,0,0,1-.3-.039.308.308,0,0,0-.154-.034Zm35.613.092a.1.1,0,0,0-.033.011.08.08,0,0,0-.026.112.086.086,0,0,0,.116.025.08.08,0,0,0,.026-.112A.082.082,0,0,0,50.436,8.157Zm-30.259,0a.991.991,0,0,0-.46.108A.507.507,0,0,0,19.7,8.6c.043.222.072.253.161.181.06-.048.089-.118.066-.154s.019-.086.095-.112c.2-.068.405-.256.361-.326-.018-.028-.1-.036-.206-.032Zm-1.008.018A.5.5,0,0,0,19,8.245a.962.962,0,0,1-.308.1c-.081,0-.083.023-.014.1.126.147-.026.219-.24.112s-.1.011.282.282c.167.118.316.186.33.151s.087-.062.164-.062c.2,0,.224-.15.055-.314-.1-.1-.122-.165-.069-.216a.171.171,0,0,0,.04-.17c-.015-.038-.033-.056-.069-.055Zm32.254.05a.1.1,0,0,0-.033.011.08.08,0,0,0-.026.112.086.086,0,0,0,.116.025.08.08,0,0,0,.026-.112A.082.082,0,0,0,51.423,8.231Zm-33.73.044c-.042,0-.067.04-.057.089s-.058.1-.152.115a.173.173,0,0,0-.171.2c0,.208-.134.313-.2.154a.6.6,0,0,0-.261-.218c-.188-.091-.22-.09-.259.007s-.063.094-.164.014-.133-.077-.195.03c-.095.164-.236.081-.176-.1.025-.077.022-.14-.007-.14a4.223,4.223,0,0,0-.624.333.56.56,0,0,0,.059.218c.075.191.1.2.439.163.367-.04.663.048.584.172a1.364,1.364,0,0,1-.553.076c-.476.007-.491.013-.23.08a1,1,0,0,1,.4.2c.148.158.582.131,1.065-.067a.746.746,0,0,1,.636-.03,1.867,1.867,0,0,1,.455.186c.1.074.1.062-.012-.06-.14-.16-.1-.245.173-.342.063-.022.009-.043-.119-.046a.783.783,0,0,1-.363-.1c-.171-.121-.364-.655-.27-.748s.088-.188-.007-.188Zm4.806.007c-.1,0-.176.028-.176.092,0,.15.094.207.263.163a1.625,1.625,0,0,1,.306-.044c.135,0,.131-.014-.038-.108A.813.813,0,0,0,22.5,8.281Zm-1.354.067c-.228,0-.567.27-.567.452,0,.209.238.575.377.58l.875.028a3.057,3.057,0,0,1,1.063.154,2.059,2.059,0,0,0,.439.144c.231.021.321.16.2.31-.1.119-.094.121.021.034s.139-.075.209.05a.649.649,0,0,1,.081.25c0,.071.058.1.18.073.222-.041.315.077.159.2-.093.075-.139.069-.249-.028s-.151-.107-.306,0c-.135.091-.151.136-.081.218.049.057.058.1.021.108s-.219.011-.406.018c-.257.01-.348.045-.368.142s.024.129.152.128a.647.647,0,0,0,.278-.064c.11-.067.7.166.7.277,0,.035.091.087.2.115.156.038.181.064.1.112s-.036.062.126.057a1.372,1.372,0,0,1,.529.142c.383.192.379.193.216.018-.137-.146-.138-.153.012-.19.243-.061.167-.312-.2-.667-.323-.309-.331-.327-.19-.429.2-.144.219-.137.5.117.191.172.268.2.349.138.057-.046.084-.115.059-.154s.027-.087.116-.11c.152-.038.154-.051.038-.174-.068-.073-.165-.117-.216-.1s-.156-.033-.232-.115a.55.55,0,0,0-.353-.149c-.255,0-.442-.248-.261-.346.061-.033.089-.092.059-.133a1.2,1.2,0,0,0-.579-.264.42.42,0,0,1-.19-.03c-.107-.04-.1-.057.026-.149s.127-.105.024-.105a.222.222,0,0,0-.171.073c-.029.046-.1.048-.176.007a.742.742,0,0,0-.2-.073.088.088,0,0,1-.076-.087c0-.143-.255-.263-.489-.229-.126.018-.213.062-.19.1.068.107-.187.162-.306.067a.187.187,0,0,0-.183-.044c-.1.061-.2-.109-.173-.307.017-.13-.015-.165-.154-.163a.559.559,0,0,0-.289.092.575.575,0,0,0-.064.615c.048.056.041.1-.019.14-.139.083-.3-.182-.285-.477l.009-.261.047.294c.041.252.054.27.1.122.072-.244-.079-.525-.282-.525Zm11.55.1c-.029,0-.047,0-.047.016s.077.062.171.1c.223.087.226.087.178.011a.583.583,0,0,0-.3-.126Zm-.4.44a.082.082,0,0,1,.083.037.08.08,0,0,1-.026.112.086.086,0,0,1-.116-.025.08.08,0,0,1,.026-.112A.1.1,0,0,1,32.294,8.891Zm39.245.073a.1.1,0,0,0-.033.011.08.08,0,0,0-.026.112.086.086,0,0,0,.116.025A.08.08,0,0,0,71.622,9,.082.082,0,0,0,71.539,8.965ZM19.748,8.99a.158.158,0,0,0-.078.018c-.277.144-.284.514-.009.514.206,0,.23.062.109.3-.144.279-.216.317-.4.206a.292.292,0,0,0-.325-.009,1.566,1.566,0,0,1-1.086.062c-.146-.059-.266-.141-.266-.183,0-.085-.369-.106-.569-.032-.1.037-.107.061-.026.11a.457.457,0,0,0,.216.057c.075,0,.062-.025-.038-.067-.124-.051-.128-.065-.024-.069.2-.008.251.146.069.193-.118.03-.155.091-.14.227.028.25-.152.3-.244.062q-.129-.327-.764-.245c-.342.044-.559-.1-.332-.227.118-.064.115-.077-.038-.156-.126-.065-.2-.067-.273,0s-.165.053-.356-.044a1.408,1.408,0,0,0-.949-.165c-.06.048-.164.033-.318-.044-.214-.107-.249-.105-.482.03-.613.356-.839.452-.909.385-.045-.043.051-.14.256-.259.18-.1.286-.193.235-.195a1.02,1.02,0,0,0-.337.142c-.2.115-.268.126-.363.055s-.1-.072-.033.021c.1.136.191.554.128.615-.083.081-.251-.115-.251-.294,0-.1-.026-.176-.057-.179a2.94,2.94,0,0,1-.617-.172,2.066,2.066,0,0,0-.508-.117.309.309,0,0,1-.218-.067,1.179,1.179,0,0,0-.5-.071,1.979,1.979,0,0,1-.61-.083.3.3,0,0,0-.294,0c-.107.055-.166.046-.235-.034a.465.465,0,0,0-.308-.108.377.377,0,0,1-.263-.078c-.034-.053-.08-.051-.149,0s-.116.057-.149,0-.114-.035-.235.041c-.1.065-.184.09-.185.055s-.033-.017-.071.041a.44.44,0,0,1-.275.133.645.645,0,0,0-.356.209c-.082.1-.168.167-.19.147s-.136.011-.256.071l-.218.11.247.2a1.35,1.35,0,0,0,.619.335c.136.012.127.182-.014.255a.35.35,0,0,1-.349-.03.378.378,0,0,0-.337-.037,2.292,2.292,0,0,1-.28.115c-.147.048-.145.051.019.112.1.038.153.1.128.165-.063.159.652.223.769.069s.239-.07.223.14c-.012.16-.393.445-.51.381-.03-.016-.124.037-.211.122a.291.291,0,0,0-.109.316c.078.248.279.43.429.392a.191.191,0,0,1,.2.078A.836.836,0,0,0,8,12.74c.158-.086.22.033.133.255a1.4,1.4,0,0,1-.8.594c-.163.066-.279.136-.259.156a1.8,1.8,0,0,0,.669-.264c.063-.037.236-.131.384-.209.31-.163.765-.59.714-.67-.019-.03.016-.095.078-.144a.3.3,0,0,0,.114-.183.288.288,0,0,1,.361-.222c.127.048.126.054,0,.144s-.191.335-.1.335c.168,0,.43-.167.4-.252-.074-.185.267-.318.389-.151a1.373,1.373,0,0,0,.823.289,2.758,2.758,0,0,1,.754.222c.249.122.395.157.455.108s.127-.017.213.11a.861.861,0,0,1,.123.229c0,.075.334.321.439.323.161,0,.338.491.23.633-.038.05.015.113.138.167.2.086.2.09.059.25-.077.089-.093.124-.036.076.145-.122.43.018.313.154-.095.111-.031.19.152.19a1.714,1.714,0,0,1,.83.791c0,.174-.118.277-.19.165-.106-.165-.151-.053-.159.383,0,.252-.021.657-.036.9-.027.46.159,1,.332.97.046-.009.089.055.095.142a1.212,1.212,0,0,0,.541.764c.1.037.163.1.135.147s.006.069.09.055c.11-.018.169.064.278.381a1.9,1.9,0,0,0,.285.555c.106.109.124.173.064.232s-.019.135.152.282a.679.679,0,0,1,.24.355c0,.165.423.534.51.449.029-.028-.006-.082-.078-.122s-.133-.106-.133-.149a1.574,1.574,0,0,0-.228-.4,1.973,1.973,0,0,1-.228-.378,1.945,1.945,0,0,0-.168-.36c-.131-.239-.15-.329-.081-.4.1-.1.325.03.325.193a2.27,2.27,0,0,0,.342.544,3.025,3.025,0,0,1,.342.507,1.438,1.438,0,0,0,.254.349c.336.382.43.564.382.743s.193.38,1.018.775c.525.251.66.29.776.22s.19-.052.415.1a3.473,3.473,0,0,0,.963.472c.188,0,.519.389.519.61,0,.182.017.2.111.126s.127-.059.195.085a.333.333,0,0,0,.28.19.632.632,0,0,1,.282.085c.058.047.117.023.178-.071.2-.315.548.156.536.734a.848.848,0,0,1-.256.626,1.973,1.973,0,0,0-.344.651c-.084.322-.081.364.043.431s.127.08-.024.193l-.159.119.251.55c.139.3.335.8.434,1.1.153.462.226.575.47.734a6.066,6.066,0,0,1,.562.427l.273.241-.095,1.264c-.051.7-.1,1.448-.114,1.67a1.954,1.954,0,0,1-.228.8.931.931,0,0,0-.164.617,1,1,0,0,1-.045.463.413.413,0,0,0,0,.411,1.716,1.716,0,0,1-.047,1.1c-.065.063-.1.053-.138-.044s-.065-.11-.116-.032c-.082.125-.085.229,0,.181s.489.377.434.463a.127.127,0,0,1-.147.034c-.08-.03-.1.04-.078.312a.856.856,0,0,1-.062.452c-.066.077-.061.1.024.078.162-.033.542.235.5.351-.071.179.08.1.168-.085.048-.1.121-.183.164-.183s.078-.077.078-.172a.473.473,0,0,1,.152-.305c.084-.073.136-.15.116-.17s.07-.151.2-.294c.229-.252.231-.261.076-.316-.306-.11-.277-.651.036-.651.066,0,.1-.083.1-.227,0-.166.042-.238.154-.266.13-.033.136-.051.043-.122a.413.413,0,0,1-.135-.229c-.02-.118.018-.147.195-.147.211,0,.294-.076.38-.346.028-.087.16-.14.429-.174.62-.08.768-.345.417-.748-.228-.262-.18-.338.111-.177.2.111.236.11.479,0,.264-.122.453-.374.854-1.147.162-.313.188-.426.126-.557a.313.313,0,0,1-.026-.245,2.675,2.675,0,0,1,.669-.456c.025,0,.084-.049.13-.108a.682.682,0,0,1,.384-.135c.288-.027.306-.046.508-.5a2.163,2.163,0,0,0,.213-1.071c0-.423.033-.619.1-.66a2.492,2.492,0,0,0,.38-.454c.366-.519.386-.905.055-1.071a1.052,1.052,0,0,1-.323-.248c-.073-.1-.222-.146-.565-.17a.867.867,0,0,1-.709-.268c-.293-.283-.426-.292-.626-.046a.368.368,0,0,1-.353.165c-.241-.027-.238-.153,0-.209a.266.266,0,0,0,.2-.165c.037-.185-.1-.154-.389.092-.142.12-.278.2-.3.174-.08-.077.405-.693.5-.638.05.028.022-.025-.062-.117s-.144-.187-.135-.213c.089-.27-.4-.672-.826-.672a.686.686,0,0,1-.546-.275c-.153-.151-.361-.353-.465-.45s-.166-.209-.14-.25-.085-.058-.339-.025-.4.021-.434-.028a.151.151,0,0,0-.138-.064c-.151.023-.507-.147-.512-.245,0-.051-.036-.02-.074.071s-.1.165-.14.165-.054.061-.033.138c.054.2-.106.262-.206.08-.067-.121-.057-.193.038-.333.156-.23.041-.23-.183,0-.1.1-.22.159-.278.138-.1-.036-.132.022-.3.484-.029.079-.082.062-.228-.071-.171-.156-.217-.165-.491-.094-.289.075-.313.069-.5-.147s-.193-.263-.149-.679c.047-.448.046-.455-.161-.511A2.4,2.4,0,0,0,21.109,23c-.249-.005-.263-.022-.24-.227a.754.754,0,0,1,.083-.294,1.235,1.235,0,0,0,.109-.385c.044-.276.034-.312-.1-.312-.334,0-.528.134-.553.381-.022.222-.048.245-.361.3-.422.069-.625-.045-.837-.47a1.524,1.524,0,0,1-.1-1.041.538.538,0,0,0,.033-.3c-.019-.213.014-.265.266-.415.341-.2.426-.221.7-.14a4.555,4.555,0,0,0,.46.1c.229.038.245.032.154-.073s-.079-.135.047-.225a.4.4,0,0,1,.339-.053,1.506,1.506,0,0,0,.391.044c.231-.01.431.223.47.55.029.251.206.534.334.534s.121-.1-.057-.7a4.663,4.663,0,0,1-.152-.612,1.8,1.8,0,0,1,.406-.493,1.594,1.594,0,0,0,.37-.433c-.021-.02.017-.057.085-.083s.107-.072.085-.105a.082.082,0,0,1,.04-.108c.052-.031.05-.094,0-.193-.094-.17-.066-.541.04-.541.04,0,.094.083.123.183.043.15.055.156.062.034.012-.226.374-.695.536-.695.284,0,.383-.076.289-.22-.067-.1-.058-.174.043-.323a.414.414,0,0,1,.244-.19,1.847,1.847,0,0,0,.472-.174c.245-.119.406-.155.51-.115.088.034.107.061.045.064a.512.512,0,0,0-.387.36c0,.089.034.081.171-.037a1.662,1.662,0,0,1,.413-.241.572.572,0,0,0,.285-.2c.024-.059.077-.087.119-.062s.076.015.076-.021c0-.149-.1-.137-.273.034-.152.147-.21.165-.3.094a.145.145,0,0,1-.057-.172c.039-.062.022-.062-.059,0s-.152.041-.313-.119c-.214-.213-.208-.294.026-.294a.13.13,0,0,0,.14-.119c0-.186-.509-.075-.771.167-.152.141-.24.178-.3.124-.111-.107.539-.653.849-.713a4.045,4.045,0,0,1,.612-.046,1.518,1.518,0,0,0,.541-.087,1.793,1.793,0,0,1,.394-.131c.2-.039.228-.077.228-.287,0-.323-.1-.382-.436-.268-.193.064-.3.072-.334.021-.062-.1.181-.274.387-.282.11,0,.123-.017.043-.046a1.956,1.956,0,0,1-.311-.177c-.109-.074-.216-.117-.237-.1s-.094-.047-.164-.149-.1-.186-.074-.186-.024-.077-.116-.172a.887.887,0,0,1-.206-.381c-.062-.331-.1-.346-.332-.11-.128.133-.262.206-.33.181a.143.143,0,0,0-.166.041c-.036.057-.1.031-.213-.083-.179-.186-.225-.337-.121-.4s.082-.252-.033-.252a.773.773,0,0,1-.323-.2.757.757,0,0,0-.584-.213c-.34-.01-.372.006-.465.22a.422.422,0,0,0-.028.362.2.2,0,0,1-.021.239c-.05.058-.064.105-.033.105s.019.044-.028.1c-.065.076-.05.146.066.289a.54.54,0,0,1,.019.716,1.166,1.166,0,0,0-.142.617c-.008.321-.044.458-.142.527-.115.081-.175.059-.434-.177s-.3-.3-.266-.576l.033-.305-.337-.037a1.75,1.75,0,0,1-.745-.307,1.078,1.078,0,0,0-.482-.227c-.092.055-.193-.093-.2-.289,0-.11-.046-.141-.173-.124s-.19-.028-.244-.165c-.106-.269-.018-.445.472-.943.115-.117.191-.24.168-.275-.055-.087.233-.226.365-.177a.4.4,0,0,0,.289-.105c.2-.157.21-.145-.228-.275-.2-.06.039-.185.306-.161.236.022.258.044.28.3.017.2-.009.288-.1.321s-.079.068.09.154c.2.1.22.1.356-.078s.154-.177.318-.073c.1.061.211.091.251.067.12-.072-.253-.4-.51-.454a.63.63,0,0,1-.353-.22c-.124-.182-.109-.2.164-.179.18.014.631-.185.631-.277a.542.542,0,0,0-.107-.2c-.077-.1-.084-.168-.026-.236.108-.126-.135-.3-.42-.307-.18,0-.2.018-.138.131s.025.19-.126.376c-.185.229-.2.235-.3.11a.573.573,0,0,1-.1-.294.357.357,0,0,0-.109-.248c-.088-.07-.132-.05-.235.1-.137.2-.263.189-.263-.028a.205.205,0,0,0-.164-.177c-.128-.032-.145-.062-.078-.14.118-.137-.16-.435-.361-.44Zm1.7.018c-.018,0-.033.033-.033.073a.078.078,0,0,0,.081.073c.044,0,.059-.033.033-.073S21.464,9.008,21.446,9.008Zm49.464.03a.8.8,0,0,0-.422.131c-.06.055.33.049.631-.009.013,0,0-.04-.026-.083S71,9.034,70.91,9.038Zm-57.441.073a.1.1,0,0,0-.033.011.08.08,0,0,0-.026.112.086.086,0,0,0,.116.025.08.08,0,0,0,.026-.112.082.082,0,0,0-.083-.037Zm22.469,0a.1.1,0,0,0-.033.011.08.08,0,0,0-.026.112.086.086,0,0,0,.116.025.08.08,0,0,0,.026-.112A.082.082,0,0,0,35.937,9.111Zm-.228.147a.1.1,0,0,0-.033.011.08.08,0,0,0-.026.112.086.086,0,0,0,.116.025.08.08,0,0,0,.026-.112A.082.082,0,0,0,35.71,9.258Zm12.615.025a.1.1,0,0,0-.076.023c-.055.054-.034.11.069.183.172.123.246.131.306.037s-.164-.239-.3-.243ZM40.8,9.332a.1.1,0,0,0-.033.011.08.08,0,0,0-.026.112.086.086,0,0,0,.116.025.08.08,0,0,0,.026-.112A.082.082,0,0,0,40.8,9.332Zm-21.712.156c-.035,0-.07.037-.128.1-.118.126-.118.142-.007.183.067.025.1.077.078.115s.045.044.2,0a.655.655,0,0,0,.3-.161c.049-.075.063-.076.064,0a.168.168,0,0,1-.114.135c-.062.023-.094.072-.071.108.077.121.173.068.292-.163l.119-.229-.24.046a.4.4,0,0,1-.365-.064c-.057-.05-.093-.075-.128-.071Zm27.479.055c-.114,0-.277.174-.218.266.036.057.1.058.2,0,.165-.085.189-.184.064-.259a.087.087,0,0,0-.045-.011Zm-19.2.053c-.065,0-.1.033-.071.073a.164.164,0,0,0,.119.073.072.072,0,0,0,.071-.073C27.486,9.628,27.432,9.6,27.367,9.6Zm-4.865.03a.1.1,0,0,0-.033.011.08.08,0,0,0-.026.112.086.086,0,0,0,.116.025.08.08,0,0,0,.026-.112A.082.082,0,0,0,22.5,9.625Zm-9.7.119a.466.466,0,0,0-.19.071c-.063.039-.08.071-.038.071a.466.466,0,0,0,.19-.071C12.822,9.776,12.839,9.744,12.8,9.744Zm27.315.028a.1.1,0,0,0-.033.011.08.08,0,0,0-.026.112.086.086,0,0,0,.116.025.08.08,0,0,0,.026-.112A.082.082,0,0,0,40.113,9.772Zm-17.535.147a.1.1,0,0,0-.033.011.08.08,0,0,0-.026.112.086.086,0,0,0,.116.025.08.08,0,0,0,.026-.112A.082.082,0,0,0,22.578,9.919Zm17.231,0a.1.1,0,0,0-.033.011.08.08,0,0,0-.026.112.086.086,0,0,0,.116.025.08.08,0,0,0,.026-.112A.082.082,0,0,0,39.809,9.919Zm-16.674.126a.166.166,0,0,0-.026,0c-.19.036-.218.206-.033.206.093,0,.159-.047.159-.115A.091.091,0,0,0,23.135,10.045Zm.935.431c-.088,0-.14.033-.114.073a.125.125,0,0,0,.228,0C24.209,10.509,24.158,10.476,24.07,10.476Zm10.359.094a1.8,1.8,0,0,0-.244.025,3.443,3.443,0,0,1-.5.044c-.074,0-.116.019-.095.053.059.092-.305.3-.546.307l-.211.009.228.046c.125.026.211.076.19.112-.044.075.192.178.427.186a2.139,2.139,0,0,0,.569-.156c.456-.18.57-.285.406-.374a.224.224,0,0,1-.111-.172c0-.057-.025-.08-.116-.08Zm-1.229.055a.507.507,0,0,0-.249.071c-.089.056-.07.073.09.073a.357.357,0,0,0,.251-.073C33.323,10.649,33.274,10.625,33.2,10.625Zm5.926.541a.1.1,0,0,0-.033.011.08.08,0,0,0-.026.112.086.086,0,0,0,.116.025.08.08,0,0,0,.026-.112A.082.082,0,0,0,39.126,11.166ZM24.5,11.375a.809.809,0,0,1,.439.2c.027.043.022.077-.012.076-.106-.005-.494-.227-.458-.261a.045.045,0,0,1,.031-.011Zm-18.79.011a.333.333,0,0,0-.057,0,.125.125,0,0,0-.047.014c-.037.022-.025.088.026.147.1.117.5.11.465-.009C6.079,11.472,5.857,11.394,5.712,11.386Zm17.321,0A.1.1,0,0,0,23,11.4a.08.08,0,0,0-.026.112.086.086,0,0,0,.116.025.08.08,0,0,0,.026-.112A.082.082,0,0,0,23.033,11.386Zm-.3.073a.1.1,0,0,0-.033.011.08.08,0,0,0-.026.112.086.086,0,0,0,.116.025.08.08,0,0,0,.026-.112A.082.082,0,0,0,22.729,11.46Zm-.282.211a.111.111,0,0,0-.059.037.2.2,0,0,0-.033.206c.037.093.072.107.133.048a.208.208,0,0,0,.033-.209c-.023-.058-.045-.085-.074-.083Zm-.584.007c-.106.011-.232.121-.18.2.023.037.11.029.2-.016.11-.057.133-.1.076-.158a.114.114,0,0,0-.093-.028Zm14.155.076a.112.112,0,0,0-.076.158.121.121,0,0,1-.036.144.082.082,0,0,0-.028.115.087.087,0,0,0,.119.023c.042-.025.059-.062.036-.085s-.007-.085.038-.138A.16.16,0,0,0,36.1,11.8a.1.1,0,0,0-.062-.046A.071.071,0,0,0,36.018,11.753Zm7.041.261a.266.266,0,0,1,.043,0,.317.317,0,0,1,.247.144c.106.192.1.248-.026.2a.179.179,0,0,0-.171.025c-.038.036-.1-.012-.152-.112s-.068-.193-.045-.216a.171.171,0,0,1,.1-.044Zm-5.983.183c-.07,0-.119.1-.059.193.037.057.073.057.133,0a.1.1,0,0,0,0-.161A.1.1,0,0,0,37.076,12.2Zm-12.449.069a.1.1,0,0,0-.033.011.08.08,0,0,0-.026.112.086.086,0,0,0,.116.025.08.08,0,0,0,.026-.112A.082.082,0,0,0,24.627,12.267Zm16.4,0a.1.1,0,0,0-.033.011.08.08,0,0,0-.026.112.086.086,0,0,0,.116.025.08.08,0,0,0,.026-.112A.082.082,0,0,0,41.024,12.267ZM6.409,12.34a.1.1,0,0,0-.033.011.08.08,0,0,0-.026.112.086.086,0,0,0,.116.025.08.08,0,0,0,.026-.112A.082.082,0,0,0,6.409,12.34Zm30.368.294a.767.767,0,0,0-.235.17c-.24.218-.359.507-.24.578.043.026.045.078,0,.128-.077.1.113.305.28.305.059,0,.115.09.128.206.017.155-.02.222-.145.271-.091.036-.136.066-.1.069s.024.054-.028.115c-.079.092-.069.11.062.11.26,0,.273.149.021.241-.32.117-.3.2.031.117a1.443,1.443,0,0,1,.361-.06c.353.045.544-.041.622-.28.039-.121.022-.165-.062-.165-.132,0-.195-.081-.24-.305a1.348,1.348,0,0,0-.472-.6c-.073-.045-.063-.1.038-.252.129-.19.128-.193-.038-.151-.24.061-.284-.058-.1-.284.122-.15.156-.224.111-.216Zm-29.533.147a.1.1,0,0,0-.033.011.08.08,0,0,0-.026.112.086.086,0,0,0,.116.025.08.08,0,0,0,.026-.112A.082.082,0,0,0,7.244,12.781Zm28.769,0a.1.1,0,0,0-.033.011.08.08,0,0,0-.026.112.086.086,0,0,0,.116.025.08.08,0,0,0,.026-.112A.082.082,0,0,0,36.014,12.781Zm5.465,0a.1.1,0,0,0-.033.011.08.08,0,0,0-.026.112.086.086,0,0,0,.116.025.08.08,0,0,0,.026-.112A.082.082,0,0,0,41.479,12.781Zm-32.366.094c-.114.008-.453.227-.453.31a.176.176,0,0,0,.052.105c.069.066.486-.322.434-.4l.007-.009-.012.007a.035.035,0,0,0-.028-.009ZM12.026,13a.1.1,0,0,0-.033.011.08.08,0,0,0-.026.112.086.086,0,0,0,.116.025.08.08,0,0,0,.026-.112A.082.082,0,0,0,12.026,13Zm23.987.073a.1.1,0,0,0-.033.011.08.08,0,0,0-.026.112.086.086,0,0,0,.116.025.08.08,0,0,0,.026-.112A.082.082,0,0,0,36.014,13.074Zm4.706,0c-.07,0-.119.1-.059.193.037.057.073.057.133,0a.1.1,0,0,0,0-.161A.1.1,0,0,0,40.72,13.079ZM5.8,13.295a.1.1,0,0,0-.033.011.08.08,0,0,0-.026.112.086.086,0,0,0,.116.025.08.08,0,0,0,.026-.112A.082.082,0,0,0,5.8,13.295Zm2.809.073a.1.1,0,0,0-.033.011.08.08,0,0,0-.026.112.086.086,0,0,0,.116.025.08.08,0,0,0,.026-.112A.082.082,0,0,0,8.611,13.368Zm13.815.073a.1.1,0,0,0-.033.011.08.08,0,0,0-.026.112.086.086,0,0,0,.116.025.08.08,0,0,0,.026-.112A.082.082,0,0,0,22.426,13.441Zm-9.847.1a.048.048,0,0,0-.017,0c-.072.019-.1.163-.05.259a.064.064,0,0,0,.093.016C12.684,13.768,12.656,13.546,12.579,13.538Zm-4.12.05a.1.1,0,0,0-.033.011.08.08,0,0,0-.026.112.086.086,0,0,0,.116.025.08.08,0,0,0,.026-.112A.082.082,0,0,0,8.459,13.588Zm59.588,0a.1.1,0,0,0-.033.011.08.08,0,0,0-.026.112.086.086,0,0,0,.116.025.08.08,0,0,0,.026-.112A.082.082,0,0,0,68.047,13.588Zm-28.618.078c-.07,0-.119.1-.059.193.037.057.073.057.133,0a.1.1,0,0,0,0-.161.1.1,0,0,0-.074-.032Zm.607.069a.1.1,0,0,0-.033.011.08.08,0,0,0-.026.112.086.086,0,0,0,.116.025.08.08,0,0,0,.026-.112A.082.082,0,0,0,40.037,13.735Zm-4.17.016a.143.143,0,0,0-.1.057c-.045.052-.058.116-.028.144s-.023.071-.116.094c-.128.032-.149.066-.088.138s.058.109,0,.142-.12.333-.057.333c.013,0,.162-.065.332-.144.259-.121.316-.186.342-.4s0-.268-.138-.328a.325.325,0,0,0-.149-.037Zm-29,.057a.1.1,0,0,0-.033.011.08.08,0,0,0-.026.112.086.086,0,0,0,.116.025.08.08,0,0,0,.026-.112A.082.082,0,0,0,6.865,13.808Zm56.986.044c-.049,0-.07.029-.047.064a.492.492,0,0,1-.081.3.421.421,0,0,0-.021.461,2.364,2.364,0,0,1,.081.791c-.014.466,0,.562.1.562A.106.106,0,0,0,64,15.936a.18.18,0,0,0-.076-.14.541.541,0,0,1-.026-.5c.027-.027.1-.013.152.032.11.088.142-.01.04-.124a2.152,2.152,0,0,1-.2-1.089c.035-.181.023-.264-.038-.264Zm4.576.03a.1.1,0,0,0-.033.011.08.08,0,0,0-.026.112.086.086,0,0,0,.116.025.08.08,0,0,0,.026-.112A.082.082,0,0,0,68.426,13.882Zm-62.046.062c-.08,0-.151.067-.109.133a.155.155,0,0,0,.111.069c.106,0,.163-.133.078-.183A.145.145,0,0,0,6.381,13.944Zm6.177.016c-.07,0-.119.1-.059.193.037.057.073.057.133,0a.1.1,0,0,0,0-.161A.1.1,0,0,0,12.558,13.96Zm-6.528.216A.1.1,0,0,0,6,14.187a.08.08,0,0,0-.026.112.086.086,0,0,0,.116.025.08.08,0,0,0,.026-.112A.082.082,0,0,0,6.03,14.175Zm63.308.073a.1.1,0,0,0-.033.011.08.08,0,0,0-.026.112.086.086,0,0,0,.116.025.08.08,0,0,0,.026-.112A.082.082,0,0,0,69.337,14.249Zm-47.274,0a.084.084,0,0,0-.062.03c-.057.055-.052.111.017.19.135.157.249.067.147-.117-.037-.066-.069-.1-.1-.1Zm-9.41.126a.007.007,0,0,0-.007,0,.51.51,0,0,0,.057.271c.051.13.1.206.116.17a.628.628,0,0,0-.059-.271c-.039-.1-.084-.168-.107-.172Zm53.5.463c-.07,0-.119.1-.059.193.037.057.073.057.133,0a.1.1,0,0,0,0-.161.1.1,0,0,0-.074-.032ZM13.592,15c-.031,0-.044.016-.031.037a.252.252,0,0,0,.187.067.294.294,0,0,1,.225.147c.045.081.117.147.159.147.132,0-.264-.346-.444-.388A.394.394,0,0,0,13.628,15a.2.2,0,0,0-.036,0ZM26.881,15a.924.924,0,0,0-.375.229c-.281.248-.3.29-.209.413s.246.133.624-.007c.094-.035.118-.024.078.039a.271.271,0,0,0-.007.216c.047.116.055.114.149-.009.065-.085.119-.1.152-.053a.093.093,0,0,0,.123.034.08.08,0,0,0,.026-.112.091.091,0,0,0-.123-.021c-.049.029-.06-.009-.031-.1.067-.2-.193-.418-.425-.349-.172.052-.173.05-.038-.1s.126-.2.055-.186Zm-6.075.1a.073.073,0,1,1-.076.073A.075.075,0,0,1,20.806,15.1Zm4.706.1a.2.2,0,0,0-.062.014c-.115.043-.114.057.019.151.17.121.318.136.382.037S25.673,15.187,25.512,15.2ZM66,15.2a.1.1,0,0,0-.033.011.08.08,0,0,0-.026.112.086.086,0,0,0,.116.025.08.08,0,0,0,.026-.112A.082.082,0,0,0,66,15.2Zm-.228.22a.1.1,0,0,0-.033.011.08.08,0,0,0-.026.112.086.086,0,0,0,.116.025.08.08,0,0,0,.026-.112A.082.082,0,0,0,65.77,15.423ZM20.984,15.5a.462.462,0,0,1,.149.046.775.775,0,0,1,.313.326c.1.2.175.25.472.3.2.035.369.1.387.156s-.01.085-.064.073-.116.074-.142.2c-.045.22-.047.22-.142.053-.053-.092-.123-.15-.159-.128s-.049-.024-.028-.1a.184.184,0,0,0-.114-.22c-.127-.066-.171-.044-.287.124a1.43,1.43,0,0,0-.18.53c-.026.209-.063.3-.1.236a.546.546,0,0,1-.04-.294.554.554,0,0,0-.026-.273c-.066-.1.1-.308.282-.342.432-.08-.238-.359-.745-.31-.282.027-.3.022-.13-.048a1.48,1.48,0,0,0,.351-.225c.085-.078.138-.11.206-.105ZM23,15.7a.145.145,0,0,1,.081.018c.085.051.028.183-.078.183a.155.155,0,0,1-.111-.069c-.042-.066.029-.13.109-.133Zm42.537.011a.1.1,0,0,0-.033.011.08.08,0,0,0-.026.112.086.086,0,0,0,.116.025.08.08,0,0,0,.026-.112A.082.082,0,0,0,65.542,15.716Zm-38.789.073a.1.1,0,0,0-.033.011.08.08,0,0,0-.026.112.086.086,0,0,0,.116.025.08.08,0,0,0,.026-.112A.082.082,0,0,0,26.753,15.79ZM47,15.941c.123,0,.149.038.149.17s-.034.166-.109.138a.2.2,0,0,0-.2.067c-.05.058-.067.105-.036.105s.018.044-.028.1c-.065.076-.042.143.1.289.1.1.164.208.142.229s-.017.1.012.17c.049.122.06.121.147.007s.1-.112.185.018.07.142-.057.142c-.205,0-.264.122-.1.213.074.042.113.077.088.078s-.02.133.009.291c.048.254.034.291-.107.328a.563.563,0,0,1-.619-.108c-.135-.144-.135-.169-.019-.482.1-.274.1-.337.019-.369a1.678,1.678,0,0,1-.372-.988,1,1,0,0,1,.738-.394l.059,0Zm-24.571.069a.082.082,0,0,1,.083.037.08.08,0,0,1-.026.112.086.086,0,0,1-.116-.025.08.08,0,0,1,.026-.112A.1.1,0,0,1,22.426,16.01Zm42.661,0a.1.1,0,0,0-.033.011.08.08,0,0,0-.026.112.086.086,0,0,0,.116.025.08.08,0,0,0,.026-.112A.082.082,0,0,0,65.086,16.01Zm-16.562.117c.1,0,.078.326-.026.427-.123.119-.187.109-.244-.034-.047-.118.142-.392.27-.392Zm16.306.092c-.08,0-.151.067-.109.133a.155.155,0,0,0,.111.069c.106,0,.163-.133.078-.183A.145.145,0,0,0,64.83,16.219Zm-1.212.028v0q-.076.027-.076.248c0,.139-.039.216-.109.216-.164,0-.2.112-.119.33.074.187.288.224.244.041-.013-.056.033-.074.123-.046a.235.235,0,0,0,.24-.067.319.319,0,0,1,.2-.112c.128,0,.285-.269.19-.326a.238.238,0,0,0-.176,0c-.058.021-.184-.044-.282-.144s-.177-.151-.228-.138l0,0Zm.937.131a.1.1,0,0,0-.033.011.08.08,0,0,0-.026.112.086.086,0,0,0,.116.025.08.08,0,0,0,.026-.112A.082.082,0,0,0,64.555,16.377Zm-41.482.2h.021c.016,0,.021.013.014.03a.5.5,0,0,1-.294.17,1.867,1.867,0,0,0-.512.259,1.02,1.02,0,0,1-.356.19c-.147,0,.2-.235.733-.493a1.672,1.672,0,0,1,.394-.156Zm41.406.092a.1.1,0,0,0-.033.011.08.08,0,0,0-.026.112.086.086,0,0,0,.116.025.08.08,0,0,0,.026-.112A.082.082,0,0,0,64.479,16.67ZM38.974,16.9c-.07,0-.119.1-.059.193.037.057.073.057.133,0a.1.1,0,0,0,0-.161.1.1,0,0,0-.074-.032Zm24.45.438c-.088,0-.155.07-.168.188-.05.434-.093.53-.2.443-.066-.053-.123-.057-.152-.011a.089.089,0,0,0,.036.122c.056.034.053.079-.009.151s-.115.085-.192.023-.118-.043-.173.1-.14.19-.391.222a.837.837,0,0,0-.508.234c-.135.141-.21.173-.28.117-.171-.137-.194.01-.036.225.085.115.132.244.1.287a.235.235,0,0,0-.007.186c.074.187.208.114.327-.179.084-.207.152-.276.247-.252a.251.251,0,0,0,.228-.08c.083-.1.072-.127-.081-.186-.178-.069-.178-.069-.012-.073a.3.3,0,0,1,.256.156c.088.158.093.159.213.018a.528.528,0,0,1,.425-.144h.3l.114-.452a2.16,2.16,0,0,1,.171-.507A.5.5,0,0,0,63.6,17.4a.288.288,0,0,0-.176-.064Zm-24.459.06c-.048,0-.093.055-.093.156,0,.139.031.177.119.144a.145.145,0,0,0,.095-.156c-.02-.1-.073-.147-.121-.144Zm-.809.089a.108.108,0,0,0-.028,0,.121.121,0,0,0-.038.016.39.39,0,0,1-.147.057.057.057,0,0,0-.057.055c0,.03,0,.074,0,.1s.043.014.095-.018a.573.573,0,0,1,.152-.067l.1-.021c.023-.005.021-.044,0-.085a.087.087,0,0,0-.071-.037Zm-.548.289a.1.1,0,0,0-.033.011.08.08,0,0,0-.026.112.086.086,0,0,0,.116.025.08.08,0,0,0,.026-.112A.082.082,0,0,0,37.607,17.771Zm2.327.264c-.27,0-.3.093-.057.2s.285.107.285-.057c0-.114-.051-.147-.228-.147Zm1.165.03a.1.1,0,0,0-.033.011.08.08,0,0,0-.026.112.086.086,0,0,0,.116.025.08.08,0,0,0,.026-.112A.082.082,0,0,0,41.1,18.065Zm-1.594.22a.1.1,0,0,0-.033.011.08.08,0,0,0-.026.112.086.086,0,0,0,.116.025.08.08,0,0,0,.026-.112A.082.082,0,0,0,39.505,18.285Zm2.733,0a.1.1,0,0,0-.033.011.08.08,0,0,0-.026.112.086.086,0,0,0,.116.025.08.08,0,0,0,.026-.112A.082.082,0,0,0,42.238,18.285Zm-.38.073a.1.1,0,0,0-.033.011.08.08,0,0,0-.026.112.086.086,0,0,0,.116.025.08.08,0,0,0,.026-.112A.082.082,0,0,0,41.858,18.358Zm1.592.2a.188.188,0,0,0-.1.023.086.086,0,0,0-.038.117.2.2,0,0,0,.3,0c.043-.068-.063-.135-.166-.135Zm-3.565.018a.1.1,0,0,0-.033.011.08.08,0,0,0-.026.112.086.086,0,0,0,.116.025.08.08,0,0,0,.026-.112A.082.082,0,0,0,39.885,18.578Zm-.3.073a.1.1,0,0,0-.033.011.08.08,0,0,0-.026.112.086.086,0,0,0,.116.025.08.08,0,0,0,.026-.112A.082.082,0,0,0,39.581,18.652Zm2.334.053a.1.1,0,0,0-.062.021c-.025.024.02.04.1.037s.106-.02.045-.044a.21.21,0,0,0-.083-.014Zm18.92.388a.1.1,0,0,0-.033.011.08.08,0,0,0-.026.112.086.086,0,0,0,.116.025.08.08,0,0,0,.026-.112A.082.082,0,0,0,60.835,19.092Zm-35.677.147a.1.1,0,0,0-.033.011.08.08,0,0,0-.026.112.086.086,0,0,0,.116.025.08.08,0,0,0,.026-.112A.082.082,0,0,0,25.158,19.239Zm8.957.073a.1.1,0,0,0-.033.011.08.08,0,0,0-.026.112.086.086,0,0,0,.116.025.08.08,0,0,0,.026-.112A.082.082,0,0,0,34.116,19.312Zm27.023,0a.1.1,0,0,0-.033.011.08.08,0,0,0-.026.112.086.086,0,0,0,.116.025.08.08,0,0,0,.026-.112A.082.082,0,0,0,61.139,19.312Zm-27.175.881a.1.1,0,0,0-.033.011.08.08,0,0,0-.026.112.086.086,0,0,0,.116.025.08.08,0,0,0,.026-.112A.082.082,0,0,0,33.964,20.193Zm.683.073a.1.1,0,0,0-.033.011.08.08,0,0,0-.026.112.086.086,0,0,0,.116.025.08.08,0,0,0,.026-.112A.082.082,0,0,0,34.647,20.266Zm26.72,0a.1.1,0,0,0-.033.011.08.08,0,0,0-.026.112.086.086,0,0,0,.116.025.08.08,0,0,0,.026-.112A.082.082,0,0,0,61.367,20.266Zm-27.1.073a.1.1,0,0,0-.033.011.08.08,0,0,0-.026.112.086.086,0,0,0,.116.025.08.08,0,0,0,.026-.112A.082.082,0,0,0,34.267,20.34Zm-11.614.147a.1.1,0,0,0-.033.011.08.08,0,0,0-.026.112.086.086,0,0,0,.116.025.08.08,0,0,0,.026-.112A.082.082,0,0,0,22.653,20.486Zm11.31,0a.1.1,0,0,0-.033.011.08.08,0,0,0-.026.112.086.086,0,0,0,.116.025.08.08,0,0,0,.026-.112A.082.082,0,0,0,33.964,20.486Zm-11.007.073a.1.1,0,0,0-.033.011.08.08,0,0,0-.026.112.086.086,0,0,0,.116.025.08.08,0,0,0,.026-.112A.082.082,0,0,0,22.957,20.56Zm38.12.016c-.1,0-.215.153-.152.252.038.059.09.048.176-.034s.1-.139.04-.193A.088.088,0,0,0,61.077,20.576Zm-13.678.2a.1.1,0,0,0-.033.011.08.08,0,0,0-.026.112.086.086,0,0,0,.116.025.08.08,0,0,0,.026-.112A.082.082,0,0,0,47.4,20.78Zm-24.746.073a.1.1,0,0,0-.033.011.08.08,0,0,0-.026.112A.086.086,0,0,0,22.71,21a.08.08,0,0,0,.026-.112A.082.082,0,0,0,22.653,20.853Zm.38,0a.1.1,0,0,0-.033.011.08.08,0,0,0-.026.112A.086.086,0,0,0,23.09,21a.08.08,0,0,0,.026-.112A.082.082,0,0,0,23.033,20.853ZM60.608,21a.1.1,0,0,0-.033.011.08.08,0,0,0-.026.112.086.086,0,0,0,.116.025.08.08,0,0,0,.026-.112A.082.082,0,0,0,60.608,21Zm-37.8.073a.1.1,0,0,0-.033.011.08.08,0,0,0-.026.112.086.086,0,0,0,.116.025.08.08,0,0,0,.026-.112A.082.082,0,0,0,22.805,21.074Zm.38,0a.1.1,0,0,0-.033.011.08.08,0,0,0-.026.112.086.086,0,0,0,.116.025.08.08,0,0,0,.026-.112A.082.082,0,0,0,23.185,21.074Zm37.119,0a.1.1,0,0,0-.033.011.08.08,0,0,0-.026.112.086.086,0,0,0,.116.025.08.08,0,0,0,.026-.112A.082.082,0,0,0,60.3,21.074Zm-.472.016a.153.153,0,0,0-.055.032.52.52,0,0,0-.057.534c.07.067.076.053.123-.305.026-.2.027-.269-.012-.261Zm-36.8.2a.088.088,0,0,0-.033.011.08.08,0,0,0-.026.112.082.082,0,0,0,.109.03.087.087,0,0,1,.114.037.091.091,0,0,0,.121.032.08.08,0,0,0,.026-.112.082.082,0,0,0-.109-.03.087.087,0,0,1-.114-.037.093.093,0,0,0-.088-.044Zm-1.056.126a.5.5,0,0,0-.3.1c-.143.1-.142.105.043.172.1.038.181.091.171.117-.039.1-.015.126.062.08.054-.033.051-.081-.009-.151s-.065-.1-.007-.1a3.2,3.2,0,0,1,.911.429.425.425,0,0,0,0,.1c.016.1.444.059.534-.046.07-.081-.032-.159-.531-.4a2.219,2.219,0,0,0-.871-.294Zm1.587.094a.1.1,0,0,0-.033.011.08.08,0,0,0-.026.112.086.086,0,0,0,.116.025.08.08,0,0,0,.026-.112A.082.082,0,0,0,23.564,21.514ZM7.7,21.587a.1.1,0,0,0-.033.011.08.08,0,0,0-.026.112.086.086,0,0,0,.116.025.08.08,0,0,0,.026-.112A.082.082,0,0,0,7.7,21.587Zm16.169,0a.1.1,0,0,0-.033.011.08.08,0,0,0-.026.112.086.086,0,0,0,.116.025.08.08,0,0,0,.026-.112A.082.082,0,0,0,23.868,21.587Zm-15.893.135c-.08,0-.151.067-.109.133a.155.155,0,0,0,.111.069c.106,0,.163-.133.078-.183a.145.145,0,0,0-.081-.018Zm15.742.085a.1.1,0,0,0-.033.011.08.08,0,0,0-.026.112.086.086,0,0,0,.116.025.08.08,0,0,0,.026-.112A.082.082,0,0,0,23.716,21.807ZM8.3,21.881a.089.089,0,0,0-.033.011c-.048.029-.046.078,0,.138s.06.111.036.135a.1.1,0,0,0,0,.122.129.129,0,0,0,.237-.007c.03-.046-.008-.129-.085-.183s-.114-.1-.083-.1.036-.035.009-.076a.093.093,0,0,0-.09-.041Zm49.369.266a.192.192,0,0,0-.157.112c-.032.08-.007.108.081.092a.216.216,0,0,0,.157-.115c.023-.067-.022-.1-.081-.089Zm-33.767.11c-.116,0-.189.014-.166.05s-.026.081-.1.11c-.212.081.264.154.538.083a.553.553,0,0,1,.285-.018c.036.021.064.006.064-.032s-.094-.1-.209-.128a1.763,1.763,0,0,0-.41-.064Zm1,.126c-.08,0-.151.067-.109.133a.155.155,0,0,0,.111.069c.106,0,.163-.133.078-.183a.145.145,0,0,0-.081-.018Zm-2.1.067a.188.188,0,0,0-.1.023.086.086,0,0,0-.038.117.2.2,0,0,0,.3,0c.043-.068-.063-.135-.166-.135Zm37.013.014c-.114.006-.139.072-.178.358-.055.4.009.53.3.6.194.047.449.423.356.523-.03.032-.01.034.043,0a.1.1,0,0,0,.043-.14h0c-.031-.049,0-.044.076.014.266.208.114-.011-.251-.365-.414-.4-.435-.445-.266-.58.185-.149.145-.4-.066-.413-.02,0-.038,0-.055,0Zm-34.581.078a.1.1,0,0,0-.033.011.08.08,0,0,0-.026.112.086.086,0,0,0,.116.025.08.08,0,0,0,.026-.112A.082.082,0,0,0,25.234,22.541Zm-3.8.073a.1.1,0,0,0-.033.011.08.08,0,0,0-.026.112.086.086,0,0,0,.116.025.08.08,0,0,0,.026-.112A.082.082,0,0,0,21.439,22.615Zm4.1,0a.1.1,0,0,0-.033.011.08.08,0,0,0-.026.112.086.086,0,0,0,.116.025.08.08,0,0,0,.026-.112A.082.082,0,0,0,25.538,22.615Zm.3.073a.1.1,0,0,0-.033.011.08.08,0,0,0-.026.112.086.086,0,0,0,.116.025.08.08,0,0,0,.026-.112A.082.082,0,0,0,25.842,22.688Zm6.756.147a.1.1,0,0,0-.033.011.08.08,0,0,0-.026.112.086.086,0,0,0,.116.025.08.08,0,0,0,.026-.112A.082.082,0,0,0,32.6,22.835Zm.455.073a.1.1,0,0,0-.033.011.08.08,0,0,0-.026.112.086.086,0,0,0,.116.025.08.08,0,0,0,.026-.112A.082.082,0,0,0,33.053,22.908Zm-7.211.073a.1.1,0,0,0-.033.011.08.08,0,0,0-.026.112.086.086,0,0,0,.116.025.08.08,0,0,0,.026-.112A.082.082,0,0,0,25.842,22.982Zm38.562.073a.1.1,0,0,0-.033.011.08.08,0,0,0-.026.112.086.086,0,0,0,.116.025.08.08,0,0,0,.026-.112A.082.082,0,0,0,64.4,23.055Zm4.023.073a.1.1,0,0,0-.033.011.08.08,0,0,0-.026.112.086.086,0,0,0,.116.025.08.08,0,0,0,.026-.112A.082.082,0,0,0,68.426,23.128ZM32.749,23.2a.1.1,0,0,0-.033.011.08.08,0,0,0-.026.112.086.086,0,0,0,.116.025.08.08,0,0,0,.026-.112A.082.082,0,0,0,32.749,23.2Zm.3,0a.1.1,0,0,0-.033.011.08.08,0,0,0-.026.112.086.086,0,0,0,.116.025.08.08,0,0,0,.026-.112A.082.082,0,0,0,33.053,23.2Zm-7.135.073a.1.1,0,0,0-.033.011.076.076,0,0,0-.031.105.082.082,0,0,1-.038.11.085.085,0,0,0-.033.117.086.086,0,0,0,.116.025.076.076,0,0,0,.031-.105.082.082,0,0,1,.038-.11A.085.085,0,0,0,26,23.312.082.082,0,0,0,25.917,23.275Zm34.538,0a.094.094,0,0,0-.033.011.08.08,0,0,0-.026.112.086.086,0,0,0,.116.025.08.08,0,0,0,.026-.112A.082.082,0,0,0,60.456,23.275Zm3.72.073a.1.1,0,0,0-.033.011.08.08,0,0,0-.026.112.086.086,0,0,0,.116.025.08.08,0,0,0,.026-.112A.082.082,0,0,0,64.175,23.349Zm-37.954.22a.1.1,0,0,0-.033.011.08.08,0,0,0-.026.112.086.086,0,0,0,.116.025.08.08,0,0,0,.026-.112A.082.082,0,0,0,26.221,23.569Zm33.552,0c-.07,0-.119.1-.059.193.037.057.073.057.133,0a.1.1,0,0,0,0-.161.1.1,0,0,0-.074-.032Zm-35.222.069a.1.1,0,0,0-.033.011.08.08,0,0,0-.026.112.086.086,0,0,0,.116.025.08.08,0,0,0,.026-.112A.082.082,0,0,0,24.551,23.642Zm29.908,0a.1.1,0,0,0-.033.011.08.08,0,0,0-.026.112.086.086,0,0,0,.116.025.08.08,0,0,0,.026-.112A.082.082,0,0,0,54.459,23.642Zm-29.6.073a.1.1,0,0,0-.033.011.08.08,0,0,0-.026.112.086.086,0,0,0,.116.025.08.08,0,0,0,.026-.112A.082.082,0,0,0,24.855,23.715Zm22.393,0a.1.1,0,0,0-.033.011.08.08,0,0,0-.026.112.086.086,0,0,0,.116.025.08.08,0,0,0,.026-.112A.082.082,0,0,0,47.248,23.715Zm-21.482.073a.1.1,0,0,0-.033.011.08.08,0,0,0-.026.112.086.086,0,0,0,.116.025.08.08,0,0,0,.026-.112A.082.082,0,0,0,25.766,23.789Zm33.779,0a.1.1,0,0,0-.033.011.08.08,0,0,0-.026.112.086.086,0,0,0,.116.025.08.08,0,0,0,.026-.112A.082.082,0,0,0,59.545,23.789Zm-5.086.147a.1.1,0,0,0-.033.011.08.08,0,0,0-.026.112.086.086,0,0,0,.116.025.08.08,0,0,0,.026-.112A.082.082,0,0,0,54.459,23.936Zm5.541,0a.1.1,0,0,0-.033.011.08.08,0,0,0-.026.112.086.086,0,0,0,.116.025.08.08,0,0,0,.026-.112A.082.082,0,0,0,60,23.936Zm-34.007.073a.1.1,0,0,0-.033.011.08.08,0,0,0-.026.112.086.086,0,0,0,.116.025.08.08,0,0,0,.026-.112A.082.082,0,0,0,25.993,24.009Zm-2.109.055a.014.014,0,0,0-.007,0c-.021.02-.018.092.009.161s.067.107.088.087.015-.092-.012-.161-.056-.1-.078-.092Zm35.5.062c-.057,0-.242.313-.242.408s.085.008.19-.188c.065-.121.088-.22.052-.22Zm1.3.03a.1.1,0,0,0-.033.011.08.08,0,0,0-.026.112.086.086,0,0,0,.116.025.08.08,0,0,0,.026-.112A.082.082,0,0,0,60.684,24.156Zm-4.175.073a.1.1,0,0,0-.033.011.08.08,0,0,0-.026.112.086.086,0,0,0,.116.025.08.08,0,0,0,.026-.112A.082.082,0,0,0,56.509,24.229Zm9.337.22a.1.1,0,0,0-.033.011.08.08,0,0,0-.026.112.086.086,0,0,0,.116.025.08.08,0,0,0,.026-.112A.082.082,0,0,0,65.845,24.449Zm3.188,0a.1.1,0,0,0-.033.011.08.08,0,0,0-.026.112.086.086,0,0,0,.116.025.08.08,0,0,0,.026-.112A.082.082,0,0,0,69.034,24.449Zm-8.381.055a.68.68,0,0,0-.242.094c-.152.076-.209.082-.211.018,0-.1-.225.162-.225.266,0,.038.051.028.111-.021.125-.1.268-.044.268.105s.165.173.3.044a.378.378,0,0,0,.09-.316c-.019-.131-.033-.189-.093-.19Zm-8.44.016c-.054,0-.1.058-.119.186-.047.309.067.438.273.312.074-.046.076-.112.009-.3-.047-.131-.11-.2-.164-.2Zm-1.4.076a.1.1,0,0,0-.033.011.08.08,0,0,0-.026.112.086.086,0,0,0,.116.025.08.08,0,0,0,.026-.112A.082.082,0,0,0,50.816,24.6Zm14.5,0a.1.1,0,0,0-.033.011.08.08,0,0,0-.026.112.086.086,0,0,0,.116.025.08.08,0,0,0,.026-.112A.082.082,0,0,0,65.314,24.6Zm.3.073a.1.1,0,0,0-.033.011.08.08,0,0,0-.026.112.086.086,0,0,0,.116.025.08.08,0,0,0,.026-.112A.082.082,0,0,0,65.618,24.67Zm-3.319.211a.111.111,0,0,0-.059.037.2.2,0,0,0-.033.206c.037.093.072.107.133.048a.208.208,0,0,0,.033-.209c-.023-.058-.045-.085-.074-.083Zm-11.484.009a.1.1,0,0,0-.033.011.08.08,0,0,0-.026.112.086.086,0,0,0,.116.025.08.08,0,0,0,.026-.112A.082.082,0,0,0,50.816,24.89Zm3.871.073a.1.1,0,0,0-.033.011.08.08,0,0,0-.026.112.086.086,0,0,0,.116.025A.08.08,0,0,0,54.77,25,.082.082,0,0,0,54.687,24.963Zm8.805,0a.1.1,0,0,0-.033.011.08.08,0,0,0-.026.112.086.086,0,0,0,.116.025A.08.08,0,0,0,63.575,25,.082.082,0,0,0,63.492,24.963Zm1.29,0a.1.1,0,0,0-.033.011.08.08,0,0,0-.026.112.086.086,0,0,0,.116.025A.08.08,0,0,0,64.866,25,.082.082,0,0,0,64.783,24.963Zm-5.788.057-.415.4a1.791,1.791,0,0,1-.524.4.181.181,0,0,0-.149.14.272.272,0,0,1-.218.165c-.149.02-.177.061-.157.241a1.448,1.448,0,0,0,.232.514c.178.256.244.3.482.3a.716.716,0,0,1,.33.055.121.121,0,0,0,.147-.018c.049-.04.112-.05.14-.023s.03-.051,0-.174-.012-.245.038-.275a.858.858,0,0,0,.195-.3c.06-.139.148-.252.2-.252.067,0,.067-.027,0-.108-.05-.059-.071-.137-.047-.174s-.03-.087-.121-.11c-.163-.041-.163-.045.045-.245l.211-.2-.195-.161-.192-.161Zm.7.089a.1.1,0,0,0-.033.011.08.08,0,0,0-.026.112.086.086,0,0,0,.116.025.08.08,0,0,0,.026-.112A.082.082,0,0,0,59.7,25.11Zm4.782,0a.1.1,0,0,0-.033.011.08.08,0,0,0-.026.112.086.086,0,0,0,.116.025.08.08,0,0,0,.026-.112A.082.082,0,0,0,64.479,25.11Zm-13.588.073a.1.1,0,0,0-.033.011.08.08,0,0,0-.026.112.086.086,0,0,0,.116.025.08.08,0,0,0,.026-.112A.082.082,0,0,0,50.891,25.183Zm16.7.073a.1.1,0,0,0-.033.011.08.08,0,0,0-.026.112.086.086,0,0,0,.116.025.08.08,0,0,0,.026-.112A.082.082,0,0,0,67.591,25.257Zm-12.556.053.306.372a1.482,1.482,0,0,1,.306.5.558.558,0,0,0,.19.3.576.576,0,0,1,.192.289c0,.144.615.813.719.784.042-.012.088-.1.1-.2a.647.647,0,0,1,.1-.268c.087-.1.009-.263-.1-.2-.085.051-.53-.337-.479-.417.019-.03-.149-.23-.372-.445a3.084,3.084,0,0,1-.439-.482.482.482,0,0,0-.28-.161l-.249-.069Zm-4.22.167a.1.1,0,0,0-.033.011.08.08,0,0,0-.026.112.086.086,0,0,0,.116.025.08.08,0,0,0,.026-.112A.082.082,0,0,0,50.816,25.477Zm6.528.073a.1.1,0,0,0-.033.011.08.08,0,0,0-.026.112.086.086,0,0,0,.116.025.08.08,0,0,0,.026-.112A.082.082,0,0,0,57.344,25.55Zm-18.6.073a.1.1,0,0,0-.033.011.08.08,0,0,0-.026.112.086.086,0,0,0,.116.025.08.08,0,0,0,.026-.112A.082.082,0,0,0,38.746,25.624Zm16.32.147a.1.1,0,0,0-.033.011.08.08,0,0,0-.026.112.086.086,0,0,0,.116.025.08.08,0,0,0,.026-.112A.082.082,0,0,0,55.066,25.77Zm6.073,0a.1.1,0,0,0-.033.011.08.08,0,0,0-.026.112.086.086,0,0,0,.116.025.08.08,0,0,0,.026-.112A.082.082,0,0,0,61.139,25.77Zm-22.545.147a.1.1,0,0,0-.033.011.08.08,0,0,0-.026.112.086.086,0,0,0,.116.025.08.08,0,0,0,.026-.112A.082.082,0,0,0,38.594,25.917Zm-18.218.147a.1.1,0,0,0-.033.011.08.08,0,0,0-.026.112.086.086,0,0,0,.116.025.08.08,0,0,0,.026-.112A.082.082,0,0,0,20.376,26.064Zm40.706.069c-.083,0-.111.071-.1.248.011.27.1.24.173-.06.036-.142.018-.188-.069-.188Zm-5.712,0a.1.1,0,0,0-.033.011.08.08,0,0,0-.026.112.086.086,0,0,0,.116.025.08.08,0,0,0,.026-.112A.082.082,0,0,0,55.37,26.137Zm13.815,0a.1.1,0,0,0-.033.011.08.08,0,0,0-.026.112.086.086,0,0,0,.116.025.08.08,0,0,0,.026-.112A.082.082,0,0,0,69.185,26.137Zm-8.886.069c-.05,0-.114,0-.195,0a1.233,1.233,0,0,0-.5.085,1.5,1.5,0,0,0-.157.959.16.16,0,0,1,.038.17c-.039.061.1.374.166.374a1.016,1.016,0,0,0-.026-.291c-.093-.56.15-.685.266-.138.064.3.2.322.2.028a.465.465,0,0,0-.183-.374c-.224-.186-.158-.359.111-.294.109.026.18.011.18-.037s-.112-.071-.278-.057c-.188.016-.292-.011-.315-.08-.053-.154.2-.3.444-.25a.618.618,0,0,0,.346-.032c.076-.041.052-.061-.1-.064Zm-21.933,0a.1.1,0,0,0-.033.011.08.08,0,0,0-.026.112.086.086,0,0,0,.116.025.08.08,0,0,0,.026-.112A.082.082,0,0,0,38.367,26.211Zm23.076.147a.1.1,0,0,0-.033.011.08.08,0,0,0-.026.112.086.086,0,0,0,.116.025.08.08,0,0,0,.026-.112A.082.082,0,0,0,61.443,26.357Zm-41.067.073a.1.1,0,0,0-.033.011.08.08,0,0,0-.026.112.086.086,0,0,0,.116.025.08.08,0,0,0,.026-.112.082.082,0,0,0-.083-.037Zm47.822,0a.1.1,0,0,0-.033.011.08.08,0,0,0-.026.112.086.086,0,0,0,.116.025.08.08,0,0,0,.026-.112A.082.082,0,0,0,68.2,26.431Zm-48.126,0c-.07,0-.119.1-.059.193.037.057.073.057.133,0a.1.1,0,0,0,0-.161A.1.1,0,0,0,20.073,26.435Zm.607.069a.1.1,0,0,0-.033.011.08.08,0,0,0-.026.112.086.086,0,0,0,.116.025.08.08,0,0,0,.026-.112.082.082,0,0,0-.083-.037Zm41.05.071c-.12.007-.032.114.206.2.182.067.188.084.074.165-.079.056-.1.127-.066.186s.078.071.114.016c.071-.111.779.253.932.479.109.161.105.188-.026.333s-.122.152-.017.115a.691.691,0,0,1,.4.1c.306.159.586.186.557.055-.01-.048.074-.12.187-.161a.291.291,0,0,1,.361.062.437.437,0,0,1,.154.232c0,.053.111.127.247.165.394.11.415.09.14-.138A.809.809,0,0,1,64.714,28c-.011-.092-.023-.188-.026-.213a4.212,4.212,0,0,0-1.336-.771l-.515-.179L62.66,27c-.17.155-.184.156-.325.032-.081-.071-.129-.175-.107-.232.042-.1-.007-.131-.382-.211a.445.445,0,0,0-.116-.011Zm7.607,0a.1.1,0,0,0-.033.011.08.08,0,0,0-.026.112.086.086,0,0,0,.116.025.08.08,0,0,0,.026-.112A.082.082,0,0,0,69.337,26.578Zm-13.664.073a.1.1,0,0,0-.033.011.08.08,0,0,0-.026.112.086.086,0,0,0,.116.025.08.08,0,0,0,.026-.112A.082.082,0,0,0,55.674,26.651Zm6.832,0a.1.1,0,0,0-.033.011.08.08,0,0,0-.026.112.086.086,0,0,0,.116.025.08.08,0,0,0,.026-.112A.082.082,0,0,0,62.505,26.651Zm1.215,0a.1.1,0,0,0-.033.011.08.08,0,0,0-.026.112.086.086,0,0,0,.116.025.08.08,0,0,0,.026-.112A.082.082,0,0,0,63.72,26.651Zm1.442,0a.1.1,0,0,0-.033.011.08.08,0,0,0-.026.112.086.086,0,0,0,.116.025.08.08,0,0,0,.026-.112A.082.082,0,0,0,65.162,26.651Zm-3.72,0c-.07,0-.119.1-.059.193.037.057.073.057.133,0a.1.1,0,0,0,0-.161.1.1,0,0,0-.074-.032Zm-23.228.069a.1.1,0,0,0-.033.011.08.08,0,0,0-.026.112.086.086,0,0,0,.116.025.08.08,0,0,0,.026-.112A.082.082,0,0,0,38.215,26.724Zm19.2,0a.1.1,0,0,0-.033.011.08.08,0,0,0-.026.112.086.086,0,0,0,.116.025.08.08,0,0,0,.026-.112A.082.082,0,0,0,57.42,26.724Zm7.135,0a.1.1,0,0,0-.033.011.08.08,0,0,0-.026.112.086.086,0,0,0,.116.025.08.08,0,0,0,.026-.112A.082.082,0,0,0,64.555,26.724Zm-4.1.073a.1.1,0,0,0-.033.011.08.08,0,0,0-.026.112.086.086,0,0,0,.116.025.08.08,0,0,0,.026-.112A.082.082,0,0,0,60.456,26.8Zm.3,0a.1.1,0,0,0-.033.011.08.08,0,0,0-.026.112.086.086,0,0,0,.116.025.08.08,0,0,0,.026-.112A.082.082,0,0,0,60.76,26.8Zm8.805,0a.1.1,0,0,0-.033.011.08.08,0,0,0-.026.112.086.086,0,0,0,.116.025.08.08,0,0,0,.026-.112A.082.082,0,0,0,69.565,26.8Zm.3.073a.1.1,0,0,0-.033.011.08.08,0,0,0-.026.112.086.086,0,0,0,.116.025.08.08,0,0,0,.026-.112A.082.082,0,0,0,69.869,26.871Zm-12.6.073a.1.1,0,0,0-.033.011.08.08,0,0,0-.026.112.086.086,0,0,0,.116.025.08.08,0,0,0,.026-.112A.082.082,0,0,0,57.268,26.945Zm8.35.009c-.064,0-.072.083.024.225.085.126.151.159.2.108s.032-.12-.062-.22a.3.3,0,0,0-.166-.112Zm-9.79.041c-.017-.006-.012.022.014.087s.072.114.095.092,0-.083-.052-.133A.231.231,0,0,0,55.828,26.995Zm5.439,0a.422.422,0,0,0-.126.023c-.063.023-.092.079-.064.122.061.1.453.06.453-.041,0-.067-.132-.109-.263-.1Zm-.508.1a.1.1,0,0,0-.033.011.08.08,0,0,0-.026.112.086.086,0,0,0,.116.025.08.08,0,0,0,.026-.112A.082.082,0,0,0,60.76,27.091Zm-13.132.147a.094.094,0,0,0-.033.011.08.08,0,0,0-.026.112.086.086,0,0,0,.116.025.08.08,0,0,0,.026-.112A.082.082,0,0,0,47.627,27.238Zm17.869,0a.273.273,0,0,0-.128.073.453.453,0,0,1-.216.115.149.149,0,0,0-.13.22c.075.117.183.087.387-.11.16-.155.18-.31.088-.3Zm-20.678.144a.1.1,0,0,0-.033.011.08.08,0,0,0-.026.112.086.086,0,0,0,.116.025.08.08,0,0,0,.026-.112A.082.082,0,0,0,44.819,27.385Zm17.155.073a.1.1,0,0,0-.033.011.08.08,0,0,0-.026.112.086.086,0,0,0,.116.025.08.08,0,0,0,.026-.112A.082.082,0,0,0,61.974,27.458Zm2.809,0a.1.1,0,0,0-.033.011.08.08,0,0,0-.026.112.086.086,0,0,0,.116.025.08.08,0,0,0,.026-.112A.082.082,0,0,0,64.783,27.458Zm-4.4.073a.1.1,0,0,0-.033.011.08.08,0,0,0-.026.112.086.086,0,0,0,.116.025.08.08,0,0,0,.026-.112A.082.082,0,0,0,60.38,27.532Zm1.9,0a.1.1,0,0,0-.033.011.08.08,0,0,0-.026.112.086.086,0,0,0,.116.025.08.08,0,0,0,.026-.112A.082.082,0,0,0,62.278,27.532Zm3.8,0a.1.1,0,0,0-.033.011.08.08,0,0,0-.026.112.086.086,0,0,0,.116.025.08.08,0,0,0,.026-.112A.082.082,0,0,0,66.073,27.532Zm-18.825.073a.1.1,0,0,0-.033.011.08.08,0,0,0-.026.112.086.086,0,0,0,.116.025.08.08,0,0,0,.026-.112A.082.082,0,0,0,47.248,27.605Zm-2.5.073a.1.1,0,0,0-.033.011.08.08,0,0,0-.026.112.086.086,0,0,0,.116.025.08.08,0,0,0,.026-.112A.082.082,0,0,0,44.743,27.678Zm21.634,0a.1.1,0,0,0-.033.011.08.08,0,0,0-.026.112.086.086,0,0,0,.116.025.08.08,0,0,0,.026-.112A.082.082,0,0,0,66.377,27.678ZM57,27.708a.086.086,0,0,0-.074.034c-.065.1.211.242.591.3a2.724,2.724,0,0,1,.776.156c.058.056.164.044.164-.018,0-.12-.5-.379-.655-.339a1.2,1.2,0,0,1-.493-.069A.933.933,0,0,0,57,27.708Zm1.454.032c-.08,0-.151.067-.109.133a.155.155,0,0,0,.111.069c.106,0,.163-.133.078-.183A.145.145,0,0,0,58.454,27.74Zm.332.011a.1.1,0,0,0-.033.011.08.08,0,0,0-.026.112.086.086,0,0,0,.116.025.08.08,0,0,0,.026-.112A.082.082,0,0,0,58.786,27.752Zm11.159,0a.1.1,0,0,0-.033.011.08.08,0,0,0-.026.112A.086.086,0,0,0,70,27.9a.08.08,0,0,0,.026-.112A.082.082,0,0,0,69.944,27.752Zm-3.217.062c-.08,0-.151.067-.109.133a.155.155,0,0,0,.111.069c.106,0,.163-.133.078-.183a.145.145,0,0,0-.081-.018Zm-6.8.011a.1.1,0,0,0-.033.011.08.08,0,0,0-.026.112.086.086,0,0,0,.116.025.08.08,0,0,0,.026-.112A.082.082,0,0,0,59.925,27.825Zm1.063.073a.1.1,0,0,0-.033.011.08.08,0,0,0-.026.112.086.086,0,0,0,.116.025.08.08,0,0,0,.026-.112A.082.082,0,0,0,60.987,27.9Zm.655.062c-.08,0-.151.067-.109.133a.155.155,0,0,0,.111.069c.106,0,.163-.133.078-.183a.145.145,0,0,0-.081-.018Zm4.811.011a.1.1,0,0,0-.033.011.08.08,0,0,0-.026.112.086.086,0,0,0,.116.025.08.08,0,0,0,.026-.112A.082.082,0,0,0,66.453,27.972Zm3.871,0a.1.1,0,0,0-.033.011.08.08,0,0,0-.026.112.086.086,0,0,0,.116.025.08.08,0,0,0,.026-.112A.082.082,0,0,0,70.324,27.972Zm-3.217.06a.128.128,0,0,0-.071.018c-.064.038-.061.079.007.158s.116.083.171.03C67.3,28.158,67.209,28.035,67.107,28.032Zm-22.289.014a.1.1,0,0,0-.033.011.08.08,0,0,0-.026.112.086.086,0,0,0,.116.025.08.08,0,0,0,.026-.112A.082.082,0,0,0,44.819,28.045Zm16.472,0a.1.1,0,0,0-.033.011.08.08,0,0,0-.026.112.086.086,0,0,0,.116.025.08.08,0,0,0,.026-.112A.082.082,0,0,0,61.291,28.045Zm-.489.048c-.192.026-.638.387-.569.5.034.053.133.032.306-.067.356-.2.45-.321.33-.417a.09.09,0,0,0-.066-.011Zm-2.092.025a.1.1,0,0,0-.033.011.08.08,0,0,0-.026.112.086.086,0,0,0,.116.025.08.08,0,0,0,.026-.112A.082.082,0,0,0,58.71,28.119Zm1.518,0a.1.1,0,0,0-.033.011.08.08,0,0,0-.026.112.086.086,0,0,0,.116.025.08.08,0,0,0,.026-.112A.082.082,0,0,0,60.228,28.119Zm-.534.055a.188.188,0,0,0-.1.023.086.086,0,0,0-.038.117.2.2,0,0,0,.3,0c.043-.068-.063-.135-.166-.135Zm-.624.018a.28.28,0,0,0-.1.025.059.059,0,0,0-.021.087c.055.086.389.054.344-.032a.224.224,0,0,0-.185-.08h-.036Zm7.838.073a.1.1,0,0,0-.033.011.08.08,0,0,0-.026.112.086.086,0,0,0,.116.025.08.08,0,0,0,.026-.112A.082.082,0,0,0,66.908,28.265Zm-7.439.147a.1.1,0,0,0-.033.011.08.08,0,0,0-.026.112.086.086,0,0,0,.116.025.08.08,0,0,0,.026-.112A.082.082,0,0,0,59.469,28.412Zm.455.073a.1.1,0,0,0-.033.011.08.08,0,0,0-.026.112.086.086,0,0,0,.116.025.08.08,0,0,0,.026-.112A.082.082,0,0,0,59.925,28.486Zm7.363,0a.1.1,0,0,0-.033.011.08.08,0,0,0-.026.112.086.086,0,0,0,.116.025.08.08,0,0,0,.026-.112A.082.082,0,0,0,67.288,28.486Zm-1.67.147a.1.1,0,0,0-.033.011.08.08,0,0,0-.026.112.086.086,0,0,0,.116.025.08.08,0,0,0,.026-.112A.082.082,0,0,0,65.618,28.632Zm1.366.073a.1.1,0,0,0-.033.011.08.08,0,0,0-.026.112.086.086,0,0,0,.116.025.08.08,0,0,0,.026-.112A.082.082,0,0,0,66.984,28.706Zm-5.15.062c-.022,0-.024.017-.007.044.027.043-.037.133-.142.2s-.174.148-.154.179-.016.1-.078.149c-.082.066-.091.116-.033.183.044.052.055.111.021.131-.12.072-.585-.006-.626-.105-.059-.142-.232-.16-.232-.025,0,.061-.082.148-.183.193s-.169.121-.147.177a.231.231,0,0,1-.017.186c-.041.064-.085.052-.159-.046-.1-.131-.1-.131-.111.007a1.532,1.532,0,0,0,0,.229c.012.091-.448.463-.572.463a4.026,4.026,0,0,0-.844.411.371.371,0,0,0-.123.626.26.26,0,0,1,.071.264c-.05.124-.059.123-.161-.011-.063-.082-.109-.1-.109-.048a.827.827,0,0,0,.159.312,3.2,3.2,0,0,1,.351,1.436c-.026.133.016.2.185.282.2.1.236.1.5-.076a1.16,1.16,0,0,1,.527-.186.687.687,0,0,0,.448-.183.735.735,0,0,1,.4-.183,1.652,1.652,0,0,0,.425-.078,1.078,1.078,0,0,1,1.1.427.652.652,0,0,0,.161.236.738.738,0,0,0,.176-.266c.1-.2.153-.246.216-.186s.063.134,0,.273c-.117.247-.114.29.017.186.078-.063.121-.062.159,0s.033.1.009.124.041.138.145.257a.769.769,0,0,1,.187.319c0,.16.467.255.622.126.111-.093.143-.088.266.041.179.189.166.19.339-.023a.4.4,0,0,1,.306-.165c.109.011.165-.03.178-.131a4.188,4.188,0,0,1,.344-.954,4.35,4.35,0,0,0,.232-1.851.949.949,0,0,1-.465-.319.786.786,0,0,0-.187-.257c-.1-.108-.173-.224-.152-.257s-.031-.079-.116-.105c-.209-.064-.455-.554-.455-.9a.523.523,0,0,0-.147-.413.781.781,0,0,1-.2-.36,1.461,1.461,0,0,0-.093-.3c-.057-.093-.23.38-.24.656a1.789,1.789,0,0,1-.346.844,3.283,3.283,0,0,1-.463-.3c-.392-.28-.417-.314-.37-.532a.828.828,0,0,1,.119-.3c.09-.092.088-.281,0-.227a.084.084,0,0,1-.114-.028.218.218,0,0,0-.178-.062,1.065,1.065,0,0,1-.311-.05.327.327,0,0,0-.123-.023Zm-16.56.085a.1.1,0,0,0-.033.011.08.08,0,0,0-.026.112.086.086,0,0,0,.116.025.08.08,0,0,0,.026-.112A.082.082,0,0,0,45.274,28.853ZM45.5,29a.1.1,0,0,0-.033.011.08.08,0,0,0-.026.112.086.086,0,0,0,.116.025.08.08,0,0,0,.026-.112A.082.082,0,0,0,45.5,29Zm.925.069c-.024,0-.04.034-.04.083a.841.841,0,0,1-.508.6.6.6,0,0,0-.361.725.532.532,0,0,1-.081.429c-.132.194-.121.38.05.8.069.17.114.193.282.154a.528.528,0,0,0,.256-.128,5.025,5.025,0,0,0,.323-1.181,5.015,5.015,0,0,1,.192-.706,1.152,1.152,0,0,0-.088-.768.038.038,0,0,0-.026,0Zm-.7.151a.1.1,0,0,0-.033.011.08.08,0,0,0-.026.112.086.086,0,0,0,.116.025.08.08,0,0,0,.026-.112A.082.082,0,0,0,45.73,29.22Zm17,0a.1.1,0,0,0-.033.011.08.08,0,0,0-.026.112.086.086,0,0,0,.116.025.08.08,0,0,0,.026-.112A.082.082,0,0,0,62.733,29.22Zm9.413.073a.087.087,0,0,0-.033.011.08.08,0,0,0-.026.112.082.082,0,0,0,.109.03.087.087,0,0,1,.114.037.091.091,0,0,0,.121.032.08.08,0,0,0,.026-.112.082.082,0,0,0-.109-.03.087.087,0,0,1-.114-.037.093.093,0,0,0-.088-.044Zm-4.023.294a.1.1,0,0,0-.033.011.08.08,0,0,0-.026.112.086.086,0,0,0,.116.025.08.08,0,0,0,.026-.112A.082.082,0,0,0,68.123,29.586Zm-20.723.22a.1.1,0,0,0-.033.011.08.08,0,0,0-.026.112.086.086,0,0,0,.116.025.08.08,0,0,0,.026-.112A.082.082,0,0,0,47.4,29.807Zm20.8.073a.1.1,0,0,0-.033.011.08.08,0,0,0-.026.112.086.086,0,0,0,.116.025.08.08,0,0,0,.026-.112A.082.082,0,0,0,68.2,29.88Zm2.277,0a.1.1,0,0,0-.033.011.08.08,0,0,0-.026.112.086.086,0,0,0,.116.025.08.08,0,0,0,.026-.112A.082.082,0,0,0,70.476,29.88Zm-2.05.147a.1.1,0,0,0-.033.011.08.08,0,0,0-.026.112.086.086,0,0,0,.116.025.08.08,0,0,0,.026-.112A.082.082,0,0,0,68.426,30.027ZM9.521,30.1a.1.1,0,0,0-.033.011.08.08,0,0,0-.026.112.086.086,0,0,0,.116.025.08.08,0,0,0,.026-.112A.082.082,0,0,0,9.521,30.1Zm60.727,0a.1.1,0,0,0-.033.011.08.08,0,0,0-.026.112.086.086,0,0,0,.116.025.08.08,0,0,0,.026-.112A.082.082,0,0,0,70.248,30.1Zm-60.5.147a.1.1,0,0,0-.033.011.08.08,0,0,0-.026.112.086.086,0,0,0,.116.025.08.08,0,0,0,.026-.112.082.082,0,0,0-.083-.037Zm61.866.367a.1.1,0,0,0-.033.011.08.08,0,0,0-.026.112.086.086,0,0,0,.116.025.08.08,0,0,0,.026-.112A.082.082,0,0,0,71.614,30.614Zm-59.74.147a.1.1,0,0,0-.033.011.08.08,0,0,0-.026.112.086.086,0,0,0,.116.025.08.08,0,0,0,.026-.112.082.082,0,0,0-.083-.037Zm36.057,0a.1.1,0,0,0-.033.011.08.08,0,0,0-.026.112.086.086,0,0,0,.116.025.08.08,0,0,0,.026-.112A.082.082,0,0,0,47.931,30.761Zm19.909,0a.093.093,0,0,0-.057.023c-.054.052-.023.111.1.193.2.137.265.146.327.048s-.2-.254-.344-.264H67.84Zm-20.213.071a.1.1,0,0,0-.033.011.08.08,0,0,0-.026.112.086.086,0,0,0,.116.025.08.08,0,0,0,.026-.112A.082.082,0,0,0,47.627,30.834Zm23.759,0a.1.1,0,0,0-.033.011.08.08,0,0,0-.026.112.086.086,0,0,0,.116.025.08.08,0,0,0,.026-.112A.082.082,0,0,0,71.387,30.834Zm-60.271.073a.1.1,0,0,0-.033.011.08.08,0,0,0-.026.112.086.086,0,0,0,.116.025.08.08,0,0,0,.026-.112.082.082,0,0,0-.083-.037Zm1.215.294a.1.1,0,0,0-.033.011.08.08,0,0,0-.026.112.086.086,0,0,0,.116.025.08.08,0,0,0,.026-.112A.082.082,0,0,0,12.33,31.2Zm1.063.294a.1.1,0,0,0-.033.011.08.08,0,0,0-.026.112.086.086,0,0,0,.116.025.08.08,0,0,0,.026-.112.082.082,0,0,0-.083-.037Zm.683.147a.1.1,0,0,0-.033.011.08.08,0,0,0-.026.112.086.086,0,0,0,.116.025.08.08,0,0,0,.026-.112.082.082,0,0,0-.083-.037Zm3.72.294a.1.1,0,0,0-.033.011.08.08,0,0,0-.026.112.086.086,0,0,0,.116.025.08.08,0,0,0,.026-.112A.082.082,0,0,0,17.8,31.935Zm-.911.147a.1.1,0,0,0-.033.011.08.08,0,0,0-.026.112.086.086,0,0,0,.116.025.08.08,0,0,0,.026-.112A.082.082,0,0,0,16.884,32.082ZM22.5,33.7a.1.1,0,0,0-.033.011.08.08,0,0,0-.026.112.086.086,0,0,0,.116.025.08.08,0,0,0,.026-.112A.082.082,0,0,0,22.5,33.7Zm46.843.289a.016.016,0,0,0-.012,0c-.021.02.029.13.111.243.233.32.274.522.142.716-.108.16-.1.176.033.211a.194.194,0,0,1,.147.19c0,.237.141.182.216-.085.037-.131.106-.23.154-.22s.085-.011.085-.048a.736.736,0,0,1,.052-.2c.04-.1.022-.117-.083-.078s-.147.006-.176-.1-.061-.129-.142-.064-.117.053-.157-.053a1.281,1.281,0,0,0-.372-.516Zm-6.687.151a.1.1,0,0,0-.033.011.08.08,0,0,0-.026.112.086.086,0,0,0,.116.025.08.08,0,0,0,.026-.112A.082.082,0,0,0,62.657,34.136Zm2.05.954a.1.1,0,0,0-.033.011.08.08,0,0,0-.026.112.086.086,0,0,0,.116.025.08.08,0,0,0,.026-.112A.082.082,0,0,0,64.707,35.09Zm-.683.073a.1.1,0,0,0-.033.011.08.08,0,0,0-.026.112.086.086,0,0,0,.116.025.08.08,0,0,0,.026-.112A.082.082,0,0,0,64.024,35.164Zm.27.289c-.118,0-.114.037-.069.147.036.087.081.216.1.287.043.132.383.142.4.011a.871.871,0,0,1,.066-.2c.081-.177.013-.226-.337-.243-.069,0-.122-.006-.161,0Zm5.093.018a.41.41,0,0,0-.3.305c0,.044-.089.15-.2.234-.326.248-.818.93-.56.775a.25.25,0,0,1,.209.03c.18.1.288.1.382-.011s.093-.127.093-.314a.62.62,0,0,1,.192-.3c.105-.1.171-.214.147-.252s.008-.09.074-.115a.19.19,0,0,0,.012-.344.084.084,0,0,0-.021-.007h-.024Zm-46.05.211c-.07,0-.119.1-.059.193.037.057.073.057.133,0a.1.1,0,0,0,0-.161A.1.1,0,0,0,23.336,35.682ZM68.5,37a.1.1,0,0,0-.033.011.08.08,0,0,0-.026.112.086.086,0,0,0,.116.025.08.08,0,0,0,.026-.112A.082.082,0,0,0,68.5,37Zm-45.317.073a.1.1,0,0,0-.033.011.08.08,0,0,0-.026.112.086.086,0,0,0,.116.025.08.08,0,0,0,.026-.112A.082.082,0,0,0,23.185,37.072Zm26.874.232c-.089,0-.124.1-.026.218.116.135.183.136.3,0,.074-.086.063-.145-.009-.1,0-.007-.011,0-.028.011a.394.394,0,0,1-.133-.078.188.188,0,0,0-.1-.046Zm-26.874.135a.1.1,0,0,0-.033.011.08.08,0,0,0-.026.112.086.086,0,0,0,.116.025.08.08,0,0,0,.026-.112A.082.082,0,0,0,23.185,37.439Zm44.862.22a.1.1,0,0,0-.033.011.08.08,0,0,0-.026.112.086.086,0,0,0,.116.025.08.08,0,0,0,.026-.112A.082.082,0,0,0,68.047,37.659Zm-44.862.147a.1.1,0,0,0-.033.011.08.08,0,0,0-.026.112.086.086,0,0,0,.116.025.08.08,0,0,0,.026-.112A.082.082,0,0,0,23.185,37.806Zm3.112.147a.1.1,0,0,0-.033.011.076.076,0,0,0-.031.105.082.082,0,0,1-.038.11.085.085,0,0,0-.033.117.086.086,0,0,0,.116.025.076.076,0,0,0,.031-.105.082.082,0,0,1,.038-.11.085.085,0,0,0,.033-.117A.082.082,0,0,0,26.3,37.953Zm-.334.06a.137.137,0,0,0-.111.2c.039.062.082.061.164,0s.086-.112.031-.165a.106.106,0,0,0-.083-.032Zm-2.514.3a.129.129,0,0,0-.066.016c-.07.042-.057.083.05.158.079.056.136.117.126.135a.184.184,0,0,0-.019.076c0,.023.037.019.081-.007s.051-.081-.009-.151-.06-.1-.026-.1.023-.038-.024-.083a.161.161,0,0,0-.111-.041Zm27.443.08a.1.1,0,0,0-.033.011.08.08,0,0,0-.026.112.086.086,0,0,0,.116.025.08.08,0,0,0,.026-.112A.082.082,0,0,0,50.891,38.393ZM24.3,38.45c-.038.009-.047.073-.045.188,0,.168-.025.2-.171.183-.1-.011-.155.013-.128.055a.39.39,0,0,0,.266.073.4.4,0,0,1,.261.067c.047.074.185.068.32-.014.058-.035,0-.139-.178-.31-.16-.155-.253-.235-.306-.243a.053.053,0,0,0-.019,0Zm5.911.236a.159.159,0,0,0-.085.018c-.051.031-.032.084.057.147.166.117.312.127.377.025.047-.073-.2-.187-.349-.19Zm-5.053.147a.1.1,0,0,0-.033.011.08.08,0,0,0-.026.112.086.086,0,0,0,.116.025.08.08,0,0,0,.026-.112A.082.082,0,0,0,25.158,38.833Zm-.863.282c-.08,0-.151.067-.109.133a.155.155,0,0,0,.111.069c.106,0,.163-.133.078-.183a.145.145,0,0,0-.081-.018Z" transform="translate(-7.052 -4.903)" fill="#4c96ce"/>
        </g>
        <path id="패스_10430" data-name="패스 10430" d="M246.759,130.827a18.921,18.921,0,1,0,18.919,18.923A18.922,18.922,0,0,0,246.759,130.827Zm0,.565A18.355,18.355,0,1,1,228.4,149.75,18.356,18.356,0,0,1,246.759,131.393Z" transform="translate(-139.401 -91.247)" fill="#4c96ce"/>
        <g id="그룹_16028" data-name="그룹 16028" transform="translate(63.869 37.252)">
          <path id="패스_10431" data-name="패스 10431" d="M.348,119.157l4.2,3.284L.6,130.019c-1.978,3.494,1.42,6.9,3.585,8.083,2.131,1.166,5.439,1.305,8.53,1.263l5.563-9.094,4.2,2.273-7.293-13.514-14.834.126Z" transform="translate(0.001 -119.031)" fill="#4c96ce" fill-rule="evenodd"/>
          <path id="패스_10432" data-name="패스 10432" d="M5.28,215.59,14.3,232.262c1.813,2.316,5.233,2.863,8.777,2.779h14.6c-5.063-4.125-4.882-4.816-6.555-7.755-1.6-2.814-1.642-3.611-2.252-8.033l-14.322-.126A11.2,11.2,0,0,1,5.28,215.59Z" transform="translate(-4.313 -197.907)" fill="#4c96ce" fill-rule="evenodd"/>
        </g>
        <g id="그룹_16029" data-name="그룹 16029" transform="translate(73.178 18.817)">
          <path id="패스_10433" data-name="패스 10433" d="M257.924,400.947l-13.565-8.037,7.237-11.153c4.846-4.451,10.759,1.524,13.54,7.438l-7.212,11.752Z" transform="translate(-244.359 -379.575)" fill="#4c96ce" fill-rule="evenodd"/>
          <path id="패스_10434" data-name="패스 10434" d="M324.741,396.734l14.365.126,7.645-12.61-4.517,2.358-3.14-5.778a7.306,7.306,0,0,0-6.315-4.079l-17.328.125c3.7,1.1,6.019,3.9,7.987,7.523l5.3,9.76-4,2.575Z" transform="translate(-302.431 -376.747)" fill="#4c96ce" fill-rule="evenodd"/>
        </g>
      </g>
    </g>
  </g>
</svg>
