<?xml version="1.0" encoding="UTF-8" standalone="no" ?>
<!DOCTYPE svg PUBLIC "-//W3C//DTD SVG 1.1//EN" "http://www.w3.org/Graphics/SVG/1.1/DTD/svg11.dtd">
<svg xmlns="http://www.w3.org/2000/svg" xmlns:xlink="http://www.w3.org/1999/xlink" version="1.1" width="300" height="300" viewBox="0 0 500 500" xml:space="preserve">
<desc>Created with Fabric.js 3.6.3</desc>
<defs>
</defs>
<g transform="matrix(1,0,0,1,250,257.2955307297315)" style=""  ><path fill="#000000" opacity="1" d="M-91.84 5.37L-89.44 5.37L-86.48 1.80L-86.48-6.60L-88.86-6.60L-88.86 0.60L-90.64 2.98L-92.45 0.60L-92.45-6.60L-94.85-6.60L-94.85 0.60L-96.61 2.98L-98.42 0.60L-98.42-6.60L-100.81-6.60L-100.81 1.80L-97.82 5.37L-95.43 5.37L-93.65 3.23Z"/><path fill="#000000" opacity="1" d="M-80.31-0.60L-80.31-1.79L-77.93-4.20L-74.34-4.20L-74.34-0.60ZM-80.31 5.37L-80.31 1.80L-74.34 1.80L-74.34 5.37L-71.97 5.37L-71.97-6.60L-79.13-6.60L-82.70-2.99L-82.70 5.37Z"/><path fill="#000000" opacity="1" d="M-61.77 5.37L-61.77-4.20L-57.62-4.20L-57.62-6.60L-68.36-6.60L-68.36-4.20L-64.17-4.20L-64.17 5.37Z"/><path fill="#000000" opacity="1" d="M-43.85 5.37L-43.85 2.98L-51.62 2.98L-51.62 0.60L-44.45 0.60L-44.45-1.79L-51.62-1.79L-51.62-4.20L-43.85-4.20L-43.85-6.60L-54.01-6.60L-54.01 5.37Z"/><path fill="#000000" opacity="1" d="M-37.51-0.60L-37.51-4.20L-31.54-4.20L-31.54-0.60ZM-29.16 5.37L-29.16 2.98L-30.34 1.80L-29.16 0.60L-29.16-5.38L-30.34-6.60L-39.90-6.60L-39.90 5.37L-37.51 5.37L-37.51 1.80L-33.93 1.80L-32.74 2.98L-31.54 4.19L-31.54 5.37Z"/><path fill="#000000" opacity="1" d=""/><path fill="#000000" opacity="1" d="M-13.40 5.37L-13.40-6.60L-15.79-6.60L-15.79 5.37Z"/><path fill="#000000" opacity="1" d="M1.46 5.37L1.46-6.60L-0.91-6.60L-0.91 1.37L-6.88-6.60L-9.28-6.60L-9.28 5.37L-6.88 5.37L-6.88-2.61L-0.91 5.37Z"/><path fill="#000000" opacity="1" d="M16.32-3.01L12.75-6.60L5.58-6.60L5.58 5.37L15.14 5.37L16.32 4.19ZM13.95 2.98L7.98 2.98L7.98-4.20L11.55-4.20L13.95-1.81Z"/><path fill="#000000" opacity="1" d="M30.43 5.37L30.43 2.98L22.67 2.98L22.67 0.60L29.83 0.60L29.83-1.79L22.67-1.79L22.67-4.20L30.43-4.20L30.43-6.60L20.27-6.60L20.27 5.37Z"/><path fill="#000000" opacity="1" d="M36.60 5.37L36.60 2.98L38.98 0.60L40.18 0.60L42.57 2.98L42.57 5.37L44.95 5.37L44.95 1.80L42.57-0.60L44.95-2.99L44.95-6.60L42.57-6.60L42.57-4.19L40.18-1.79L38.98-1.79L36.60-4.19L36.60-6.60L34.21-6.60L34.21-2.99L36.60-0.60L34.21 1.80L34.21 5.37Z"/><path fill="#000000" opacity="1" d=""/><path fill="#000000" opacity="1" d="M60.54 5.37L60.54-2.70L63.74 1.90L65.74 1.90L68.87-2.70L68.87 5.37L71.26 5.37L71.26-6.60L68.96-6.60L64.71-0.80L60.54-6.60L58.15-6.60L58.15 5.37Z"/><path fill="#000000" opacity="1" d="M77.61-0.60L77.61-1.79L79.99-4.20L83.58-4.20L83.58-0.60ZM77.61 5.37L77.61 1.80L83.58 1.80L83.58 5.37L85.95 5.37L85.95-6.60L78.79-6.60L75.21-2.99L75.21 5.37Z"/><path fill="#000000" opacity="1" d="M92.47-0.60L92.47-4.20L98.44-4.20L98.44-0.60ZM92.47 5.37L92.47 1.80L99.63 1.80L100.81 0.60L100.81-5.38L99.63-6.60L90.07-6.60L90.07 5.37Z"/></g>
<g transform="matrix(1,0,0,1,248.9560851926518,195.8452641816047)" style=""  ><path fill="#1c9aea" opacity="1" d="M-43.52 18.82L-43.52 18.82Q-43.12 17.22-43.37 15.87Q-43.62 14.52-44.12 13.27Q-44.62 12.02-45.27 10.82Q-45.92 9.62-46.22 8.42L-46.22 8.42Q-46.42 8.42-46.37 8.57Q-46.32 8.72-46.27 8.92Q-46.22 9.12-46.22 9.32Q-46.22 9.52-46.52 9.52L-46.52 9.52Q-47.02 8.42-47.67 7.02Q-48.32 5.62-47.82 4.42L-47.82 4.42Q-48.22 4.32-48.52 3.82Q-48.82 3.32-48.92 2.82Q-49.02 2.31-48.82 1.86Q-48.62 1.41-48.02 1.31L-48.02 1.31Q-48.22 0.91-48.47 1.31Q-48.72 1.71-49.22 1.51L-49.22 1.51Q-49.42 0.11-49.72-0.64Q-50.02-1.39-50.22-2.39L-50.22-2.39Q-50.72-0.29-50.27 1.96Q-49.82 4.22-50.42 5.92L-50.42 5.92Q-50.42 6.42-50.22 6.52Q-50.02 6.62-49.72 6.82L-49.72 6.82Q-50.22 7.02-50.32 7.57Q-50.42 8.12-50.62 8.52L-50.62 8.52L-51.32 8.52Q-51.52 6.62-51.62 4.22Q-51.72 1.81-51.32-0.29L-51.32-0.29Q-51.52-0.69-52.22-0.59L-52.22-0.59Q-54.52 5.82-57.17 11.97Q-59.83 18.12-63.13 23.62L-63.13 23.62Q-63.53 23.72-63.63 23.52Q-63.73 23.32-64.13 23.42L-64.13 23.42Q-64.43 24.02-65.03 24.37Q-65.63 24.72-66.33 25.02Q-67.03 25.32-67.63 25.62Q-68.23 25.93-68.63 26.43L-68.63 26.43Q-68.83 27.23-68.53 27.58Q-68.23 27.93-68.23 28.53L-68.23 28.53Q-68.53 28.63-68.68 28.83Q-68.83 29.03-69.23 29.03L-69.23 29.03Q-69.83 29.03-69.83 28.33L-69.83 28.33Q-70.83 28.73-71.43 29.43Q-72.03 30.13-73.13 30.33L-73.13 30.33Q-73.63 29.53-73.78 27.88Q-73.93 26.23-73.33 25.22L-73.33 25.22Q-73.93 24.82-74.38 24.07Q-74.83 23.32-75.18 22.47Q-75.53 21.62-75.68 20.77Q-75.83 19.92-75.63 19.32L-75.63 19.32Q-76.63 19.02-77.03 18.32L-77.03 18.32Q-77.03 18.12-76.88 18.12Q-76.73 18.12-76.73 17.92L-76.73 17.92Q-77.23 16.82-78.23 15.42Q-79.23 14.02-79.83 12.42L-79.83 12.42Q-80.03 11.92-80.03 11.32Q-80.03 10.72-80.23 10.12L-80.23 10.12Q-80.53 9.42-80.93 8.77Q-81.33 8.12-81.68 7.57Q-82.03 7.02-82.08 6.42Q-82.13 5.82-81.63 5.02L-81.63 5.02Q-81.83 4.62-81.93 5.17Q-82.03 5.72-82.54 5.42L-82.54 5.42Q-82.74 4.72-83.14 4.07Q-83.54 3.42-83.34 2.21L-83.34 2.21L-82.74 2.21Q-83.24 1.71-82.89 1.16Q-82.54 0.61-82.13 0.11L-82.13 0.11Q-82.44-0.39-82.59 0.11Q-82.74 0.61-83.24 0.31L-83.24 0.31Q-83.24-0.49-83.39-0.59Q-83.54-0.69-83.34-1.49L-83.34-1.49Q-82.94-1.79-82.74-1.59Q-82.54-1.39-82.34-1.89L-82.34-1.89Q-82.44-2.09-82.59-2.14Q-82.74-2.19-82.74-2.39L-82.74-2.39Q-83.24-2.59-83.24-2.19Q-83.24-1.79-83.74-1.99L-83.74-1.99Q-83.54-2.69-83.99-3.19Q-84.44-3.69-84.14-4.79L-84.14-4.79Q-83.44-4.89-83.14-4.74Q-82.84-4.59-82.34-4.79L-82.34-4.79L-82.34-5.59Q-82.84-5.69-83.04-5.44Q-83.24-5.19-83.54-4.99L-83.54-4.99Q-84.04-4.99-84.44-5.49Q-84.84-5.99-84.99-6.69Q-85.14-7.39-85.09-8.04Q-85.04-8.69-84.54-8.89L-84.54-8.89Q-85.14-8.99-85.19-9.44Q-85.24-9.89-85.84-9.89L-85.84-9.89Q-85.74-10.29-85.84-10.84Q-85.94-11.39-85.99-11.94Q-86.04-12.49-86.04-12.99Q-86.04-13.49-85.54-13.79L-85.54-13.79Q-85.74-14.29-85.99-13.99Q-86.24-13.69-86.54-13.79L-86.54-13.79Q-86.64-15.19-86.94-16.34Q-87.24-17.49-86.94-18.69L-86.94-18.69Q-87.04-19.09-87.64-19.09L-87.64-19.09Q-87.44-19.39-87.29-19.59Q-87.14-19.79-87.24-20.29L-87.24-20.29Q-87.94-19.69-87.94-18.94Q-87.94-18.19-87.74-17.39Q-87.54-16.59-87.34-15.74Q-87.14-14.89-87.44-14.19L-87.44-14.19Q-87.34-13.79-87.24-14.09Q-87.14-14.39-86.94-13.99L-86.94-13.99Q-87.14-13.79-87.34-13.59Q-87.54-13.39-88.04-13.49L-88.04-13.49Q-87.84-14.59-88.14-15.39Q-88.44-16.19-88.04-17.19L-88.04-17.19Q-88.34-17.69-88.44-18.59Q-88.54-19.49-88.59-20.64Q-88.64-21.80-88.69-23.00Q-88.74-24.20-88.84-25.20L-88.84-25.20Q-89.04-25.70-88.69-25.70Q-88.34-25.70-88.34-26.00L-88.34-26.00Q-88.34-26.20-88.49-26.20Q-88.64-26.20-88.64-26.00L-88.64-26.00Q-88.64-28.30-88.44-30.50Q-88.24-32.70-86.94-35.00L-86.94-35.00Q-86.24-35.10-85.89-34.85Q-85.54-34.60-85.34-34.25Q-85.14-33.90-84.94-33.50Q-84.74-33.10-84.34-33.00L-84.34-33.00Q-84.44-32.10-84.09-31.30Q-83.74-30.50-83.34-29.75Q-82.94-29.00-82.69-28.20Q-82.44-27.40-82.54-26.40L-82.54-26.40Q-82.44-26.20-82.34-26.30Q-82.24-26.40-81.93-26.40L-81.93-26.40Q-81.73-24.80-81.33-23.00Q-80.93-21.20-80.48-19.34Q-80.03-17.49-79.53-15.79Q-79.03-14.09-78.63-12.79L-78.63-12.79Q-78.43-12.39-78.73-12.34Q-79.03-12.29-79.03-12.09L-79.03-12.09Q-78.83-12.09-78.63-11.84Q-78.43-11.59-78.33-11.34Q-78.23-11.09-78.28-10.89Q-78.33-10.69-78.63-10.89L-78.63-10.89Q-78.13-9.59-77.53-7.89Q-76.93-6.19-78.03-5.19L-78.03-5.19Q-77.83-4.69-77.53-5.19Q-77.23-5.69-76.83-5.19L-76.83-5.19Q-76.63-4.39-77.03-3.79L-77.03-3.79Q-76.93-3.29-76.78-3.64Q-76.63-3.99-76.33-3.79L-76.33-3.79Q-76.33-2.39-76.13-1.64Q-75.93-0.89-76.73-0.09L-76.73-0.09Q-76.53 0.41-76.33 0.06Q-76.13-0.29-75.63-0.09L-75.63-0.09Q-75.43 0.61-75.58 1.26Q-75.73 1.91-75.13 1.71L-75.13 1.71Q-75.53 2.31-75.28 2.97Q-75.03 3.62-74.73 4.32Q-74.43 5.02-74.38 5.67Q-74.33 6.32-75.13 6.82L-75.13 6.82Q-75.13 7.02-74.73 6.97Q-74.33 6.92-74.13 7.02L-74.13 7.02Q-74.13 8.42-73.88 9.27Q-73.63 10.12-73.13 11.52L-73.13 11.52Q-73.03 12.12-73.93 12.12L-73.93 12.12Q-73.33 12.62-73.03 13.37Q-72.73 14.12-72.58 15.02Q-72.43 15.92-72.28 16.87Q-72.13 17.82-71.73 18.82L-71.73 18.82Q-71.03 15.32-69.98 11.92Q-68.93 8.52-68.03 5.02L-68.03 5.02Q-65.13-0.39-62.43-5.94Q-59.73-11.49-57.12-17.19L-57.12-17.19Q-56.22-17.99-55.52-19.04Q-54.82-20.09-54.17-21.15Q-53.52-22.20-52.82-23.20Q-52.12-24.20-51.12-25.00L-51.12-25.00Q-49.72-27.90-48.37-30.75Q-47.02-33.60-44.92-35.60L-44.92-35.60Q-44.42-35.40-44.62-35.00Q-44.82-34.60-44.32-34.60L-44.32-34.60Q-45.22-33.50-45.72-32.30Q-46.22-31.10-46.52-29.70L-46.52-29.70Q-46.02-29.70-45.82-30.05Q-45.62-30.40-44.92-30.30L-44.92-30.30Q-44.42-29.30-44.87-28.40Q-45.32-27.50-45.52-26.70L-45.52-26.70Q-45.52-26.50-45.02-26.70Q-44.52-26.90-44.12-26.70L-44.12-26.70Q-43.92-26.40-43.82-25.65Q-43.72-24.90-43.52-25.00L-43.52-25.00Q-43.42-24.70-43.32-23.75Q-43.22-22.80-43.07-21.65Q-42.92-20.49-42.67-19.49Q-42.42-18.49-41.92-18.19L-41.92-18.19Q-41.92-16.49-41.52-15.14Q-41.12-13.79-40.62-12.54Q-40.12-11.29-39.57-9.94Q-39.02-8.59-38.82-7.09L-38.82-7.09Q-38.82-6.99-38.62-6.99Q-38.42-6.99-38.22-6.99L-38.22-6.99Q-38.02-4.39-36.82-1.64Q-35.62 1.11-35.32 3.42L-35.32 3.42Q-35.32 3.62-35.11 3.62Q-34.91 3.62-34.71 3.62L-34.71 3.62Q-34.91 4.42-34.81 4.77Q-34.71 5.12-34.51 5.92L-34.51 5.92Q-33.41 4.92-32.91 3.07Q-32.41 1.21-31.91 0.11L-31.91 0.11Q-31.11-2.19-29.86-4.84Q-28.61-7.49-27.81-10.69L-27.81-10.69Q-27.41-10.59-27.41-10.79Q-27.41-10.99-27.01-10.99L-27.01-10.99Q-26.91-13.69-25.21-14.79L-25.21-14.79Q-24.71-17.09-23.71-18.99Q-22.71-20.89-21.31-22.50L-21.31-22.50Q-21.11-23.80-20.81-25.00Q-20.51-26.20-19.41-26.70L-19.41-26.70Q-19.01-29.60-17.46-32.20Q-15.91-34.80-14.51-36.90L-14.51-36.90Q-14.01-36.80-13.81-37.05Q-13.61-37.30-13.11-37.10L-13.11-37.10Q-12.61-36.60-12.71-35.60L-12.71-35.60Q-12.31-35.90-12.06-36.35Q-11.81-36.80-11.45-37.25Q-11.10-37.70-10.70-37.95Q-10.30-38.20-9.60-38.00L-9.60-38.00Q-9.60-37.10-9.90-36.10Q-10.20-35.10-10.60-34.20L-10.60-34.20Q-10.30-33.80-9.95-34.25Q-9.60-34.70-9.00-34.40L-9.00-34.40Q-9.40-29.90-10.50-25.95Q-11.60-22.00-12.71-17.89L-12.71-17.89Q-13.01-16.99-13.16-16.04Q-13.31-15.09-13.51-14.19L-13.51-14.19Q-13.61-13.79-13.91-13.59Q-14.21-13.39-14.31-13.09L-14.31-13.09Q-14.51-12.39-14.31-11.44Q-14.11-10.49-15.11-10.49L-15.11-10.49Q-15.01-9.59-15.16-8.39Q-15.31-7.19-15.66-5.89Q-16.01-4.59-16.41-3.44Q-16.81-2.29-17.11-1.49L-17.11-1.49Q-18.21 2.62-19.16 6.87Q-20.11 11.12-21.41 15.22Q-22.71 19.32-24.46 23.02Q-26.21 26.73-28.81 29.53L-28.81 29.53Q-30.31 29.43-30.96 28.53Q-31.61 27.63-32.11 26.53L-32.11 26.53Q-32.41 26.83-32.26 27.13Q-32.11 27.43-32.61 27.83L-32.61 27.83Q-33.71 27.53-34.06 28.18Q-34.41 28.83-34.61 29.68Q-34.81 30.53-35.11 31.13Q-35.42 31.73-36.52 31.33L-36.52 31.33Q-37.62 28.53-39.17 25.32Q-40.72 22.12-42.12 18.92L-42.12 18.92Q-42.42 19.52-42.37 20.42Q-42.32 21.32-42.72 21.82L-42.72 21.82Q-43.22 22.02-43.62 21.42L-43.62 21.42Q-43.82 21.12-43.92 20.72L-43.92 20.72Q-44.82 18.42-45.27 15.77Q-45.72 13.12-46.22 10.52L-46.22 10.52Q-46.02 10.32-45.72 10.32L-45.72 10.32Q-45.22 12.32-44.77 14.57Q-44.32 16.82-43.52 18.82ZM-18.01-29.00L-18.01-29.00Q-17.01-29.50-15.86-31.00Q-14.71-32.50-14.11-33.60L-14.11-33.60Q-13.91-34.00-13.86-34.65Q-13.81-35.30-14.11-35.80L-14.11-35.80Q-15.21-34.20-16.21-32.55Q-17.21-30.90-18.01-29.00ZM-86.74-30.30L-86.74-30.30Q-86.84-30.90-86.69-31.70Q-86.54-32.50-86.94-32.90L-86.94-32.90Q-87.04-32.60-87.19-32.20Q-87.34-31.80-87.44-31.35Q-87.54-30.90-87.39-30.60Q-87.24-30.30-86.74-30.30ZM-11.50-25.80L-11.50-25.80Q-11.40-26.40-11.15-27.20Q-10.90-28.00-10.65-28.90Q-10.40-29.80-10.30-30.70Q-10.20-31.60-10.40-32.50L-10.40-32.50Q-11.20-31.40-11.60-29.45Q-12.01-27.50-11.50-25.80ZM-47.42-28.30L-47.42-28.30Q-47.12-28.80-47.32-29.10Q-47.52-29.40-47.22-29.90L-47.22-29.90Q-47.82-29.70-47.67-29.15Q-47.52-28.60-47.42-28.30ZM-16.11-25.60L-16.11-25.60Q-15.61-25.60-15.26-25.95Q-14.91-26.30-14.76-26.75Q-14.61-27.20-14.61-27.65Q-14.61-28.10-14.81-28.30L-14.81-28.30Q-15.01-27.50-15.31-26.80Q-15.61-26.10-16.11-25.60ZM-17.31-26.70L-17.31-26.70Q-17.01-26.50-16.76-26.55Q-16.51-26.60-16.36-26.85Q-16.21-27.10-16.26-27.30Q-16.31-27.50-16.61-27.60L-16.61-27.60Q-16.71-27.30-16.96-27.20Q-17.21-27.10-17.31-26.70ZM-82.54-17.39L-82.54-17.39Q-82.84-18.19-82.94-19.09Q-83.04-19.99-83.54-20.49L-83.54-20.49Q-83.34-19.69-83.24-18.74Q-83.14-17.79-82.54-17.39ZM-80.23-6.79L-80.23-6.79Q-80.33-5.99-80.18-5.34Q-80.03-4.69-79.83-4.14Q-79.63-3.59-79.48-3.09Q-79.33-2.59-79.33-1.99L-79.33-1.99Q-79.03-1.79-79.03-1.49Q-79.03-1.19-79.03-0.89Q-79.03-0.59-78.93-0.34Q-78.83-0.09-78.43-0.09L-78.43-0.09Q-79.13-4.39-80.18-8.24Q-81.23-12.09-82.13-15.39L-82.13-15.39Q-81.93-15.29-81.88-15.24Q-81.83-15.19-81.83-15.59L-81.83-15.59Q-82.13-15.69-82.08-16.04Q-82.03-16.39-82.54-16.29L-82.54-16.29Q-82.44-13.99-81.88-11.29Q-81.33-8.59-80.23-6.79ZM-44.52-12.39L-44.52-12.39Q-44.22-12.89-44.37-13.44Q-44.52-13.99-44.92-14.19L-44.92-14.19Q-44.92-13.09-44.52-12.39ZM-53.72-13.59L-53.72-13.59Q-54.72-11.09-55.92-8.74Q-57.12-6.39-58.17-3.99Q-59.23-1.59-60.08 1.01Q-60.93 3.62-61.23 6.42L-61.23 6.42Q-59.33 1.31-57.22-3.44Q-55.12-8.19-53.72-13.59ZM-17.81-11.69L-17.81-11.69Q-18.01-12.19-17.51-12.79Q-17.01-13.39-17.81-13.59L-17.81-13.59Q-17.61-12.79-18.06-12.44Q-18.51-12.09-17.81-11.69ZM-43.52-8.49L-43.52-8.49Q-43.52-7.89-43.72-7.79L-43.72-7.79Q-43.22-7.89-43.17-7.54Q-43.12-7.19-42.72-7.09L-42.72-7.09Q-43.32-9.49-44.52-11.49L-44.52-11.49Q-44.42-11.19-44.32-10.54Q-44.22-9.89-44.17-9.39Q-44.12-8.89-43.97-8.54Q-43.82-8.19-43.52-8.49ZM-18.21-9.29L-18.21-9.29Q-18.51-9.59-18.41-9.84Q-18.31-10.09-18.21-10.39Q-18.11-10.69-18.06-10.94Q-18.01-11.19-18.41-11.49L-18.41-11.49Q-18.51-11.09-18.66-10.24Q-18.81-9.39-18.21-9.29ZM-56.62-10.09L-56.62-10.09Q-56.62-10.29-56.12-10.29L-56.12-10.29Q-56.12-10.99-56.22-10.99L-56.22-10.99Q-56.32-10.79-56.67-10.54Q-57.02-10.29-56.62-10.09ZM-19.81-1.29L-19.81-1.29Q-18.71-2.89-17.71-5.34Q-16.71-7.79-17.11-9.89L-17.11-9.89Q-17.81-7.59-18.41-5.64Q-19.01-3.69-19.81-1.29ZM-21.31-8.49L-21.31-8.49Q-20.81-8.29-20.76-8.89Q-20.71-9.49-21.21-9.59L-21.21-9.59Q-21.01-9.09-21.21-8.99Q-21.41-8.89-21.31-8.49ZM-60.13-6.99L-60.13-6.99Q-60.03-7.49-59.63-7.69Q-59.23-7.89-59.03-8.29L-59.03-8.29Q-59.33-8.29-59.38-8.44Q-59.43-8.59-59.63-8.69L-59.63-8.69Q-59.83-8.39-60.38-7.79Q-60.93-7.19-60.13-6.99ZM-53.52-8.29L-53.52-8.29Q-53.52-7.79-53.12-7.49L-53.12-7.49Q-53.22-7.99-52.97-8.14Q-52.72-8.29-52.72-8.69L-52.72-8.69Q-53.22-8.89-53.22-8.59Q-53.22-8.29-53.52-8.29ZM-21.91-6.79L-21.91-6.79Q-22.91-3.89-24.21-0.49Q-25.51 2.92-26.61 5.92L-26.61 5.92Q-25.31 4.42-24.66 2.26Q-24.01 0.11-23.51-1.89L-23.51-1.89Q-22.51-2.99-22.21-4.84Q-21.91-6.69-21.21-8.19L-21.21-8.19Q-21.41-8.39-21.71-7.84Q-22.01-7.29-21.91-6.79ZM-67.53 17.72L-67.53 17.72Q-65.53 15.42-64.58 12.72Q-63.63 10.02-62.53 7.52L-62.53 7.52Q-62.53 7.32-62.68 7.32Q-62.83 7.32-62.93 7.12L-62.93 7.12Q-61.73 3.62-60.78 0.56Q-59.83-2.49-58.73-5.99L-58.73-5.99Q-58.12-6.09-57.82-6.89Q-57.52-7.69-57.82-8.19L-57.82-8.19Q-60.63-1.79-63.38 4.32Q-66.13 10.42-67.53 17.72ZM-47.42-5.19L-47.42-5.19Q-46.82-5.09-46.52-5.39L-46.52-5.39Q-46.52-5.69-46.62-5.99Q-46.72-6.29-47.22-6.19L-47.22-6.19Q-47.12-5.79-47.32-5.69Q-47.52-5.59-47.42-5.19ZM-54.32-4.59L-54.32-4.59Q-54.12-5.09-53.87-5.29Q-53.62-5.49-54.12-5.99L-54.12-5.99Q-54.02-5.69-54.12-5.54Q-54.22-5.39-54.32-5.24Q-54.42-5.09-54.47-4.94Q-54.52-4.79-54.32-4.59ZM-46.92-4.59L-46.92-4.59Q-46.72-3.89-46.42-2.89Q-46.12-1.89-46.02-1.29L-46.02-1.29Q-45.62-1.09-45.67-1.59Q-45.72-2.09-45.52-2.19L-45.52-2.19Q-45.92-2.19-46.02-2.54Q-46.12-2.89-46.12-3.34Q-46.12-3.79-46.17-4.19Q-46.22-4.59-46.52-4.79L-46.52-4.79Q-46.52-4.49-46.92-4.59ZM-62.23-2.89L-62.23-2.89Q-62.33-3.19-61.88-3.44Q-61.43-3.69-61.93-3.99L-61.93-3.99Q-62.13-3.79-62.38-3.44Q-62.63-3.09-62.23-2.89ZM-48.02-2.69L-48.02-2.69Q-48.22-2.99-48.07-3.49Q-47.92-3.99-48.42-3.79L-48.42-3.79Q-48.42-2.89-48.02-2.69ZM-58.22 11.52L-58.22 11.52Q-57.42 9.72-56.82 7.72Q-56.22 5.72-55.32 4.02L-55.32 4.02Q-55.32 3.22-55.02 2.42Q-54.72 1.61-54.42 0.86Q-54.12 0.11-53.97-0.64Q-53.82-1.39-54.12-1.99L-54.12-1.99Q-54.72-0.19-55.37 1.31Q-56.02 2.82-56.52 4.37Q-57.02 5.92-57.47 7.67Q-57.92 9.42-58.22 11.52ZM-81.93-0.29L-81.93-0.29Q-81.93 0.11-81.88 0.11Q-81.83 0.11-81.68-0.04Q-81.53-0.19-81.28-0.29Q-81.03-0.39-80.73-0.29L-80.73-0.29Q-80.93-1.19-81.18-0.74Q-81.43-0.29-81.93-0.29ZM-22.71 1.11L-22.71 1.11Q-22.71 0.61-22.46 0.36Q-22.21 0.11-22.71-0.09L-22.71-0.09Q-22.71 0.41-23.06 0.66Q-23.41 0.91-22.71 1.11ZM-76.83 4.02L-76.83 4.02Q-77.63 3.32-77.58 2.16Q-77.53 1.01-78.23 0.11L-78.23 0.11Q-78.43 0.41-78.38 1.06Q-78.33 1.71-78.08 2.37Q-77.83 3.02-77.48 3.52Q-77.13 4.02-76.83 4.02ZM-28.01 15.02L-28.01 15.02Q-27.21 14.52-26.81 13.72Q-26.41 12.92-26.11 12.02Q-25.81 11.12-25.46 10.17Q-25.11 9.22-24.51 8.42L-24.51 8.42Q-24.41 6.42-23.71 4.67Q-23.01 2.92-23.31 1.51L-23.31 1.51Q-23.91 3.52-24.66 5.17Q-25.41 6.82-26.16 8.37Q-26.91 9.92-27.46 11.52Q-28.01 13.12-28.01 15.02ZM-81.13 2.62L-81.13 2.62Q-81.33 3.62-80.73 3.62L-80.73 3.62Q-81.03 2.82-80.53 2.82Q-80.03 2.82-80.03 2.21L-80.03 2.21Q-80.53 2.21-80.63 2.47Q-80.73 2.72-81.13 2.62ZM-36.32 4.62L-36.32 4.62Q-35.92 4.22-36.17 3.87Q-36.42 3.52-36.12 3.12L-36.12 3.12Q-36.82 3.02-36.67 3.67Q-36.52 4.32-36.32 4.62ZM-82.54 4.22L-82.54 4.22Q-82.03 4.32-81.83 3.62L-81.83 3.62Q-82.03 3.72-82.08 3.52Q-82.13 3.32-82.34 3.32L-82.34 3.32Q-82.44 3.52-82.64 3.77Q-82.84 4.02-82.54 4.22ZM-27.01 20.02L-27.01 20.02Q-24.41 16.82-22.91 12.52Q-21.41 8.22-20.01 3.82L-20.01 3.82Q-22.01 7.92-23.81 11.87Q-25.61 15.82-27.01 20.02ZM-46.52 4.82L-46.52 4.82Q-46.12 4.72-46.07 4.92Q-46.02 5.12-45.82 5.22L-45.82 5.22Q-46.02 4.72-45.82 4.62Q-45.62 4.52-45.72 4.22L-45.72 4.22Q-45.92 4.22-45.97 4.12Q-46.02 4.02-46.22 4.02L-46.22 4.02Q-46.22 4.52-46.52 4.82ZM-80.93 5.02L-80.93 5.02Q-80.43 5.02-80.23 5.22L-80.23 5.22Q-80.13 4.42-80.73 4.42L-80.73 4.42Q-80.73 4.62-80.93 5.02ZM-35.52 9.92L-35.52 9.92Q-34.81 8.82-35.16 7.22Q-35.52 5.62-36.32 4.82L-36.32 4.82Q-35.92 6.62-35.87 7.67Q-35.82 8.72-35.52 9.92ZM-80.03 6.82L-80.03 6.82Q-79.53 7.02-79.38 6.57Q-79.23 6.12-79.63 5.92L-79.63 5.92Q-79.63 6.22-79.83 6.17Q-80.03 6.12-80.23 5.92L-80.23 5.92Q-80.23 6.22-80.13 6.37Q-80.03 6.52-80.03 6.82ZM-46.72 7.72L-46.72 7.72L-46.02 7.72Q-45.92 7.42-46.12 6.97Q-46.32 6.52-46.52 7.02L-46.52 7.02Q-46.22 7.02-46.27 7.07Q-46.32 7.12-46.42 7.22Q-46.52 7.32-46.67 7.42Q-46.82 7.52-46.72 7.72ZM-79.63 9.72L-79.63 9.72Q-79.43 9.92-79.08 9.87Q-78.73 9.82-78.63 10.12L-78.63 10.12Q-78.43 11.42-77.63 13.57Q-76.83 15.72-75.83 17.22L-75.83 17.22Q-75.83 16.92-75.53 17.02L-75.53 17.02Q-76.43 14.42-77.23 12.12Q-78.03 9.82-79.03 7.02L-79.03 7.02L-79.83 7.02Q-79.63 7.92-79.38 8.32Q-79.13 8.72-79.63 9.72ZM-40.42 13.32L-40.42 13.32Q-40.22 12.62-40.47 11.72Q-40.72 10.82-41.22 10.32L-41.22 10.32Q-41.02 11.12-40.97 11.97Q-40.92 12.82-40.42 13.32ZM-62.73 17.72L-62.73 17.72Q-61.63 16.92-61.28 15.57Q-60.93 14.22-60.13 13.02L-60.13 13.02Q-61.03 14.12-61.73 15.22Q-62.43 16.32-62.73 17.72ZM-33.11 16.22L-33.11 16.22Q-32.41 15.52-32.11 15.07Q-31.81 14.62-31.71 13.32L-31.71 13.32Q-32.51 13.62-32.71 14.42Q-32.91 15.22-33.11 16.22ZM-26.31 21.12L-26.31 21.12Q-26.71 21.52-27.31 21.82Q-27.91 22.12-28.41 22.62L-28.41 22.62Q-29.21 23.62-29.61 24.77Q-30.01 25.93-31.01 26.73L-31.01 26.73Q-30.21 28.13-29.31 27.93Q-28.41 27.73-27.56 26.78Q-26.71 25.82-26.01 24.42Q-25.31 23.02-24.91 22.12L-24.91 22.12Q-24.71 21.62-24.86 21.12Q-25.01 20.62-24.71 20.32L-24.71 20.32Q-24.51 20.12-24.26 20.12Q-24.01 20.12-23.91 19.92L-23.91 19.92Q-23.21 18.52-23.01 17.12Q-22.81 15.72-22.21 14.82L-22.21 14.82Q-22.41 14.82-22.46 14.72Q-22.51 14.62-22.71 14.62L-22.71 14.62Q-23.31 16.52-24.31 18.32Q-25.31 20.12-26.31 21.12ZM-69.23 18.12L-69.23 18.12Q-69.23 17.92-69.03 17.47Q-68.83 17.02-69.23 16.82L-69.23 16.82Q-69.23 17.02-69.43 17.47Q-69.63 17.92-69.23 18.12ZM-29.41 18.92L-29.41 18.92Q-29.31 18.62-29.21 18.07Q-29.11 17.52-29.61 17.92L-29.61 17.92Q-29.31 17.92-29.71 18.37Q-30.11 18.82-29.41 18.92ZM-32.11 21.42L-32.11 21.42Q-32.11 20.72-31.81 19.97Q-31.51 19.22-31.71 18.82L-31.71 18.82Q-31.91 19.22-32.21 20.07Q-32.51 20.92-32.11 21.42ZM-65.13 21.32L-65.13 21.32Q-65.03 20.92-64.53 20.57Q-64.03 20.22-64.53 19.72L-64.53 19.72Q-64.63 20.22-65.23 20.62Q-65.83 21.02-65.13 21.32ZM-66.63 24.22L-66.63 24.22Q-66.33 24.02-65.93 23.72Q-65.53 23.42-65.13 23.12Q-64.73 22.82-64.58 22.47Q-64.43 22.12-64.73 21.82L-64.73 21.82Q-64.93 22.12-65.33 22.42Q-65.73 22.72-66.13 23.02Q-66.53 23.32-66.73 23.62Q-66.93 23.92-66.63 24.22ZM-71.93 28.73L-71.93 28.73Q-71.63 28.33-71.18 28.03Q-70.73 27.73-70.53 27.23L-70.53 27.23Q-71.03 26.73-71.08 25.88Q-71.13 25.02-71.93 24.82L-71.93 24.82Q-72.23 25.12-72.53 25.72Q-72.83 26.33-72.93 26.93Q-73.03 27.53-72.83 28.03Q-72.63 28.53-71.93 28.73Z"/><path fill="#1c9aea" opacity="1" d="M11.91-38.40L11.91-38.40Q11.81-37.90 11.35-37.80Q10.90-37.70 10.60-37.50L10.60-37.50Q10.60-37.00 11.40-37.00L11.40-37.00Q11.50-36.50 11.20-36.45Q10.90-36.40 10.80-36.10L10.80-36.10Q11.70-36.10 12.26-35.85Q12.81-35.60 13.71-35.70L13.71-35.70Q13.91-35.20 13.71-34.40Q13.51-33.60 13.31-33.00L13.31-33.00Q11.50-32.60 10.45-31.65Q9.40-30.70 8.00-30.00L8.00-30.00Q7.80-28.80 8.25-27.30Q8.70-25.80 8.80-25.00L8.80-25.00Q8.80-24.80 8.60-24.75Q8.40-24.70 8.20-24.60L8.20-24.60Q8.80-21.30 7.60-17.89L7.60-17.89Q8.10-17.39 8.05-16.84Q8.00-16.29 7.85-15.74Q7.70-15.19 7.55-14.64Q7.40-14.09 7.80-13.69L7.80-13.69Q7.60-13.49 7.30-13.49Q7.00-13.49 6.50-13.49L6.50-13.49Q6.60-12.99 7.00-13.04Q7.40-13.09 7.40-12.59L7.40-12.59Q7.10-9.69 6.75-6.69Q6.40-3.69 6.20-0.19L6.20-0.19Q6.30 0.31 5.95 0.41Q5.60 0.51 5.60 0.91L5.60 0.91Q5.80 1.11 5.85 1.51Q5.90 1.91 6.00 2.31L6.00 2.31Q5.50 2.52 5.30 2.97Q5.10 3.42 4.60 3.72L4.60 3.72Q4.70 4.12 5.15 3.77Q5.60 3.42 5.80 3.92L5.80 3.92Q5.00 4.52 5.10 5.52Q5.20 6.52 4.60 6.92L4.60 6.92Q5.00 6.92 5.10 7.32Q5.20 7.72 5.05 8.32Q4.90 8.92 4.65 9.47Q4.40 10.02 4.20 10.22L4.20 10.22Q4.70 10.42 4.45 11.07Q4.20 11.72 4.00 12.12L4.00 12.12Q3.50 12.22 2.90 12.02L2.90 12.02Q2.50 12.22 2.45 12.82Q2.40 13.42 2.40 14.12L2.40 14.12Q3.10 14.12 3.00 13.37Q2.90 12.62 3.30 12.32L3.30 12.32Q3.70 12.52 3.70 13.17Q3.70 13.82 3.50 14.62Q3.30 15.42 2.95 16.12Q2.60 16.82 2.40 17.22L2.40 17.22Q3.00 17.42 3.95 17.22Q4.90 17.02 5.85 17.02Q6.80 17.02 7.50 17.32Q8.20 17.62 8.20 18.62L8.20 18.62Q8.80 18.62 9.65 18.52Q10.50 18.42 11.35 18.42Q12.21 18.42 13.01 18.57Q13.81 18.72 14.21 19.22L14.21 19.22Q13.91 20.32 13.11 20.87Q12.31 21.42 11.35 21.87Q10.40 22.32 9.50 22.82Q8.60 23.32 8.20 24.32L8.20 24.32Q7.30 24.22 6.85 24.57Q6.40 24.92 6.20 25.42L6.20 25.42Q5.40 26.33 4.10 26.58Q2.80 26.83 1.45 27.13Q0.10 27.43-0.95 28.03Q-2.00 28.63-2.10 30.13L-2.10 30.13Q-2.60 30.03-2.60 30.63Q-2.60 31.23-3.10 31.33L-3.10 31.33Q-3.70 31.03-4.00 30.48Q-4.30 29.93-5.10 29.73L-5.10 29.73Q-7.00 30.83-8.50 31.08Q-10.00 31.33-12.51 31.53L-12.51 31.53Q-12.71 31.33-12.86 30.98Q-13.01 30.63-13.21 30.33L-13.21 30.33Q-14.31 30.43-15.16 30.33Q-16.01 30.23-16.61 29.73L-16.61 29.73Q-16.11 28.43-14.41 27.93L-14.41 27.93Q-14.01 27.03-13.21 26.58Q-12.41 26.13-11.50 25.72Q-10.60 25.32-9.80 24.82Q-9.00 24.32-8.70 23.42L-8.70 23.42Q-7.90 22.92-7.50 22.57Q-7.10 22.22-6.10 21.82L-6.10 21.82Q-5.60 20.62-5.50 19.82Q-5.40 19.02-5.50 17.42L-5.50 17.42Q-5.60 17.02-5.35 17.02Q-5.10 17.02-4.90 16.82L-4.90 16.82Q-5.10 16.62-5.20 16.32Q-5.30 16.02-5.50 15.82L-5.50 15.82Q-4.90 12.12-4.60 8.12Q-4.30 4.12-4.50 0.31L-4.50 0.31Q-4.00-0.59-3.90-1.74Q-3.80-2.89-3.80-4.04Q-3.80-5.19-3.75-6.19Q-3.70-7.19-3.10-7.79L-3.10-7.79Q-3.50-7.89-3.50-8.19Q-3.50-8.49-3.45-8.79Q-3.40-9.09-3.40-9.34Q-3.40-9.59-3.70-9.59L-3.70-9.59Q-3.70-9.89-3.35-9.89Q-3.00-9.89-2.80-10.09L-2.80-10.09Q-3.10-10.49-3.15-10.54Q-3.20-10.59-2.50-10.79L-2.50-10.79Q-2.60-11.19-3.00-11.09Q-3.40-10.99-3.30-11.49L-3.30-11.49Q-2.90-11.99-2.95-13.19Q-3.00-14.39-2.10-14.89L-2.10-14.89Q-2.30-16.09-2.15-17.49Q-2.00-18.89-1.65-20.29Q-1.30-21.70-0.85-23.10Q-0.40-24.50-0.10-25.70L-0.10-25.70Q-0.50-25.90-1.15-25.75Q-1.80-25.60-2.50-25.45Q-3.20-25.30-3.80-25.40Q-4.40-25.50-4.70-26.20L-4.70-26.20Q-3.20-26.20-1.60-26.55Q0.00-26.90 0.80-28.00L0.80-28.00Q0.60-28.50-0.35-28.35Q-1.30-28.20-2.10-28.40L-2.10-28.40Q-2.60-27.90-2.90-27.35Q-3.20-26.80-4.30-26.90L-4.30-26.90Q-3.10-29.00-1.20-30.20L-1.20-30.20Q-1.50-30.50-1.95-30.65Q-2.40-30.80-2.95-30.85Q-3.50-30.90-4.05-31.00Q-4.60-31.10-4.90-31.40L-4.90-31.40Q-4.90-32.50-4.25-32.75Q-3.60-33.00-3.10-33.60L-3.10-33.60Q-3.50-34.00-4.35-33.85Q-5.20-33.70-5.50-34.20L-5.50-34.20Q-4.70-35.20-3.55-35.55Q-2.40-35.90-0.90-36.10L-0.90-36.10Q0.20-36.20 0.95-36.80Q1.70-37.40 2.80-37.90L2.80-37.90Q3.70-38.30 5.05-38.75Q6.40-39.20 7.75-39.40Q9.10-39.60 10.25-39.45Q11.40-39.30 11.91-38.40ZM2.80-36.80L2.80-36.80Q5.20-36.60 7.05-36.95Q8.90-37.30 10.10-38.40L10.10-38.40Q8.40-38.40 6.10-37.95Q3.80-37.50 2.80-36.80ZM-3.10-35.00L-3.10-35.00Q-2.50-35.20-1.65-35.05Q-0.80-34.90-0.90-35.70L-0.90-35.70Q-1.50-35.60-2.10-35.45Q-2.70-35.30-3.10-35.00ZM9.00-35.00L9.00-35.00Q8.50-34.90 7.85-35.05Q7.20-35.20 7.00-34.80L7.00-34.80Q7.30-34.70 8.15-34.55Q9.00-34.40 9.00-35.00ZM-1.70-32.00L-1.70-32.00Q-0.50-31.90 0.35-32.15Q1.20-32.40 2.00-32.60L2.00-32.60Q1.80-33.40 2.30-33.90Q2.80-34.40 3.30-34.80L3.30-34.80Q1.60-34.60 0.65-33.60Q-0.30-32.60-1.70-32.00ZM4.90-33.80L4.90-33.80Q5.00-34.10 5.55-34.00Q6.10-33.90 6.20-34.20L6.20-34.20Q6.20-34.70 5.95-34.75Q5.70-34.80 5.40-34.65Q5.10-34.50 4.90-34.20Q4.70-33.90 4.90-33.80ZM-0.70-29.40L-0.70-29.40Q0.40-29.10 1.30-29.40L1.30-29.40Q1.10-30.30 0.45-30.10Q-0.20-29.90-0.70-29.40ZM-0.10-19.29L-0.10-19.29Q0.20-19.79 0.65-19.44Q1.10-19.09 1.10-19.69L1.10-19.69Q0.70-19.59 0.70-19.89Q0.70-20.19 0.60-20.49L0.60-20.49Q1.50-20.99 1.50-21.75Q1.50-22.50 2.20-23.10L2.20-23.10Q1.60-23.10 1.50-23.30L1.50-23.30Q2.70-23.60 2.70-24.55Q2.70-25.50 3.30-26.40L3.30-26.40Q2.90-26.30 3.00-26.80Q3.10-27.30 2.60-27.10L2.60-27.10Q1.70-25.50 1.05-23.35Q0.40-21.20-0.10-19.29ZM3.60-19.49L3.60-19.49Q4.00-19.09 4.05-19.44Q4.10-19.79 4.60-19.69L4.60-19.69Q4.60-20.09 4.55-20.44Q4.50-20.79 4.00-20.69L4.00-20.69Q3.90-20.39 3.70-20.19Q3.50-19.99 3.60-19.49ZM-0.10-12.19L-0.10-12.19Q0.30-11.59-0.10-10.79L-0.10-10.79Q0.20-10.79 0.60-10.59L0.60-10.59Q0.50-11.39 0.80-11.89Q1.10-12.39 0.60-13.09L0.60-13.09Q0.60-12.09-0.10-12.19ZM-0.30-8.39L-0.30-8.39Q-0.40-9.19-0.10-9.49Q0.20-9.79 0.60-10.09L0.60-10.09Q-0.20-10.39-0.50-9.54Q-0.80-8.69-0.30-8.39ZM-1.20-6.19L-1.20-6.19Q-0.10-6.29-0.10-7.99L-0.10-7.99Q-0.30-8.09-0.40-8.19Q-0.50-8.29-0.70-8.29L-0.70-8.29Q-0.70-7.49-1.05-7.24Q-1.40-6.99-1.20-6.19ZM-0.30 4.92L-0.30 4.92Q0.20 4.92 0.80 4.72L0.80 4.72Q0.20 3.62 0.80 3.22Q1.40 2.82 2.00 2.52L2.00 2.52Q2.00 2.21 1.50 2.42Q1.00 2.62 1.00 2.11L1.00 2.11Q1.00 1.61 1.70 1.21L1.70 1.21Q1.90 0.71 1.45 0.81Q1.00 0.91 1.10 0.51L1.10 0.51Q1.20 0.31 1.45 0.31Q1.70 0.31 1.90 0.31Q2.10 0.31 2.30 0.21Q2.50 0.11 2.40-0.19L2.40-0.19Q2.10-0.39 1.90-0.04Q1.70 0.31 1.50-0.19L1.50-0.19Q1.80-0.69 1.95-1.29Q2.10-1.89 2.60-2.19L2.60-2.19Q2.50-3.19 2.55-3.69Q2.60-4.19 2.65-4.64Q2.70-5.09 2.85-5.64Q3.00-6.19 3.10-7.19L3.10-7.19Q2.80-7.29 2.75-7.04Q2.70-6.79 2.20-6.99L2.20-6.99Q2.50-5.69 1.30-5.39L1.30-5.39Q1.70-5.39 1.75-5.19Q1.80-4.99 1.80-4.79Q1.80-4.59 1.85-4.29Q1.90-3.99 2.20-3.79L2.20-3.79Q2.10-3.19 1.30-3.39L1.30-3.39Q1.60-2.79 1.35-2.64Q1.10-2.49 1.30-1.79L1.30-1.79Q0.90-1.69 0.80-1.19Q0.70-0.69 0.65-0.04Q0.60 0.61 0.50 1.31Q0.40 2.01 0.10 2.52L0.10 2.52Q0.10 2.31 0.10 2.11Q0.10 1.91-0.10 1.91L-0.10 1.91Q0.40 2.72 0.15 3.32Q-0.10 3.92-0.30 4.92ZM0.60-4.69L0.60-3.99Q1.00-3.99 1.15-4.24Q1.30-4.49 1.50-4.69L1.50-4.69L0.60-4.69ZM1.50 5.52L1.50 5.52Q1.40 5.22 1.55 4.72Q1.70 4.22 1.30 4.12L1.30 4.12Q1.10 4.62 0.95 4.97Q0.80 5.32 1.50 5.52ZM3.80 7.32L3.80 7.32Q4.20 7.42 4.35 6.77Q4.50 6.12 4.20 5.92L4.20 5.92Q4.00 6.32 3.80 7.32ZM-0.10 8.22L-0.10 8.22Q-0.30 8.62 0.40 8.62Q1.10 8.62 1.10 8.42L1.10 8.42Q0.90 8.22 0.55 8.07Q0.20 7.92-0.10 8.22ZM3.60 10.32L3.60 10.32Q3.80 10.02 3.75 9.37Q3.70 8.72 4.20 8.52L4.20 8.52Q3.60 8.72 3.80 8.32Q4.00 7.92 3.60 7.92L3.60 7.92Q3.70 8.32 3.60 8.67Q3.50 9.02 3.35 9.32Q3.20 9.62 3.20 9.92Q3.20 10.22 3.60 10.32ZM-1.50 9.52L-1.50 9.52L-1.50 10.02Q-1.30 10.02-1.25 10.07Q-1.20 10.12-1.00 10.22L-1.00 10.22Q-1.10 9.72-0.70 9.82Q-0.30 9.92-0.30 9.52L-0.30 9.52Q-0.80 9.72-1.00 9.47Q-1.20 9.22-1.50 9.52ZM3.80 10.72L3.80 10.72Q3.50 10.72 3.10 10.52L3.10 10.52Q2.60 11.62 3.05 11.67Q3.50 11.72 3.80 10.72ZM1.70 19.62L1.70 19.62Q3.00 19.52 3.75 18.97Q4.50 18.42 5.60 18.22L5.60 18.22Q4.30 18.32 3.20 18.47Q2.10 18.62 1.70 19.62ZM4.20 19.82L4.20 19.82Q4.80 19.52 5.80 19.47Q6.80 19.42 6.80 18.42L6.80 18.42Q5.90 18.62 5.25 18.87Q4.60 19.12 4.20 19.82ZM7.80 20.22L7.80 20.22Q8.90 20.02 9.60 20.27Q10.30 20.52 10.80 20.82L10.80 20.82Q11.10 20.42 11.65 20.27Q12.21 20.12 12.41 19.62L12.41 19.62Q11.10 19.62 9.85 19.67Q8.60 19.72 7.80 20.22ZM6.00 21.62L6.00 21.62Q6.80 21.92 7.55 22.07Q8.30 22.22 8.80 21.42L8.80 21.42Q8.00 21.32 7.25 21.32Q6.50 21.32 6.00 21.62ZM2.60 23.22L2.60 23.22Q3.20 23.22 3.80 23.17Q4.40 23.12 4.70 22.92L4.70 22.92Q4.10 22.92 3.45 22.92Q2.80 22.92 2.60 23.22ZM-14.61 29.13L-14.61 29.13Q-13.61 29.03-12.56 29.08Q-11.50 29.13-11.20 28.53L-11.20 28.53Q-11.50 28.53-12.01 28.43Q-12.51 28.33-13.06 28.33Q-13.61 28.33-14.06 28.48Q-14.51 28.63-14.61 29.13ZM-11.40 30.53L-11.40 30.53Q-10.10 30.33-8.90 30.08Q-7.70 29.83-6.70 29.33L-6.70 29.33Q-7.90 29.63-9.30 29.68Q-10.70 29.73-11.40 30.53Z"/><path fill="#1c9aea" opacity="1" d="M44.82 13.62L44.82 13.62Q45.02 13.42 44.97 13.02Q44.92 12.62 44.82 12.12L44.82 12.12Q44.32 12.02 44.37 12.52Q44.42 13.02 44.12 13.22L44.12 13.22Q43.92 12.92 44.02 12.52Q44.12 12.12 43.42 12.12L43.42 12.12Q43.42 11.82 43.62 11.67Q43.82 11.52 43.72 11.22L43.72 11.22Q43.42 11.22 43.17 10.77Q42.92 10.32 42.72 9.67Q42.52 9.02 42.57 8.47Q42.62 7.92 42.92 7.72L42.92 7.72Q42.12 7.82 42.17 7.32Q42.22 6.82 41.42 6.62L41.42 6.62Q41.42 5.72 41.22 5.22Q41.02 4.72 40.82 4.27Q40.62 3.82 40.37 3.32Q40.12 2.82 40.12 2.01L40.12 2.01Q40.02 1.61 39.87 1.66Q39.72 1.71 39.52 1.81L39.52 1.81Q39.02 0.11 38.62-0.84Q38.22-1.79 37.42-3.09L37.42-3.09Q37.92-3.09 37.57-3.84Q37.22-4.59 36.72-4.69L36.72-4.69Q36.52-6.29 35.97-7.89Q35.42-9.49 34.81-11.04Q34.21-12.59 33.71-14.04Q33.21-15.49 33.11-16.89L33.11-16.89Q33.01-17.09 32.51-17.29L32.51-17.29Q32.21-16.19 31.86-14.49Q31.51-12.79 32.01-11.39L32.01-11.39Q31.31-10.59 31.61-9.54Q31.91-8.49 31.31-7.99L31.31-7.99Q31.41-6.39 31.21-4.44Q31.01-2.49 30.66-0.49Q30.31 1.51 30.01 3.42Q29.71 5.32 29.71 6.62L29.71 6.62Q29.21 7.52 29.06 8.42Q28.91 9.32 28.81 10.22Q28.71 11.12 28.51 12.02Q28.31 12.92 27.71 13.72L27.71 13.72Q27.51 15.92 26.91 17.87Q26.31 19.82 25.51 21.62Q24.71 23.42 23.86 25.22Q23.01 27.03 22.31 28.93L22.31 28.93Q21.51 29.13 21.11 28.93Q20.71 28.73 20.46 28.28Q20.21 27.83 20.06 27.33Q19.91 26.83 19.61 26.53L19.61 26.53Q19.81 25.22 19.46 23.97Q19.11 22.72 19.01 21.52L19.01 21.52Q19.01 21.42 19.21 21.22L19.21 21.22Q19.31 21.12 19.41 21.12L19.41 21.12Q19.31 20.92 19.16 20.77Q19.01 20.62 18.91 20.42L18.91 20.42Q18.51 19.42 18.76 18.22Q19.01 17.02 19.01 16.22L19.01 16.22Q19.01 15.92 18.76 15.62Q18.51 15.32 18.51 14.92L18.51 14.92Q18.51 14.72 18.66 14.67Q18.81 14.62 18.91 14.22L18.91 14.22Q19.01 13.62 18.76 12.82Q18.51 12.02 18.51 11.32L18.51 11.32Q18.51 9.52 18.71 7.77Q18.91 6.02 18.71 4.32L18.71 4.32Q18.61 3.92 18.86 3.62Q19.11 3.32 19.21 2.82L19.21 2.82Q19.31 2.01 19.06 1.06Q18.81 0.11 19.61-0.59L19.61-0.59Q19.41-0.99 19.46-1.14Q19.51-1.29 19.21-1.79L19.21-1.79Q19.71-3.99 20.01-5.84Q20.31-7.69 20.56-9.39Q20.81-11.09 21.16-12.79Q21.51-14.49 22.31-16.49L22.31-16.49Q22.31-16.69 22.11-16.64Q21.91-16.59 21.71-16.69L21.71-16.69Q22.41-17.79 22.86-19.29Q23.31-20.79 23.71-22.35Q24.11-23.90 24.56-25.30Q25.01-26.70 25.91-27.80L25.91-27.80Q26.41-30.30 27.56-32.30Q28.71-34.30 30.01-36.30L30.01-36.30Q30.71-36.20 30.91-35.90Q31.11-35.60 31.01-35.20Q30.91-34.80 30.81-34.25Q30.71-33.70 30.81-33.20L30.81-33.20Q31.31-33.20 31.51-33.50Q31.71-33.80 32.21-33.80L32.21-33.80Q32.41-34.60 32.11-34.75Q31.81-34.90 31.71-35.40L31.71-35.40Q32.21-36.20 33.11-35.85Q34.01-35.50 33.81-34.30L33.81-34.30Q35.01-33.60 35.87-32.55Q36.72-31.50 37.32-30.20Q37.92-28.90 38.42-27.60Q38.92-26.30 39.52-25.10L39.52-25.10Q39.52-24.90 39.67-24.95Q39.82-25.00 39.92-24.90L39.92-24.90Q39.92-24.30 40.12-23.85Q40.32-23.40 40.62-23.00Q40.92-22.60 41.12-22.20Q41.32-21.80 41.22-21.30L41.22-21.30Q44.72-14.69 47.12-8.19Q49.52-1.69 52.02 5.62L52.02 5.62Q52.62 5.42 52.77 4.87Q52.92 4.32 52.82 3.82L52.82 3.82Q54.72-0.69 56.17-5.54Q57.62-10.39 59.43-14.39L59.43-14.39Q59.63-14.89 60.03-15.29Q60.43-15.69 60.23-16.49L60.23-16.49Q62.93-20.99 65.63-26.25Q68.33-31.50 71.23-35.40L71.23-35.40Q71.53-35.40 71.93-35.40Q72.33-35.40 72.53-35.60L72.53-35.60Q72.93-37.20 74.83-37.70L74.83-37.70Q75.33-37.70 75.38-37.25Q75.43-36.80 75.93-36.60L75.93-36.60Q76.13-36.10 75.78-36.20Q75.43-36.30 75.53-35.80L75.53-35.80Q75.63-35.40 76.08-35.55Q76.53-35.70 76.83-35.60L76.83-35.60Q77.73-32.30 78.43-28.55Q79.13-24.80 79.68-20.89Q80.23-16.99 80.63-13.19Q81.03-9.39 81.53-6.09L81.53-6.09Q81.63-5.49 81.78-4.79Q81.93-4.09 82.44-3.59L82.44-3.59Q82.44-3.29 81.83-3.29L81.83-3.29Q82.34-2.99 82.44-2.44Q82.54-1.89 82.64-1.29Q82.74-0.69 82.89-0.19Q83.04 0.31 83.54 0.51L83.54 0.51Q83.24 0.81 83.29 1.16Q83.34 1.51 83.44 1.96Q83.54 2.42 83.59 2.77Q83.64 3.12 83.34 3.42L83.34 3.42Q83.34 3.62 83.54 3.62Q83.74 3.62 83.84 3.62L83.84 3.62Q84.44 6.62 84.79 9.12Q85.14 11.62 85.44 13.92Q85.74 16.22 86.04 18.52Q86.34 20.82 86.94 23.32L86.94 23.32Q86.44 23.12 86.59 23.47Q86.74 23.82 86.24 23.62L86.24 23.62Q85.84 23.52 85.89 23.07Q85.94 22.62 85.54 22.52L85.54 22.52Q85.14 23.72 84.84 24.87Q84.54 26.03 83.74 26.73L83.74 26.73Q83.14 26.93 83.14 26.13L83.14 26.13Q82.74 26.93 82.79 27.58Q82.84 28.23 83.04 28.88Q83.24 29.53 83.34 30.13Q83.44 30.73 83.14 31.43L83.14 31.43Q83.04 31.33 82.84 31.28Q82.64 31.23 82.54 31.43L82.54 31.43Q82.03 29.53 81.58 27.58Q81.13 25.62 80.63 23.62L80.63 23.62L79.73 23.62Q78.93 22.52 78.53 21.32Q78.13 20.12 77.23 18.92L77.23 18.92Q77.43 18.72 77.48 18.57Q77.53 18.42 77.73 18.22L77.73 18.22Q77.03 17.82 76.78 17.07Q76.53 16.32 76.33 15.52Q76.13 14.72 75.83 14.07Q75.53 13.42 74.83 13.22L74.83 13.22Q74.53 11.82 74.23 10.87Q73.93 9.92 74.03 8.52L74.03 8.52Q73.93 8.32 73.43 8.32L73.43 8.32Q73.23 7.72 74.03 7.72L74.03 7.72Q73.53 7.62 73.43 7.17Q73.33 6.72 73.33 6.17Q73.33 5.62 73.28 5.17Q73.23 4.72 72.73 4.52L72.73 4.52Q72.93 3.42 72.68 2.26Q72.43 1.11 72.13-0.04Q71.83-1.19 71.63-2.34Q71.43-3.49 71.73-4.69L71.73-4.69Q71.23-4.89 70.98-5.49Q70.73-6.09 71.23-6.29L71.23-6.29Q70.63-6.69 70.53-7.44Q70.43-8.19 70.48-8.94Q70.53-9.69 70.48-10.24Q70.43-10.79 70.03-10.79L70.03-10.79Q70.43-11.19 70.28-11.59Q70.13-11.99 70.23-12.69L70.23-12.69Q69.83-12.69 69.68-12.39Q69.53-12.09 69.43-11.74Q69.33-11.39 69.23-11.09Q69.13-10.79 68.73-10.79L68.73-10.79Q68.83-9.39 68.28-7.89Q67.73-6.39 67.03-5.19L67.03-5.19Q65.83-0.19 63.78 4.67Q61.73 9.52 59.33 13.92L59.33 13.92L59.33 14.92Q58.42 16.32 57.72 18.02Q57.02 19.72 56.27 21.32Q55.52 22.92 54.52 24.27Q53.52 25.62 52.02 26.53L52.02 26.53Q51.52 25.82 51.22 25.12Q50.92 24.42 51.12 23.32L51.12 23.32Q50.02 22.82 49.47 21.57Q48.92 20.32 49.42 18.62L49.42 18.62Q49.22 18.42 48.57 18.42Q47.92 18.42 47.72 18.62L47.72 18.62Q47.32 18.42 47.32 17.97Q47.32 17.52 47.12 17.22L47.12 17.22Q46.62 17.02 46.72 17.52Q46.82 18.02 46.32 18.02L46.32 18.02Q45.82 17.82 45.67 17.37Q45.52 16.92 45.42 16.42Q45.32 15.92 45.12 15.47Q44.92 15.02 44.52 14.82L44.52 14.82Q44.62 14.52 44.82 14.42Q45.02 14.32 45.22 14.12L45.22 14.12Q45.02 13.62 44.62 13.77Q44.22 13.92 44.12 13.42L44.12 13.42Q44.52 13.32 44.62 13.22Q44.72 13.12 44.82 13.62ZM38.02-15.59L38.02-15.59Q38.52-16.09 37.97-16.44Q37.42-16.79 37.42-17.29L37.42-17.29Q37.62-17.29 37.62-17.39Q37.62-17.49 37.82-17.49L37.82-17.49Q38.32-17.49 38.22-16.94Q38.12-16.39 38.62-16.49L38.62-16.49Q38.62-16.79 38.57-17.24Q38.52-17.69 38.72-17.89L38.72-17.89Q38.32-18.09 38.22-18.19L38.22-18.19Q38.32-20.79 37.32-23.55Q36.32-26.30 34.61-28.30L34.61-28.30Q34.61-26.60 34.96-24.95Q35.32-23.30 36.32-22.20L36.32-22.20Q36.42-21.40 36.67-20.54Q36.92-19.69 37.42-19.29L37.42-19.29Q37.22-19.09 37.37-18.79Q37.52-18.49 37.62-18.19L37.62-18.19Q37.42-18.09 37.17-18.04Q36.92-17.99 36.92-17.69L36.92-17.69Q37.02-17.19 37.17-17.64Q37.32-18.09 37.42-17.69L37.42-17.69Q37.32-17.39 37.02-17.39Q36.72-17.39 36.92-16.89L36.92-16.89Q37.72-14.89 38.77-12.84Q39.82-10.79 40.12-8.69L40.12-8.69Q40.82-8.79 40.77-8.39Q40.72-7.99 41.22-8.19L41.22-8.19Q40.42-9.99 39.92-11.99Q39.42-13.99 38.02-15.59ZM78.63-18.09L78.63-18.09Q78.73-16.39 78.93-15.29Q79.13-14.19 79.73-12.49L79.73-12.49L79.73-11.19Q80.03-11.29 79.93-11.74Q79.83-12.19 79.93-12.49L79.93-12.49Q79.43-15.09 79.28-17.79Q79.13-20.49 78.83-23.70L78.83-23.70Q78.13-24.40 77.98-25.45Q77.83-26.50 77.78-27.65Q77.73-28.80 77.53-29.90Q77.33-31.00 76.63-31.80L76.63-31.80Q76.53-30.30 76.78-28.65Q77.03-27.00 77.33-25.30Q77.63-23.60 77.83-21.95Q78.03-20.29 77.93-18.99L77.93-18.99Q78.53-18.89 78.33-18.59Q78.13-18.29 78.63-18.09ZM31.21-30.00L31.21-30.00Q31.61-29.80 31.71-30.50Q31.81-31.20 31.31-31.10L31.31-31.10Q31.31-30.20 31.21-30.00ZM65.63-15.39L65.63-15.39Q66.03-13.49 65.28-12.04Q64.53-10.59 64.33-8.69L64.33-8.69Q65.13-8.79 65.13-9.44Q65.13-10.09 65.33-10.69L65.33-10.69Q65.83-12.09 66.48-13.34Q67.13-14.59 67.63-15.89L67.63-15.89Q67.83-17.69 68.43-19.14Q69.03-20.59 69.13-22.60L69.13-22.60Q69.03-22.80 68.73-22.80L68.73-22.80Q67.63-21.09 67.18-18.94Q66.73-16.79 65.63-15.39ZM40.92-20.49L40.92-20.49Q40.82-21.30 39.92-21.80L39.92-21.80Q40.12-21.40 40.27-20.94Q40.42-20.49 40.92-20.49ZM34.61-17.69L34.61-17.69Q35.11-17.69 35.32-18.39L35.32-18.39Q35.11-18.39 35.06-18.54Q35.01-18.69 34.81-18.59L34.81-18.59Q34.91-18.19 34.71-18.09Q34.51-17.99 34.61-17.69ZM71.23-16.09L71.23-16.09Q71.03-16.59 71.18-17.04Q71.33-17.49 71.03-17.29L71.03-17.29Q70.93-16.99 70.83-16.59Q70.73-16.19 71.23-16.09ZM75.73-15.89L75.73-15.89Q75.63-16.29 75.93-16.69Q76.23-17.09 75.53-17.09L75.53-17.09Q75.63-16.89 75.53-16.44Q75.43-15.99 75.73-15.89ZM35.52-15.69L35.52-15.69Q35.82-15.99 35.62-16.39Q35.42-16.79 35.11-16.89L35.11-16.89Q35.11-16.09 35.52-15.69ZM40.72-11.39L40.72-11.39Q43.22-6.59 44.82-1.29L44.82-1.29Q45.52-0.69 45.97 0.21Q46.42 1.11 46.32 2.01L46.32 2.01Q46.62 2.01 46.77 2.21Q46.92 2.42 47.07 2.67Q47.22 2.92 47.37 3.07Q47.52 3.22 47.72 3.02L47.72 3.02Q47.22 1.51 46.67 0.36Q46.12-0.79 46.12-2.49L46.12-2.49Q45.62-2.29 45.62-2.74Q45.62-3.19 45.22-3.29L45.22-3.29Q45.02-4.69 44.47-6.09Q43.92-7.49 43.27-8.89Q42.62-10.29 42.02-11.69Q41.42-13.09 41.22-14.59L41.22-14.59Q40.62-14.99 40.52-15.79Q40.42-16.59 39.82-16.89L39.82-16.89Q39.72-16.09 39.92-15.29Q40.12-14.49 40.32-13.84Q40.52-13.19 40.67-12.54Q40.82-11.89 40.72-11.39ZM42.72-15.69L42.72-15.69Q42.62-15.49 42.42-15.49Q42.22-15.49 42.32-15.19L42.32-15.19Q43.12-14.99 42.92-14.34Q42.72-13.69 43.52-13.19L43.52-13.19Q43.52-12.29 43.87-11.34Q44.22-10.39 44.67-9.49Q45.12-8.59 45.52-7.69Q45.92-6.79 45.82-5.79L45.82-5.79Q46.22-5.79 46.32-5.59L46.32-5.59Q46.42-4.39 46.87-3.09Q47.32-1.79 47.77-0.39Q48.22 1.01 48.62 2.42Q49.02 3.82 49.02 5.12L49.02 5.12Q49.82 5.72 50.12 7.02Q50.42 8.32 50.12 9.42L50.12 9.42Q50.42 9.62 50.52 9.52Q50.62 9.42 50.82 9.82L50.82 9.82Q50.92 7.62 50.57 5.57Q50.22 3.52 49.62 1.51Q49.02-0.49 48.32-2.54Q47.62-4.59 47.12-6.69L47.12-6.69Q46.32-6.59 46.32-7.04Q46.32-7.49 46.52-7.99L46.52-7.99Q45.92-8.19 45.82-8.94Q45.72-9.69 45.22-9.49L45.22-9.49Q45.42-10.39 44.97-11.39Q44.52-12.39 43.72-12.89L43.72-12.89Q43.72-13.69 43.32-14.89Q42.92-16.09 42.22-16.89L42.22-16.89Q41.92-16.19 42.72-15.69ZM74.83-3.99L74.83-3.99Q75.23-3.99 75.33-4.34Q75.43-4.69 75.43-5.14Q75.43-5.59 75.38-6.04Q75.33-6.49 75.53-6.69L75.53-6.69Q74.73-8.99 74.68-11.69Q74.63-14.39 73.83-16.69L73.83-16.69Q73.43-13.49 73.93-10.34Q74.43-7.19 74.83-3.99ZM71.23-12.69L71.23-12.69Q71.13-13.49 71.18-14.14Q71.23-14.79 71.43-15.89L71.43-15.89L70.83-15.89Q71.03-15.09 70.78-14.09Q70.53-13.09 71.23-12.69ZM30.61-14.59L30.61-14.59Q31.31-14.59 31.31-15.69L31.31-15.69Q31.11-15.59 30.86-15.64Q30.61-15.69 30.61-15.59L30.61-15.59Q31.11-15.39 30.81-15.24Q30.51-15.09 30.61-14.59ZM36.72-12.09L36.72-12.09Q36.92-12.89 36.67-13.74Q36.42-14.59 36.02-15.19L36.02-15.19Q35.72-14.39 36.17-13.54Q36.62-12.69 36.72-12.09ZM75.73-14.39L75.73-14.39Q75.83-14.19 75.73-13.84Q75.63-13.49 75.93-13.49L75.93-13.49Q75.93-13.79 76.13-14.34Q76.33-14.89 76.13-14.59L76.13-14.59Q76.13-14.39 75.73-14.39ZM30.41-13.89L30.41-13.89Q30.61-12.99 30.51-12.09Q30.41-11.19 31.21-10.49L31.21-10.49Q31.31-10.69 31.21-11.29Q31.11-11.89 31.31-12.29L31.31-12.29Q31.21-12.49 30.91-12.59Q30.61-12.69 30.61-12.99L30.61-12.99Q31.01-13.19 31.06-13.54Q31.11-13.89 31.31-14.09L31.31-14.09Q30.91-14.29 30.86-14.04Q30.81-13.79 30.41-13.89ZM26.61-11.59L26.61-11.59Q26.41-11.99 26.66-12.59Q26.91-13.19 26.41-12.99L26.41-12.99Q26.21-12.79 26.21-12.19Q26.21-11.59 26.61-11.59ZM24.41 8.12L24.41 8.12Q24.51 7.92 24.71 7.92Q24.91 7.92 25.01 7.72L25.01 7.72Q25.51 2.42 26.56-2.34Q27.61-7.09 27.41-11.59L27.41-11.59Q27.21-10.99 27.11-10.89Q27.01-10.79 27.41-10.29L27.41-10.29Q26.81-9.39 26.61-8.34Q26.41-7.29 26.26-6.14Q26.11-4.99 25.86-3.99Q25.61-2.99 25.11-2.29L25.11-2.29Q25.61-1.69 25.36-0.59Q25.11 0.51 24.61 1.11L24.61 1.11Q25.11 1.91 24.71 2.87Q24.31 3.82 24.81 4.92L24.81 4.92Q24.41 5.12 24.31 5.57Q24.21 6.02 24.26 6.52Q24.31 7.02 24.41 7.47Q24.51 7.92 24.41 8.12ZM37.12-10.69L37.12-10.69Q37.32-10.59 37.42-10.39Q37.52-10.19 37.82-10.49L37.82-10.49Q37.92-10.99 37.52-11.04Q37.12-11.09 37.12-10.69ZM38.02-9.19L38.02-9.19L38.02-10.09L37.32-10.09Q37.42-9.89 37.52-9.59Q37.62-9.29 38.02-9.19ZM30.81-7.79L30.81-7.79Q30.31-8.49 31.01-9.19L31.01-9.19Q30.81-9.29 30.66-9.39Q30.51-9.49 30.21-9.39L30.21-9.39Q30.31-9.19 30.31-8.84Q30.31-8.49 30.31-8.19Q30.31-7.89 30.41-7.74Q30.51-7.59 30.81-7.79ZM29.71-4.69L29.71-4.69Q30.01-4.09 29.96-3.44Q29.91-2.79 29.66-2.09Q29.41-1.39 29.26-0.69Q29.11 0.01 29.31 0.71L29.31 0.71Q29.81 0.61 29.96-0.24Q30.11-1.09 29.71-1.29L29.71-1.29Q30.21-1.89 30.31-2.44Q30.41-2.99 30.41-3.59Q30.41-4.19 30.46-4.84Q30.51-5.49 30.81-6.29L30.81-6.29Q30.51-6.29 30.46-6.59Q30.41-6.89 30.01-6.69L30.01-6.69Q29.81-6.59 29.91-6.29Q30.01-5.99 30.06-5.64Q30.11-5.29 30.06-4.99Q30.01-4.69 29.71-4.69ZM56.22 7.42L56.22 7.42Q57.62 4.52 58.78 1.36Q59.93-1.79 60.43-5.09L60.43-5.09Q59.13-2.19 57.97 1.11Q56.82 4.42 56.22 7.42ZM66.03-3.99L66.03-3.99Q66.23-4.19 66.38-4.44Q66.53-4.69 66.03-4.89L66.03-4.89Q65.83-4.69 65.73-4.34Q65.63-3.99 66.03-3.99ZM28.81 4.32L28.81 4.32Q28.91 3.92 29.16 2.87Q29.41 1.81 28.91 1.51L28.91 1.51Q29.01 2.01 28.91 2.42Q28.81 2.82 28.66 3.17Q28.51 3.52 28.51 3.82Q28.51 4.12 28.81 4.32ZM46.72 10.12L46.72 10.12Q47.22 10.02 47.27 9.72Q47.32 9.42 47.12 8.97Q46.92 8.52 46.72 8.07Q46.52 7.62 46.52 7.22L46.52 7.22L45.82 7.22Q45.72 8.22 46.37 8.77Q47.02 9.32 46.72 10.12ZM58.73 9.02L58.73 9.02Q59.03 8.82 59.23 8.62Q59.43 8.42 59.83 8.12L59.83 8.12Q59.23 7.92 59.03 8.27Q58.83 8.62 58.73 9.02ZM25.31 17.02L25.31 17.02Q25.71 17.12 25.71 17.27Q25.71 17.42 25.61 17.62Q25.51 17.82 25.41 18.02Q25.31 18.22 25.51 18.42L25.51 18.42Q26.31 17.92 26.41 16.87Q26.51 15.82 26.81 14.82L26.81 14.82Q27.31 13.12 27.91 11.47Q28.51 9.82 28.01 8.72L28.01 8.72Q26.91 10.62 26.66 12.82Q26.41 15.02 25.31 17.02ZM51.72 12.82L51.72 12.82Q52.12 12.72 52.17 11.97Q52.22 11.22 52.02 11.02L52.02 11.02Q52.02 11.52 51.87 11.92Q51.72 12.32 51.72 12.82ZM53.72 11.32L53.72 11.32Q53.62 11.72 53.82 11.77Q54.02 11.82 53.92 12.32L53.92 12.32Q54.42 12.42 54.52 11.92Q54.62 11.42 54.42 11.22L54.42 11.22Q53.92 11.22 53.72 11.32ZM23.01 14.42L23.01 14.42Q22.81 13.92 22.96 13.42Q23.11 12.92 22.71 12.52L22.71 12.52Q22.61 13.02 22.56 13.62Q22.51 14.22 23.01 14.42ZM21.21 21.12L21.21 21.12Q21.11 19.72 21.26 18.62Q21.41 17.52 20.61 16.22L20.61 16.22Q20.61 17.92 20.81 19.17Q21.01 20.42 21.21 21.12ZM54.92 19.82L54.92 19.82Q55.42 19.72 55.37 20.12Q55.32 20.52 55.32 20.82L55.32 20.82Q55.42 20.52 55.87 19.92Q56.32 19.32 56.67 18.72Q57.02 18.12 57.17 17.52Q57.32 16.92 56.92 16.62L56.92 16.62Q56.32 17.32 55.87 18.12Q55.42 18.92 54.92 19.82ZM52.62 19.52L52.62 19.52Q52.72 19.02 53.07 18.97Q53.42 18.92 53.52 18.42L53.52 18.42Q53.12 17.52 52.62 17.22L52.62 17.22Q52.42 17.52 52.57 18.37Q52.72 19.22 52.62 19.52ZM51.12 18.72L51.12 18.72Q51.02 18.42 51.37 17.92Q51.72 17.42 51.02 17.42L51.02 17.42Q50.82 17.62 50.87 18.07Q50.92 18.52 51.12 18.72ZM22.31 19.52L22.31 19.52Q22.71 19.02 23.01 18.22L23.01 18.22L22.31 18.22Q22.31 18.52 22.11 18.92Q21.91 19.32 22.31 19.52ZM53.92 21.02L53.92 21.02Q53.62 21.52 53.12 21.82Q52.62 22.12 52.82 23.12L52.82 23.12Q52.62 23.22 52.47 23.32Q52.32 23.42 52.02 23.32L52.02 23.32Q52.32 23.82 52.12 24.37Q51.92 24.92 52.62 25.12L52.62 25.12Q52.92 24.82 53.42 24.22Q53.92 23.62 54.27 23.02Q54.62 22.42 54.62 21.87Q54.62 21.32 53.92 21.02ZM23.21 22.22L23.21 22.22Q23.01 22.92 22.51 23.12Q22.01 23.32 21.41 23.52L21.41 23.52Q21.71 24.22 22.51 24.72L22.51 24.72Q22.61 24.12 23.06 23.17Q23.51 22.22 23.21 22.22ZM21.41 27.83L21.41 27.83Q21.91 27.83 21.96 27.33Q22.01 26.83 22.31 26.53L22.31 26.53Q21.71 26.73 21.61 26.33Q21.51 25.93 21.01 25.93L21.01 25.93Q21.01 26.63 21.16 26.98Q21.31 27.33 21.41 27.83ZM21.21 25.52L21.21 25.52Q20.91 25.42 20.81 25.07Q20.71 24.72 20.66 24.32Q20.61 23.92 20.51 23.62Q20.41 23.32 20.01 23.32L20.01 23.32Q20.31 24.82 20.81 26.33L20.81 26.33Q20.81 26.03 20.96 25.88Q21.11 25.72 21.21 25.52Z"/></g>
<g transform="matrix(1,0,0,1,250,292.5966167232681)" style=""  ><path fill="#000000" opacity="1" d="M-50.07 3.55L-49.29 2.77L-49.29-0.40L-50.07-1.20L-54.80-1.20L-54.80-2.78L-50.86-2.78L-50.86-1.99L-49.29-1.99L-49.29-3.55L-50.07-4.36L-55.60-4.36L-56.38-3.55L-56.38-0.17L-55.60 0.40L-50.86 0.40L-50.86 1.97L-54.80 1.97L-54.80 1.19L-56.38 1.19L-56.38 2.77L-55.60 3.55Z"/><path fill="#000000" opacity="1" d="M-46.69-0.39L-46.69-1.18L-45.12-2.78L-42.75-2.78L-42.75-0.39ZM-46.69 3.55L-46.69 1.19L-42.75 1.19L-42.75 3.55L-41.18 3.55L-41.18-4.36L-45.91-4.36L-48.27-1.97L-48.27 3.55Z"/><path fill="#000000" opacity="1" d="M-38.47 3.55L-38.47 0.40L-33.74 0.40L-33.74-1.18L-38.47-1.18L-38.47-2.78L-33.35-2.78L-33.35-4.36L-40.05-4.36L-40.05 3.55Z"/><path fill="#000000" opacity="1" d="M-25.85 3.55L-25.85 1.97L-30.98 1.97L-30.98 0.40L-26.25 0.40L-26.25-1.18L-30.98-1.18L-30.98-2.78L-25.85-2.78L-25.85-4.36L-32.56-4.36L-32.56 3.55Z"/><path fill="#000000" opacity="1" d="M-20.83 3.55L-20.83-2.78L-18.08-2.78L-18.08-4.36L-25.17-4.36L-25.17-2.78L-22.41-2.78L-22.41 3.55Z"/><path fill="#000000" opacity="1" d="M-13.19 3.55L-13.19 0.57L-10.43-1.41L-10.43-4.36L-12.00-4.36L-12.00-2.08L-13.99-0.74L-15.94-2.08L-15.94-4.36L-17.52-4.36L-17.52-1.41L-14.75 0.57L-14.75 3.55Z"/><path fill="#000000" opacity="1" d=""/><path fill="#000000" opacity="1" d="M-3.66 1.97L-3.66 0.60L-2.99 0.24L-1.50 1.77L-1.69 1.97ZM-2.57-1.36L-2.88-1.73L-2.88-2.78L-1.30-2.78L-1.30-1.97ZM-1.30 3.55L-0.51 2.77L0.28 3.55L2.26 3.55L0.47 1.77L2.26 0.00L0.28 0.00L-0.51 0.78L-1.69-0.39L0.28-1.39L0.28-3.55L-0.51-4.36L-3.66-4.36L-4.46-3.55L-4.46-1.45L-3.86-0.80L-4.46-0.80L-5.24 0.00L-5.24 2.77L-4.46 3.55Z"/><path fill="#000000" opacity="1" d=""/><path fill="#000000" opacity="1" d="M13.40 1.94L14.43 1.19L14.43-3.55L13.65-4.36L8.12-4.36L7.34-3.55L7.34 2.77L8.12 3.55L11.28 3.55L12.25 2.81L12.86 3.55L14.77 3.55ZM11.16 1.54L10.49 1.97L8.92 1.97L8.92-2.78L12.86-2.78L12.86 0.40L12.35 0.72L12.07 0.40L10.19 0.40Z"/><path fill="#000000" opacity="1" d="M15.67-4.36L15.67 2.77L16.45 3.55L21.98 3.55L22.76 2.77L22.76-4.36L21.19-4.36L21.19 1.97L17.25 1.97L17.25-4.36Z"/><path fill="#000000" opacity="1" d="M25.35-0.39L25.35-1.18L26.92-2.78L29.29-2.78L29.29-0.39ZM25.35 3.55L25.35 1.19L29.29 1.19L29.29 3.55L30.86 3.55L30.86-4.36L26.13-4.36L23.77-1.97L23.77 3.55Z"/><path fill="#000000" opacity="1" d="M31.99-4.36L31.99 3.55L38.70 3.55L38.70 1.97L33.57 1.97L33.57-4.36Z"/><path fill="#000000" opacity="1" d="M41.07 3.55L41.07-4.36L39.49-4.36L39.49 3.55Z"/><path fill="#000000" opacity="1" d="M46.20 3.55L46.20-2.78L48.95-2.78L48.95-4.36L41.86-4.36L41.86-2.78L44.62-2.78L44.62 3.55Z"/><path fill="#000000" opacity="1" d="M53.85 3.55L53.85 0.57L56.60-1.41L56.60-4.36L55.03-4.36L55.03-2.08L53.05-0.74L51.09-2.08L51.09-4.36L49.51-4.36L49.51-1.41L52.28 0.57L52.28 3.55Z"/></g>
</svg>